<svg width="35" height="34" viewBox="0 0 35 34" fill="none" xmlns="http://www.w3.org/2000/svg">
<rect x="0.5" y="0.5" width="34" height="33" stroke="#02542D"/>
<path d="M8.53125 24.225C9.77083 23.3042 11.1563 22.5781 12.6875 22.0469C14.2188 21.5156 15.8229 21.25 17.5 21.25C19.1771 21.25 20.7813 21.5156 22.3125 22.0469C23.8438 22.5781 25.2292 23.3042 26.4687 24.225C27.3194 23.2569 27.9818 22.159 28.4557 20.9312C28.9297 19.7035 29.1667 18.393 29.1667 17C29.1667 13.8597 28.0304 11.1858 25.7578 8.97812C23.4852 6.77048 20.7326 5.66666 17.5 5.66666C14.2674 5.66666 11.5148 6.77048 9.24219 8.97812C6.96962 11.1858 5.83333 13.8597 5.83333 17C5.83333 18.393 6.07031 19.7035 6.54427 20.9312C7.01823 22.159 7.68056 23.2569 8.53125 24.225ZM17.5 18.4167C16.066 18.4167 14.8568 17.9385 13.8724 16.9823C12.888 16.026 12.3958 14.8514 12.3958 13.4583C12.3958 12.0653 12.888 10.8906 13.8724 9.93437C14.8568 8.97812 16.066 8.49999 17.5 8.49999C18.934 8.49999 20.1432 8.97812 21.1276 9.93437C22.112 10.8906 22.6042 12.0653 22.6042 13.4583C22.6042 14.8514 22.112 16.026 21.1276 16.9823C20.1432 17.9385 18.934 18.4167 17.5 18.4167ZM17.5 31.1667C15.4826 31.1667 13.5868 30.7948 11.8125 30.051C10.0382 29.3073 8.49479 28.2979 7.18229 27.0229C5.86979 25.7479 4.83073 24.2486 4.06511 22.525C3.29948 20.8014 2.91667 18.9597 2.91667 17C2.91667 15.0403 3.29948 13.1986 4.06511 11.475C4.83073 9.75138 5.86979 8.25208 7.18229 6.97708C8.49479 5.70208 10.0382 4.6927 11.8125 3.94895C13.5868 3.2052 15.4826 2.83333 17.5 2.83333C19.5174 2.83333 21.4132 3.2052 23.1875 3.94895C24.9618 4.6927 26.5052 5.70208 27.8177 6.97708C29.1302 8.25208 30.1693 9.75138 30.9349 11.475C31.7005 13.1986 32.0833 15.0403 32.0833 17C32.0833 18.9597 31.7005 20.8014 30.9349 22.525C30.1693 24.2486 29.1302 25.7479 27.8177 27.0229C26.5052 28.2979 24.9618 29.3073 23.1875 30.051C21.4132 30.7948 19.5174 31.1667 17.5 31.1667Z" fill="#1D1B20"/>
</svg>
