<svg width="313" height="178" viewBox="0 0 313 178" fill="none" xmlns="http://www.w3.org/2000/svg">
<mask id="path-1-inside-1_1_4524" fill="white">
<path d="M0 8C0 3.58172 3.58172 0 8 0H305C309.418 0 313 3.58172 313 8V170C313 174.418 309.418 178 305 178H8.00001C3.58173 178 0 174.418 0 170V8Z"/>
</mask>
<path d="M0 8C0 3.58172 3.58172 0 8 0H305C309.418 0 313 3.58172 313 8V170C313 174.418 309.418 178 305 178H8.00001C3.58173 178 0 174.418 0 170V8Z" fill="white"/>
<path d="M8 1H305V-1H8V1ZM312 8V170H314V8H312ZM305 177H8.00001V179H305V177ZM1 170V8H-1V170H1ZM8.00001 177C4.13401 177 1 173.866 1 170H-1C-1 174.971 3.02945 179 8.00001 179V177ZM312 170C312 173.866 308.866 177 305 177V179C309.971 179 314 174.971 314 170H312ZM305 1C308.866 1 312 4.13401 312 8H314C314 3.02944 309.971 -1 305 -1V1ZM8 -1C3.02944 -1 -1 3.02944 -1 8H1C1 4.13401 4.13401 1 8 1V-1Z" fill="#D9D9D9" mask="url(#path-1-inside-1_1_4524)"/>
<path d="M40 45.3333V40M40 34.6667H40.0134M53.3334 40C53.3334 47.3638 47.3638 53.3333 40 53.3333C32.6362 53.3333 26.6667 47.3638 26.6667 40C26.6667 32.6362 32.6362 26.6667 40 26.6667C47.3638 26.6667 53.3334 32.6362 53.3334 40Z" stroke="#1E1E1E" stroke-width="3" stroke-linecap="round" stroke-linejoin="round"/>
<path d="M80.9545 32.196V29.5455H94.8807V32.196H89.4858V47H86.3494V32.196H80.9545ZM100.761 47.2557C99.4824 47.2557 98.3744 46.9744 97.4369 46.4119C96.4994 45.8494 95.7721 45.0625 95.2551 44.0511C94.7437 43.0398 94.488 41.858 94.488 40.5057C94.488 39.1534 94.7437 37.9687 95.2551 36.9517C95.7721 35.9347 96.4994 35.1449 97.4369 34.5824C98.3744 34.0199 99.4824 33.7386 100.761 33.7386C102.039 33.7386 103.147 34.0199 104.085 34.5824C105.022 35.1449 105.747 35.9347 106.258 36.9517C106.775 37.9687 107.033 39.1534 107.033 40.5057C107.033 41.858 106.775 43.0398 106.258 44.0511C105.747 45.0625 105.022 45.8494 104.085 46.4119C103.147 46.9744 102.039 47.2557 100.761 47.2557ZM100.778 44.7841C101.471 44.7841 102.051 44.5937 102.516 44.2131C102.982 43.8267 103.329 43.3097 103.556 42.6619C103.789 42.0142 103.906 41.2926 103.906 40.4972C103.906 39.696 103.789 38.9716 103.556 38.3239C103.329 37.6705 102.982 37.1506 102.516 36.7642C102.051 36.3778 101.471 36.1847 100.778 36.1847C100.068 36.1847 99.4767 36.3778 99.0051 36.7642C98.5392 37.1506 98.1897 37.6705 97.9568 38.3239C97.7295 38.9716 97.6159 39.696 97.6159 40.4972C97.6159 41.2926 97.7295 42.0142 97.9568 42.6619C98.1897 43.3097 98.5392 43.8267 99.0051 44.2131C99.4767 44.5937 100.068 44.7841 100.778 44.7841ZM117.516 41.4943V33.9091H120.601V47H117.61V44.6733H117.473C117.178 45.4062 116.692 46.0057 116.016 46.4716C115.345 46.9375 114.519 47.1705 113.536 47.1705C112.678 47.1705 111.919 46.9801 111.26 46.5994C110.607 46.2131 110.095 45.6534 109.726 44.9205C109.357 44.1818 109.172 43.2898 109.172 42.2443V33.9091H112.257V41.767C112.257 42.5966 112.485 43.2557 112.939 43.7443C113.394 44.233 113.99 44.4773 114.729 44.4773C115.183 44.4773 115.624 44.3665 116.05 44.1449C116.476 43.9233 116.826 43.5938 117.098 43.1562C117.377 42.7131 117.516 42.1591 117.516 41.4943ZM123.294 47V33.9091H126.285V36.0909H126.422C126.66 35.3352 127.069 34.7528 127.649 34.3438C128.234 33.929 128.902 33.7216 129.652 33.7216C129.822 33.7216 130.012 33.7301 130.223 33.7472C130.439 33.7585 130.618 33.7784 130.76 33.8068V36.6449C130.629 36.5994 130.422 36.5597 130.137 36.5256C129.859 36.4858 129.589 36.4659 129.328 36.4659C128.765 36.4659 128.26 36.5881 127.811 36.8324C127.368 37.071 127.018 37.4034 126.762 37.8295C126.507 38.2557 126.379 38.7472 126.379 39.304V47H123.294Z" fill="#1E1E1E"/>
<path d="M81.4091 78V66.3636H85.4773C86.2879 66.3636 86.9564 66.5038 87.483 66.7841C88.0095 67.0606 88.4015 67.4337 88.6591 67.9034C88.9167 68.3693 89.0455 68.8864 89.0455 69.4545C89.0455 69.9545 88.9564 70.3674 88.7784 70.6932C88.6042 71.0189 88.3731 71.2765 88.0852 71.4659C87.8011 71.6553 87.4924 71.7955 87.1591 71.8864V72C87.5152 72.0227 87.8731 72.1477 88.233 72.375C88.5928 72.6023 88.8939 72.928 89.1364 73.3523C89.3788 73.7765 89.5 74.2955 89.5 74.9091C89.5 75.4924 89.3674 76.017 89.1023 76.483C88.8371 76.9489 88.4186 77.3182 87.8466 77.5909C87.2746 77.8636 86.5303 78 85.6136 78H81.4091ZM82.8182 76.75H85.6136C86.5341 76.75 87.1875 76.572 87.5739 76.2159C87.964 75.8561 88.1591 75.4205 88.1591 74.9091C88.1591 74.5152 88.0587 74.1515 87.858 73.8182C87.6572 73.4811 87.3712 73.2121 87 73.0114C86.6288 72.8068 86.1894 72.7045 85.6818 72.7045H82.8182V76.75ZM82.8182 71.4773H85.4318C85.8561 71.4773 86.2386 71.3939 86.5795 71.2273C86.9242 71.0606 87.197 70.8258 87.3977 70.5227C87.6023 70.2197 87.7045 69.8636 87.7045 69.4545C87.7045 68.9432 87.5265 68.5095 87.1705 68.1534C86.8144 67.7936 86.25 67.6136 85.4773 67.6136H82.8182V71.4773ZM95.179 78.1818C94.3911 78.1818 93.6998 77.9943 93.1051 77.6193C92.5142 77.2443 92.0521 76.7197 91.7188 76.0455C91.3892 75.3712 91.2244 74.5833 91.2244 73.6818C91.2244 72.7727 91.3892 71.9792 91.7188 71.3011C92.0521 70.6231 92.5142 70.0966 93.1051 69.7216C93.6998 69.3466 94.3911 69.1591 95.179 69.1591C95.9669 69.1591 96.6563 69.3466 97.2472 69.7216C97.8419 70.0966 98.304 70.6231 98.6335 71.3011C98.9669 71.9792 99.1335 72.7727 99.1335 73.6818C99.1335 74.5833 98.9669 75.3712 98.6335 76.0455C98.304 76.7197 97.8419 77.2443 97.2472 77.6193C96.6563 77.9943 95.9669 78.1818 95.179 78.1818ZM95.179 76.9773C95.7775 76.9773 96.2699 76.8239 96.6562 76.517C97.0426 76.2102 97.3286 75.8068 97.5142 75.3068C97.6998 74.8068 97.7926 74.2652 97.7926 73.6818C97.7926 73.0985 97.6998 72.5549 97.5142 72.0511C97.3286 71.5473 97.0426 71.1402 96.6562 70.8295C96.2699 70.5189 95.7775 70.3636 95.179 70.3636C94.5805 70.3636 94.0881 70.5189 93.7017 70.8295C93.3153 71.1402 93.0294 71.5473 92.8438 72.0511C92.6581 72.5549 92.5653 73.0985 92.5653 73.6818C92.5653 74.2652 92.6581 74.8068 92.8438 75.3068C93.0294 75.8068 93.3153 76.2102 93.7017 76.517C94.0881 76.8239 94.5805 76.9773 95.179 76.9773ZM104.476 78.1818C103.749 78.1818 103.107 77.9981 102.55 77.6307C101.993 77.2595 101.557 76.7367 101.243 76.0625C100.929 75.3845 100.771 74.5833 100.771 73.6591C100.771 72.7424 100.929 71.947 101.243 71.2727C101.557 70.5985 101.995 70.0777 102.555 69.7102C103.116 69.3428 103.764 69.1591 104.499 69.1591C105.067 69.1591 105.516 69.2538 105.845 69.4432C106.179 69.6288 106.432 69.8409 106.607 70.0795C106.785 70.3144 106.923 70.5076 107.021 70.6591H107.135V66.3636H108.476V78H107.18V76.6591H107.021C106.923 76.8182 106.783 77.0189 106.601 77.2614C106.419 77.5 106.16 77.714 105.822 77.9034C105.485 78.089 105.036 78.1818 104.476 78.1818ZM104.658 76.9773C105.196 76.9773 105.65 76.8371 106.021 76.5568C106.393 76.2727 106.675 75.8807 106.868 75.3807C107.061 74.8769 107.158 74.2955 107.158 73.6364C107.158 72.9848 107.063 72.4148 106.874 71.9261C106.684 71.4337 106.404 71.0511 106.033 70.7784C105.661 70.5019 105.203 70.3636 104.658 70.3636C104.089 70.3636 103.616 70.5095 103.237 70.8011C102.862 71.089 102.58 71.4811 102.391 71.9773C102.205 72.4697 102.112 73.0227 102.112 73.6364C102.112 74.2576 102.207 74.822 102.396 75.3295C102.589 75.8333 102.874 76.2348 103.249 76.5341C103.627 76.8295 104.097 76.9773 104.658 76.9773ZM111.982 81.2727C111.754 81.2727 111.552 81.2538 111.374 81.2159C111.196 81.1818 111.072 81.1477 111.004 81.1136L111.345 79.9318C111.671 80.0152 111.959 80.0455 112.209 80.0227C112.459 80 112.68 79.8883 112.874 79.6875C113.071 79.4905 113.25 79.1705 113.413 78.7273L113.663 78.0455L110.436 69.2727H111.891L114.3 76.2273H114.391L116.8 69.2727H118.254L114.55 79.2727C114.383 79.7235 114.177 80.0966 113.93 80.392C113.684 80.6913 113.398 80.9129 113.072 81.0568C112.75 81.2008 112.387 81.2727 111.982 81.2727ZM128.32 69.2727V70.4091H123.797V69.2727H128.32ZM125.115 67.1818H126.456V75.5C126.456 75.8788 126.511 76.1629 126.621 76.3523C126.734 76.5379 126.878 76.6629 127.053 76.7273C127.231 76.7879 127.418 76.8182 127.615 76.8182C127.763 76.8182 127.884 76.8106 127.979 76.7955C128.073 76.7765 128.149 76.7614 128.206 76.75L128.479 77.9545C128.388 77.9886 128.261 78.0227 128.098 78.0568C127.935 78.0947 127.729 78.1136 127.479 78.1136C127.1 78.1136 126.729 78.0322 126.365 77.8693C126.005 77.7064 125.706 77.4583 125.467 77.125C125.232 76.7917 125.115 76.3712 125.115 75.8636V67.1818ZM133.902 78.1818C133.061 78.1818 132.336 77.9962 131.726 77.625C131.12 77.25 130.652 76.7273 130.322 76.0568C129.997 75.3826 129.834 74.5985 129.834 73.7045C129.834 72.8106 129.997 72.0227 130.322 71.3409C130.652 70.6553 131.11 70.1212 131.697 69.7386C132.288 69.3523 132.978 69.1591 133.766 69.1591C134.22 69.1591 134.669 69.2348 135.112 69.3864C135.555 69.5379 135.959 69.7841 136.322 70.125C136.686 70.4621 136.976 70.9091 137.192 71.4659C137.408 72.0227 137.516 72.7083 137.516 73.5227V74.0909H130.788V72.9318H136.152C136.152 72.4394 136.054 72 135.857 71.6136C135.663 71.2273 135.387 70.9223 135.027 70.6989C134.671 70.4754 134.25 70.3636 133.766 70.3636C133.232 70.3636 132.769 70.4962 132.379 70.7614C131.993 71.0227 131.696 71.3636 131.487 71.7841C131.279 72.2045 131.175 72.6553 131.175 73.1364V73.9091C131.175 74.5682 131.288 75.1269 131.516 75.5852C131.747 76.0398 132.067 76.3864 132.476 76.625C132.885 76.8598 133.36 76.9773 133.902 76.9773C134.254 76.9773 134.572 76.928 134.857 76.8295C135.144 76.7273 135.393 76.5758 135.601 76.375C135.809 76.1705 135.97 75.9167 136.084 75.6136L137.379 75.9773C137.243 76.4167 137.014 76.803 136.692 77.1364C136.37 77.4659 135.972 77.7235 135.499 77.9091C135.025 78.0909 134.493 78.1818 133.902 78.1818ZM140.321 69.2727L142.412 72.8409L144.503 69.2727H146.048L143.23 73.6364L146.048 78H144.503L142.412 74.6136L140.321 78H138.776L141.548 73.6364L138.776 69.2727H140.321ZM151.757 69.2727V70.4091H147.234V69.2727H151.757ZM148.553 67.1818H149.893V75.5C149.893 75.8788 149.948 76.1629 150.058 76.3523C150.172 76.5379 150.316 76.6629 150.49 76.7273C150.668 76.7879 150.856 76.8182 151.053 76.8182C151.2 76.8182 151.321 76.8106 151.416 76.7955C151.511 76.7765 151.587 76.7614 151.643 76.75L151.916 77.9545C151.825 77.9886 151.698 78.0227 151.536 78.0568C151.373 78.0947 151.166 78.1136 150.916 78.1136C150.537 78.1136 150.166 78.0322 149.803 77.8693C149.443 77.7064 149.143 77.4583 148.905 77.125C148.67 76.7917 148.553 76.3712 148.553 75.8636V67.1818ZM162.161 69.2727V70.4091H157.456V69.2727H162.161ZM158.865 78V68.0682C158.865 67.5682 158.982 67.1515 159.217 66.8182C159.452 66.4848 159.757 66.2348 160.132 66.0682C160.507 65.9015 160.903 65.8182 161.32 65.8182C161.649 65.8182 161.918 65.8447 162.126 65.8977C162.335 65.9508 162.49 66 162.592 66.0455L162.206 67.2045C162.138 67.1818 162.043 67.1534 161.922 67.1193C161.804 67.0852 161.649 67.0682 161.456 67.0682C161.013 67.0682 160.693 67.1799 160.496 67.4034C160.303 67.6269 160.206 67.9545 160.206 68.3864V78H158.865ZM167.226 78.1818C166.438 78.1818 165.747 77.9943 165.152 77.6193C164.561 77.2443 164.099 76.7197 163.766 76.0455C163.436 75.3712 163.271 74.5833 163.271 73.6818C163.271 72.7727 163.436 71.9792 163.766 71.3011C164.099 70.6231 164.561 70.0966 165.152 69.7216C165.747 69.3466 166.438 69.1591 167.226 69.1591C168.014 69.1591 168.703 69.3466 169.294 69.7216C169.889 70.0966 170.351 70.6231 170.68 71.3011C171.014 71.9792 171.18 72.7727 171.18 73.6818C171.18 74.5833 171.014 75.3712 170.68 76.0455C170.351 76.7197 169.889 77.2443 169.294 77.6193C168.703 77.9943 168.014 78.1818 167.226 78.1818ZM167.226 76.9773C167.824 76.9773 168.317 76.8239 168.703 76.517C169.089 76.2102 169.375 75.8068 169.561 75.3068C169.747 74.8068 169.839 74.2652 169.839 73.6818C169.839 73.0985 169.747 72.5549 169.561 72.0511C169.375 71.5473 169.089 71.1402 168.703 70.8295C168.317 70.5189 167.824 70.3636 167.226 70.3636C166.627 70.3636 166.135 70.5189 165.749 70.8295C165.362 71.1402 165.076 71.5473 164.891 72.0511C164.705 72.5549 164.612 73.0985 164.612 73.6818C164.612 74.2652 164.705 74.8068 164.891 75.3068C165.076 75.8068 165.362 76.2102 165.749 76.517C166.135 76.8239 166.627 76.9773 167.226 76.9773ZM173.227 78V69.2727H174.523V70.5909H174.614C174.773 70.1591 175.061 69.8087 175.477 69.5398C175.894 69.2708 176.364 69.1364 176.886 69.1364C176.985 69.1364 177.108 69.1383 177.256 69.142C177.403 69.1458 177.515 69.1515 177.591 69.1591V70.5227C177.545 70.5114 177.441 70.4943 177.278 70.4716C177.119 70.4451 176.951 70.4318 176.773 70.4318C176.348 70.4318 175.97 70.5208 175.636 70.6989C175.307 70.8731 175.045 71.1155 174.852 71.4261C174.663 71.733 174.568 72.0833 174.568 72.4773V78H173.227ZM185.658 78L182.999 69.2727H184.408L186.294 75.9545H186.385L188.249 69.2727H189.68L191.521 75.9318H191.612L193.499 69.2727H194.908L192.249 78H190.93L189.021 71.2955H188.885L186.976 78H185.658ZM198.021 72.75V78H196.68V66.3636H198.021V70.6364H198.135C198.339 70.1856 198.646 69.8277 199.055 69.5625C199.468 69.2936 200.018 69.1591 200.703 69.1591C201.298 69.1591 201.819 69.2784 202.266 69.517C202.713 69.7519 203.059 70.1136 203.305 70.6023C203.555 71.0871 203.68 71.7045 203.68 72.4545V78H202.339V72.5455C202.339 71.8523 202.16 71.3163 201.8 70.9375C201.444 70.5549 200.949 70.3636 200.317 70.3636C199.877 70.3636 199.483 70.4564 199.135 70.642C198.79 70.8277 198.518 71.0985 198.317 71.4545C198.12 71.8106 198.021 72.2424 198.021 72.75ZM208.702 78.2045C208.149 78.2045 207.647 78.1004 207.196 77.892C206.745 77.6799 206.387 77.375 206.122 76.9773C205.857 76.5758 205.724 76.0909 205.724 75.5227C205.724 75.0227 205.823 74.6174 206.02 74.3068C206.217 73.9924 206.48 73.7462 206.81 73.5682C207.139 73.3902 207.503 73.2576 207.901 73.1705C208.302 73.0795 208.705 73.0076 209.111 72.9545C209.641 72.8864 210.071 72.8352 210.401 72.8011C210.734 72.7633 210.976 72.7008 211.128 72.6136C211.283 72.5265 211.361 72.375 211.361 72.1591V72.1136C211.361 71.553 211.207 71.1174 210.901 70.8068C210.598 70.4962 210.137 70.3409 209.52 70.3409C208.88 70.3409 208.378 70.4811 208.014 70.7614C207.651 71.0417 207.395 71.3409 207.247 71.6591L205.974 71.2045C206.202 70.6742 206.505 70.2614 206.884 69.9659C207.266 69.6667 207.683 69.4583 208.134 69.3409C208.588 69.2197 209.035 69.1591 209.474 69.1591C209.755 69.1591 210.077 69.1932 210.44 69.2614C210.808 69.3258 211.162 69.4602 211.503 69.6648C211.848 69.8693 212.134 70.178 212.361 70.5909C212.588 71.0038 212.702 71.5568 212.702 72.25V78H211.361V76.8182H211.293C211.202 77.0076 211.05 77.2102 210.838 77.4261C210.626 77.642 210.344 77.8258 209.991 77.9773C209.639 78.1288 209.209 78.2045 208.702 78.2045ZM208.906 77C209.437 77 209.884 76.8958 210.247 76.6875C210.615 76.4792 210.891 76.2102 211.077 75.8807C211.266 75.5511 211.361 75.2045 211.361 74.8409V73.6136C211.304 73.6818 211.179 73.7443 210.986 73.8011C210.796 73.8542 210.577 73.9015 210.327 73.9432C210.08 73.9811 209.84 74.0152 209.605 74.0455C209.374 74.072 209.187 74.0947 209.043 74.1136C208.694 74.1591 208.368 74.233 208.065 74.3352C207.766 74.4337 207.524 74.5833 207.338 74.7841C207.156 74.9811 207.065 75.25 207.065 75.5909C207.065 76.0568 207.238 76.4091 207.582 76.6477C207.931 76.8826 208.372 77 208.906 77ZM218.945 69.2727V70.4091H214.422V69.2727H218.945ZM215.74 67.1818H217.081V75.5C217.081 75.8788 217.136 76.1629 217.246 76.3523C217.359 76.5379 217.503 76.6629 217.678 76.7273C217.856 76.7879 218.043 76.8182 218.24 76.8182C218.388 76.8182 218.509 76.8106 218.604 76.7955C218.698 76.7765 218.774 76.7614 218.831 76.75L219.104 77.9545C219.013 77.9886 218.886 78.0227 218.723 78.0568C218.56 78.0947 218.354 78.1136 218.104 78.1136C217.725 78.1136 217.354 78.0322 216.99 77.8693C216.63 77.7064 216.331 77.4583 216.092 77.125C215.857 76.7917 215.74 76.3712 215.74 75.8636V67.1818ZM224.527 78.1818C223.686 78.1818 222.961 77.9962 222.351 77.625C221.745 77.25 221.277 76.7273 220.947 76.0568C220.622 75.3826 220.459 74.5985 220.459 73.7045C220.459 72.8106 220.622 72.0227 220.947 71.3409C221.277 70.6553 221.735 70.1212 222.322 69.7386C222.913 69.3523 223.603 69.1591 224.391 69.1591C224.845 69.1591 225.294 69.2348 225.737 69.3864C226.18 69.5379 226.584 69.7841 226.947 70.125C227.311 70.4621 227.601 70.9091 227.817 71.4659C228.033 72.0227 228.141 72.7083 228.141 73.5227V74.0909H221.413V72.9318H226.777C226.777 72.4394 226.679 72 226.482 71.6136C226.288 71.2273 226.012 70.9223 225.652 70.6989C225.296 70.4754 224.875 70.3636 224.391 70.3636C223.857 70.3636 223.394 70.4962 223.004 70.7614C222.618 71.0227 222.321 71.3636 222.112 71.7841C221.904 72.2045 221.8 72.6553 221.8 73.1364V73.9091C221.8 74.5682 221.913 75.1269 222.141 75.5852C222.372 76.0398 222.692 76.3864 223.101 76.625C223.51 76.8598 223.985 76.9773 224.527 76.9773C224.879 76.9773 225.197 76.928 225.482 76.8295C225.769 76.7273 226.018 76.5758 226.226 76.375C226.434 76.1705 226.595 75.9167 226.709 75.6136L228.004 75.9773C227.868 76.4167 227.639 76.803 227.317 77.1364C226.995 77.4659 226.597 77.7235 226.124 77.9091C225.65 78.0909 225.118 78.1818 224.527 78.1818ZM237.051 69.2727L233.824 78H232.46L229.233 69.2727H230.688L233.097 76.2273H233.188L235.597 69.2727H237.051ZM242.168 78.1818C241.327 78.1818 240.601 77.9962 239.991 77.625C239.385 77.25 238.918 76.7273 238.588 76.0568C238.262 75.3826 238.099 74.5985 238.099 73.7045C238.099 72.8106 238.262 72.0227 238.588 71.3409C238.918 70.6553 239.376 70.1212 239.963 69.7386C240.554 69.3523 241.243 69.1591 242.031 69.1591C242.486 69.1591 242.935 69.2348 243.378 69.3864C243.821 69.5379 244.224 69.7841 244.588 70.125C244.952 70.4621 245.241 70.9091 245.457 71.4659C245.673 72.0227 245.781 72.7083 245.781 73.5227V74.0909H239.054V72.9318H244.418C244.418 72.4394 244.319 72 244.122 71.6136C243.929 71.2273 243.652 70.9223 243.293 70.6989C242.937 70.4754 242.516 70.3636 242.031 70.3636C241.497 70.3636 241.035 70.4962 240.645 70.7614C240.259 71.0227 239.961 71.3636 239.753 71.7841C239.545 72.2045 239.44 72.6553 239.44 73.1364V73.9091C239.44 74.5682 239.554 75.1269 239.781 75.5852C240.012 76.0398 240.332 76.3864 240.741 76.625C241.151 76.8598 241.626 76.9773 242.168 76.9773C242.52 76.9773 242.838 76.928 243.122 76.8295C243.41 76.7273 243.658 76.5758 243.866 76.375C244.075 76.1705 244.236 75.9167 244.349 75.6136L245.645 75.9773C245.509 76.4167 245.279 76.803 244.957 77.1364C244.635 77.4659 244.238 77.7235 243.764 77.9091C243.291 78.0909 242.759 78.1818 242.168 78.1818ZM247.821 78V69.2727H249.116V70.5909H249.207C249.366 70.1591 249.654 69.8087 250.071 69.5398C250.488 69.2708 250.957 69.1364 251.48 69.1364C251.579 69.1364 251.702 69.1383 251.849 69.142C251.997 69.1458 252.109 69.1515 252.185 69.1591V70.5227C252.139 70.5114 252.035 70.4943 251.872 70.4716C251.713 70.4451 251.545 70.4318 251.366 70.4318C250.942 70.4318 250.563 70.5208 250.23 70.6989C249.901 70.8731 249.639 71.1155 249.446 71.4261C249.257 71.733 249.162 72.0833 249.162 72.4773V78H247.821ZM82.0909 103.273C81.8636 103.273 81.661 103.254 81.483 103.216C81.3049 103.182 81.1818 103.148 81.1136 103.114L81.4545 101.932C81.7803 102.015 82.0682 102.045 82.3182 102.023C82.5682 102 82.7898 101.888 82.983 101.688C83.1799 101.491 83.3598 101.17 83.5227 100.727L83.7727 100.045L80.5455 91.2727H82L84.4091 98.2273H84.5L86.9091 91.2727H88.3636L84.6591 101.273C84.4924 101.723 84.286 102.097 84.0398 102.392C83.7936 102.691 83.5076 102.913 83.1818 103.057C82.8598 103.201 82.4962 103.273 82.0909 103.273ZM93.3665 100.182C92.5786 100.182 91.8873 99.9943 91.2926 99.6193C90.7017 99.2443 90.2396 98.7197 89.9062 98.0455C89.5767 97.3712 89.4119 96.5833 89.4119 95.6818C89.4119 94.7727 89.5767 93.9792 89.9062 93.3011C90.2396 92.6231 90.7017 92.0966 91.2926 91.7216C91.8873 91.3466 92.5786 91.1591 93.3665 91.1591C94.1544 91.1591 94.8438 91.3466 95.4347 91.7216C96.0294 92.0966 96.4915 92.6231 96.821 93.3011C97.1544 93.9792 97.321 94.7727 97.321 95.6818C97.321 96.5833 97.1544 97.3712 96.821 98.0455C96.4915 98.7197 96.0294 99.2443 95.4347 99.6193C94.8438 99.9943 94.1544 100.182 93.3665 100.182ZM93.3665 98.9773C93.965 98.9773 94.4574 98.8239 94.8438 98.517C95.2301 98.2102 95.5161 97.8068 95.7017 97.3068C95.8873 96.8068 95.9801 96.2652 95.9801 95.6818C95.9801 95.0985 95.8873 94.5549 95.7017 94.0511C95.5161 93.5473 95.2301 93.1402 94.8438 92.8295C94.4574 92.5189 93.965 92.3636 93.3665 92.3636C92.768 92.3636 92.2756 92.5189 91.8892 92.8295C91.5028 93.1402 91.2169 93.5473 91.0312 94.0511C90.8456 94.5549 90.7528 95.0985 90.7528 95.6818C90.7528 96.2652 90.8456 96.8068 91.0312 97.3068C91.2169 97.8068 91.5028 98.2102 91.8892 98.517C92.2756 98.8239 92.768 98.9773 93.3665 98.9773ZM104.868 96.4318V91.2727H106.209V100H104.868V98.5227H104.777C104.572 98.9659 104.254 99.3428 103.822 99.6534C103.391 99.9602 102.845 100.114 102.186 100.114C101.641 100.114 101.156 99.9943 100.732 99.7557C100.307 99.5133 99.974 99.1496 99.7315 98.6648C99.4891 98.1761 99.3679 97.5606 99.3679 96.8182V91.2727H100.709V96.7273C100.709 97.3636 100.887 97.8712 101.243 98.25C101.603 98.6288 102.061 98.8182 102.618 98.8182C102.951 98.8182 103.29 98.733 103.635 98.5625C103.983 98.392 104.275 98.1307 104.51 97.7784C104.749 97.4261 104.868 96.9773 104.868 96.4318ZM110.081 88.3636V89.3864C110.081 89.697 110.024 90.0284 109.911 90.3807C109.801 90.7292 109.638 91.0682 109.422 91.3977C109.21 91.7235 108.952 92.0076 108.649 92.25L107.922 91.6591C108.161 91.3182 108.367 90.964 108.541 90.5966C108.719 90.2254 108.808 89.8295 108.808 89.4091V88.3636H110.081ZM114.148 100.182C113.42 100.182 112.778 99.9981 112.222 99.6307C111.665 99.2595 111.229 98.7367 110.915 98.0625C110.6 97.3845 110.443 96.5833 110.443 95.6591C110.443 94.7424 110.6 93.947 110.915 93.2727C111.229 92.5985 111.667 92.0777 112.227 91.7102C112.788 91.3428 113.436 91.1591 114.17 91.1591C114.739 91.1591 115.188 91.2538 115.517 91.4432C115.85 91.6288 116.104 91.8409 116.278 92.0795C116.456 92.3144 116.595 92.5076 116.693 92.6591H116.807V88.3636H118.148V100H116.852V98.6591H116.693C116.595 98.8182 116.455 99.0189 116.273 99.2614C116.091 99.5 115.831 99.714 115.494 99.9034C115.157 100.089 114.708 100.182 114.148 100.182ZM114.33 98.9773C114.867 98.9773 115.322 98.8371 115.693 98.5568C116.064 98.2727 116.347 97.8807 116.54 97.3807C116.733 96.8769 116.83 96.2955 116.83 95.6364C116.83 94.9848 116.735 94.4148 116.545 93.9261C116.356 93.4337 116.076 93.0511 115.705 92.7784C115.333 92.5019 114.875 92.3636 114.33 92.3636C113.761 92.3636 113.288 92.5095 112.909 92.8011C112.534 93.089 112.252 93.4811 112.062 93.9773C111.877 94.4697 111.784 95.0227 111.784 95.6364C111.784 96.2576 111.879 96.822 112.068 97.3295C112.261 97.8333 112.545 98.2348 112.92 98.5341C113.299 98.8295 113.769 98.9773 114.33 98.9773ZM126.631 88.3636V100H125.29V88.3636H126.631ZM129.087 100V91.2727H130.428V100H129.087ZM129.768 89.8182C129.507 89.8182 129.282 89.7292 129.092 89.5511C128.907 89.3731 128.814 89.1591 128.814 88.9091C128.814 88.6591 128.907 88.4451 129.092 88.267C129.282 88.089 129.507 88 129.768 88C130.03 88 130.253 88.089 130.439 88.267C130.628 88.4451 130.723 88.6591 130.723 88.9091C130.723 89.1591 130.628 89.3731 130.439 89.5511C130.253 89.7292 130.03 89.8182 129.768 89.8182ZM134.134 96.8182L134.111 95.1591H134.384L138.202 91.2727H139.861L135.793 95.3864H135.679L134.134 96.8182ZM132.884 100V88.3636H134.224V100H132.884ZM138.429 100L135.02 95.6818L135.974 94.75L140.134 100H138.429ZM144.886 100.182C144.045 100.182 143.32 99.9962 142.71 99.625C142.104 99.25 141.636 98.7273 141.307 98.0568C140.981 97.3826 140.818 96.5985 140.818 95.7045C140.818 94.8106 140.981 94.0227 141.307 93.3409C141.636 92.6553 142.095 92.1212 142.682 91.7386C143.273 91.3523 143.962 91.1591 144.75 91.1591C145.205 91.1591 145.653 91.2348 146.097 91.3864C146.54 91.5379 146.943 91.7841 147.307 92.125C147.67 92.4621 147.96 92.9091 148.176 93.4659C148.392 94.0227 148.5 94.7083 148.5 95.5227V96.0909H141.773V94.9318H147.136C147.136 94.4394 147.038 94 146.841 93.6136C146.648 93.2273 146.371 92.9223 146.011 92.6989C145.655 92.4754 145.235 92.3636 144.75 92.3636C144.216 92.3636 143.754 92.4962 143.364 92.7614C142.977 93.0227 142.68 93.3636 142.472 93.7841C142.263 94.2045 142.159 94.6553 142.159 95.1364V95.9091C142.159 96.5682 142.273 97.1269 142.5 97.5852C142.731 98.0398 143.051 98.3864 143.46 98.625C143.869 98.8598 144.345 98.9773 144.886 98.9773C145.239 98.9773 145.557 98.928 145.841 98.8295C146.129 98.7273 146.377 98.5758 146.585 98.375C146.794 98.1705 146.955 97.9167 147.068 97.6136L148.364 97.9773C148.227 98.4167 147.998 98.803 147.676 99.1364C147.354 99.4659 146.956 99.7235 146.483 99.9091C146.009 100.091 145.477 100.182 144.886 100.182ZM158.835 91.2727V92.4091H154.312V91.2727H158.835ZM155.631 89.1818H156.972V97.5C156.972 97.8788 157.027 98.1629 157.136 98.3523C157.25 98.5379 157.394 98.6629 157.568 98.7273C157.746 98.7879 157.934 98.8182 158.131 98.8182C158.278 98.8182 158.4 98.8106 158.494 98.7955C158.589 98.7765 158.665 98.7614 158.722 98.75L158.994 99.9545C158.903 99.9886 158.777 100.023 158.614 100.057C158.451 100.095 158.244 100.114 157.994 100.114C157.616 100.114 157.244 100.032 156.881 99.8693C156.521 99.7064 156.222 99.4583 155.983 99.125C155.748 98.7917 155.631 98.3712 155.631 97.8636V89.1818ZM164.304 100.182C163.516 100.182 162.825 99.9943 162.23 99.6193C161.639 99.2443 161.177 98.7197 160.844 98.0455C160.514 97.3712 160.349 96.5833 160.349 95.6818C160.349 94.7727 160.514 93.9792 160.844 93.3011C161.177 92.6231 161.639 92.0966 162.23 91.7216C162.825 91.3466 163.516 91.1591 164.304 91.1591C165.092 91.1591 165.781 91.3466 166.372 91.7216C166.967 92.0966 167.429 92.6231 167.759 93.3011C168.092 93.9792 168.259 94.7727 168.259 95.6818C168.259 96.5833 168.092 97.3712 167.759 98.0455C167.429 98.7197 166.967 99.2443 166.372 99.6193C165.781 99.9943 165.092 100.182 164.304 100.182ZM164.304 98.9773C164.902 98.9773 165.395 98.8239 165.781 98.517C166.168 98.2102 166.454 97.8068 166.639 97.3068C166.825 96.8068 166.918 96.2652 166.918 95.6818C166.918 95.0985 166.825 94.5549 166.639 94.0511C166.454 93.5473 166.168 93.1402 165.781 92.8295C165.395 92.5189 164.902 92.3636 164.304 92.3636C163.705 92.3636 163.213 92.5189 162.827 92.8295C162.44 93.1402 162.154 93.5473 161.969 94.0511C161.783 94.5549 161.69 95.0985 161.69 95.6818C161.69 96.2652 161.783 96.8068 161.969 97.3068C162.154 97.8068 162.44 98.2102 162.827 98.517C163.213 98.8239 163.705 98.9773 164.304 98.9773ZM180.987 93.2273L179.783 93.5682C179.707 93.3674 179.595 93.1723 179.447 92.983C179.304 92.7898 179.107 92.6307 178.857 92.5057C178.607 92.3807 178.286 92.3182 177.896 92.3182C177.362 92.3182 176.917 92.4413 176.561 92.6875C176.209 92.9299 176.033 93.2386 176.033 93.6136C176.033 93.947 176.154 94.2102 176.396 94.4034C176.639 94.5966 177.018 94.7576 177.533 94.8864L178.828 95.2045C179.608 95.3939 180.19 95.6837 180.572 96.0739C180.955 96.4602 181.146 96.9583 181.146 97.5682C181.146 98.0682 181.002 98.5152 180.714 98.9091C180.43 99.303 180.033 99.6136 179.521 99.8409C179.01 100.068 178.415 100.182 177.737 100.182C176.847 100.182 176.11 99.9886 175.527 99.6023C174.944 99.2159 174.574 98.6515 174.419 97.9091L175.692 97.5909C175.813 98.0606 176.042 98.4129 176.379 98.6477C176.72 98.8826 177.165 99 177.714 99C178.339 99 178.836 98.8674 179.203 98.6023C179.574 98.3333 179.76 98.0114 179.76 97.6364C179.76 97.3333 179.654 97.0795 179.442 96.875C179.23 96.6667 178.904 96.5114 178.464 96.4091L177.01 96.0682C176.211 95.8788 175.624 95.5852 175.249 95.1875C174.877 94.786 174.692 94.2841 174.692 93.6818C174.692 93.1894 174.83 92.7538 175.107 92.375C175.387 91.9962 175.768 91.6989 176.249 91.483C176.733 91.267 177.283 91.1591 177.896 91.1591C178.76 91.1591 179.438 91.3485 179.93 91.7273C180.427 92.1061 180.779 92.6061 180.987 93.2273ZM185.733 100.205C185.18 100.205 184.678 100.1 184.227 99.892C183.777 99.6799 183.419 99.375 183.153 98.9773C182.888 98.5758 182.756 98.0909 182.756 97.5227C182.756 97.0227 182.854 96.6174 183.051 96.3068C183.248 95.9924 183.511 95.7462 183.841 95.5682C184.17 95.3902 184.534 95.2576 184.932 95.1705C185.333 95.0795 185.737 95.0076 186.142 94.9545C186.672 94.8864 187.102 94.8352 187.432 94.8011C187.765 94.7633 188.008 94.7008 188.159 94.6136C188.314 94.5265 188.392 94.375 188.392 94.1591V94.1136C188.392 93.553 188.239 93.1174 187.932 92.8068C187.629 92.4962 187.169 92.3409 186.551 92.3409C185.911 92.3409 185.409 92.4811 185.045 92.7614C184.682 93.0417 184.426 93.3409 184.278 93.6591L183.006 93.2045C183.233 92.6742 183.536 92.2614 183.915 91.9659C184.297 91.6667 184.714 91.4583 185.165 91.3409C185.619 91.2197 186.066 91.1591 186.506 91.1591C186.786 91.1591 187.108 91.1932 187.472 91.2614C187.839 91.3258 188.193 91.4602 188.534 91.6648C188.879 91.8693 189.165 92.178 189.392 92.5909C189.619 93.0038 189.733 93.5568 189.733 94.25V100H188.392V98.8182H188.324C188.233 99.0076 188.081 99.2102 187.869 99.4261C187.657 99.642 187.375 99.8258 187.023 99.9773C186.67 100.129 186.241 100.205 185.733 100.205ZM185.938 99C186.468 99 186.915 98.8958 187.278 98.6875C187.646 98.4792 187.922 98.2102 188.108 97.8807C188.297 97.5511 188.392 97.2045 188.392 96.8409V95.6136C188.335 95.6818 188.21 95.7443 188.017 95.8011C187.828 95.8542 187.608 95.9015 187.358 95.9432C187.112 95.9811 186.871 96.0152 186.636 96.0455C186.405 96.072 186.218 96.0947 186.074 96.1136C185.725 96.1591 185.4 96.233 185.097 96.3352C184.797 96.4337 184.555 96.5833 184.369 96.7841C184.188 96.9811 184.097 97.25 184.097 97.5909C184.097 98.0568 184.269 98.4091 184.614 98.6477C184.962 98.8826 185.403 99 185.938 99ZM192.732 103.273C192.504 103.273 192.302 103.254 192.124 103.216C191.946 103.182 191.822 103.148 191.754 103.114L192.095 101.932C192.421 102.015 192.709 102.045 192.959 102.023C193.209 102 193.43 101.888 193.624 101.688C193.821 101.491 194 101.17 194.163 100.727L194.413 100.045L191.186 91.2727H192.641L195.05 98.2273H195.141L197.55 91.2727H199.004L195.3 101.273C195.133 101.723 194.927 102.097 194.68 102.392C194.434 102.691 194.148 102.913 193.822 103.057C193.5 103.201 193.137 103.273 192.732 103.273ZM201.205 100.091C200.924 100.091 200.684 99.9905 200.483 99.7898C200.282 99.589 200.182 99.3485 200.182 99.0682C200.182 98.7879 200.282 98.5473 200.483 98.3466C200.684 98.1458 200.924 98.0455 201.205 98.0455C201.485 98.0455 201.725 98.1458 201.926 98.3466C202.127 98.5473 202.227 98.7879 202.227 99.0682C202.227 99.2538 202.18 99.4242 202.085 99.5795C201.994 99.7348 201.871 99.8598 201.716 99.9545C201.564 100.045 201.394 100.091 201.205 100.091Z" fill="#757575"/>
<path d="M80.5 129C80.5 124.858 83.8579 121.5 88 121.5H147C151.142 121.5 154.5 124.858 154.5 129V153C154.5 157.142 151.142 160.5 147 160.5H88C83.8579 160.5 80.5 157.142 80.5 153V129Z" fill="#E3E3E3"/>
<path d="M80.5 129C80.5 124.858 83.8579 121.5 88 121.5H147C151.142 121.5 154.5 124.858 154.5 129V153C154.5 157.142 151.142 160.5 147 160.5H88C83.8579 160.5 80.5 157.142 80.5 153V129Z" stroke="#767676" stroke-linecap="round"/>
<path d="M93.4091 147V135.364H97.4773C98.2879 135.364 98.9564 135.504 99.483 135.784C100.009 136.061 100.402 136.434 100.659 136.903C100.917 137.369 101.045 137.886 101.045 138.455C101.045 138.955 100.956 139.367 100.778 139.693C100.604 140.019 100.373 140.277 100.085 140.466C99.8011 140.655 99.4924 140.795 99.1591 140.886V141C99.5152 141.023 99.8731 141.148 100.233 141.375C100.593 141.602 100.894 141.928 101.136 142.352C101.379 142.777 101.5 143.295 101.5 143.909C101.5 144.492 101.367 145.017 101.102 145.483C100.837 145.949 100.419 146.318 99.8466 146.591C99.2746 146.864 98.5303 147 97.6136 147H93.4091ZM94.8182 145.75H97.6136C98.5341 145.75 99.1875 145.572 99.5739 145.216C99.964 144.856 100.159 144.42 100.159 143.909C100.159 143.515 100.059 143.152 99.858 142.818C99.6572 142.481 99.3712 142.212 99 142.011C98.6288 141.807 98.1894 141.705 97.6818 141.705H94.8182V145.75ZM94.8182 140.477H97.4318C97.8561 140.477 98.2386 140.394 98.5795 140.227C98.9242 140.061 99.197 139.826 99.3977 139.523C99.6023 139.22 99.7045 138.864 99.7045 138.455C99.7045 137.943 99.5265 137.509 99.1705 137.153C98.8144 136.794 98.25 136.614 97.4773 136.614H94.8182V140.477ZM109.134 143.432V138.273H110.474V147H109.134V145.523H109.043C108.838 145.966 108.52 146.343 108.088 146.653C107.656 146.96 107.111 147.114 106.452 147.114C105.906 147.114 105.421 146.994 104.997 146.756C104.573 146.513 104.24 146.15 103.997 145.665C103.755 145.176 103.634 144.561 103.634 143.818V138.273H104.974V143.727C104.974 144.364 105.152 144.871 105.509 145.25C105.868 145.629 106.327 145.818 106.884 145.818C107.217 145.818 107.556 145.733 107.901 145.562C108.249 145.392 108.541 145.131 108.776 144.778C109.014 144.426 109.134 143.977 109.134 143.432ZM116.726 138.273V139.409H112.203V138.273H116.726ZM113.521 136.182H114.862V144.5C114.862 144.879 114.917 145.163 115.027 145.352C115.141 145.538 115.285 145.663 115.459 145.727C115.637 145.788 115.824 145.818 116.021 145.818C116.169 145.818 116.29 145.811 116.385 145.795C116.48 145.777 116.555 145.761 116.612 145.75L116.885 146.955C116.794 146.989 116.667 147.023 116.504 147.057C116.341 147.095 116.135 147.114 115.885 147.114C115.506 147.114 115.135 147.032 114.771 146.869C114.411 146.706 114.112 146.458 113.874 146.125C113.639 145.792 113.521 145.371 113.521 144.864V136.182ZM122.538 138.273V139.409H118.016V138.273H122.538ZM119.334 136.182H120.675V144.5C120.675 144.879 120.73 145.163 120.839 145.352C120.953 145.538 121.097 145.663 121.271 145.727C121.449 145.788 121.637 145.818 121.834 145.818C121.982 145.818 122.103 145.811 122.197 145.795C122.292 145.777 122.368 145.761 122.425 145.75L122.697 146.955C122.607 146.989 122.48 147.023 122.317 147.057C122.154 147.095 121.947 147.114 121.697 147.114C121.319 147.114 120.947 147.032 120.584 146.869C120.224 146.706 119.925 146.458 119.686 146.125C119.451 145.792 119.334 145.371 119.334 144.864V136.182ZM128.007 147.182C127.219 147.182 126.528 146.994 125.933 146.619C125.342 146.244 124.88 145.72 124.547 145.045C124.217 144.371 124.053 143.583 124.053 142.682C124.053 141.773 124.217 140.979 124.547 140.301C124.88 139.623 125.342 139.097 125.933 138.722C126.528 138.347 127.219 138.159 128.007 138.159C128.795 138.159 129.484 138.347 130.075 138.722C130.67 139.097 131.132 139.623 131.462 140.301C131.795 140.979 131.962 141.773 131.962 142.682C131.962 143.583 131.795 144.371 131.462 145.045C131.132 145.72 130.67 146.244 130.075 146.619C129.484 146.994 128.795 147.182 128.007 147.182ZM128.007 145.977C128.606 145.977 129.098 145.824 129.484 145.517C129.871 145.21 130.157 144.807 130.342 144.307C130.528 143.807 130.621 143.265 130.621 142.682C130.621 142.098 130.528 141.555 130.342 141.051C130.157 140.547 129.871 140.14 129.484 139.83C129.098 139.519 128.606 139.364 128.007 139.364C127.409 139.364 126.916 139.519 126.53 139.83C126.143 140.14 125.857 140.547 125.672 141.051C125.486 141.555 125.393 142.098 125.393 142.682C125.393 143.265 125.486 143.807 125.672 144.307C125.857 144.807 126.143 145.21 126.53 145.517C126.916 145.824 127.409 145.977 128.007 145.977ZM135.349 141.75V147H134.009V138.273H135.304V139.636H135.418C135.622 139.193 135.933 138.837 136.349 138.568C136.766 138.295 137.304 138.159 137.963 138.159C138.554 138.159 139.071 138.28 139.514 138.523C139.957 138.761 140.302 139.125 140.548 139.614C140.795 140.098 140.918 140.712 140.918 141.455V147H139.577V141.545C139.577 140.86 139.399 140.326 139.043 139.943C138.687 139.557 138.198 139.364 137.577 139.364C137.149 139.364 136.766 139.456 136.429 139.642C136.096 139.828 135.832 140.098 135.639 140.455C135.446 140.811 135.349 141.242 135.349 141.75Z" fill="#1E1E1E"/>
</svg>
