<svg width="334" height="174" viewBox="0 0 334 174" fill="none" xmlns="http://www.w3.org/2000/svg">
<mask id="path-1-inside-1_1_4538" fill="white">
<path d="M0 8C0 3.58172 3.58172 0 8 0H326C330.418 0 334 3.58172 334 8V166C334 170.418 330.418 174 326 174H7.99999C3.58171 174 0 170.418 0 166V8Z"/>
</mask>
<path d="M0 8C0 3.58172 3.58172 0 8 0H326C330.418 0 334 3.58172 334 8V166C334 170.418 330.418 174 326 174H7.99999C3.58171 174 0 170.418 0 166V8Z" fill="white"/>
<path d="M8 1H326V-1H8V1ZM333 8V166H335V8H333ZM326 173H7.99999V175H326V173ZM1 166V8H-1V166H1ZM7.99999 173C4.134 173 1 169.866 1 166H-1C-1 170.971 3.02943 175 7.99999 175V173ZM333 166C333 169.866 329.866 173 326 173V175C330.971 175 335 170.971 335 166H333ZM326 1C329.866 1 333 4.13401 333 8H335C335 3.02944 330.971 -1 326 -1V1ZM8 -1C3.02944 -1 -1 3.02943 -1 8H1C1 4.134 4.13401 1 8 1V-1Z" fill="#D9D9D9" mask="url(#path-1-inside-1_1_4538)"/>
<path d="M40 45.3333V40M40 34.6667H40.0134M53.3334 40C53.3334 47.3638 47.3638 53.3333 40 53.3333C32.6362 53.3333 26.6667 47.3638 26.6667 40C26.6667 32.6362 32.6362 26.6667 40 26.6667C47.3638 26.6667 53.3334 32.6362 53.3334 40Z" stroke="#1E1E1E" stroke-width="3" stroke-linecap="round" stroke-linejoin="round"/>
<path d="M87.6364 47H81.7216V29.5455H87.7557C89.4886 29.5455 90.9773 29.8949 92.2216 30.5938C93.4716 31.2869 94.4318 32.2841 95.1023 33.5852C95.7727 34.8864 96.108 36.4432 96.108 38.2557C96.108 40.0739 95.7699 41.6364 95.0938 42.9432C94.4233 44.25 93.4545 45.2528 92.1875 45.9517C90.9261 46.6506 89.4091 47 87.6364 47ZM84.8835 44.2642H87.483C88.6989 44.2642 89.7131 44.0426 90.5256 43.5994C91.3381 43.1506 91.9489 42.483 92.358 41.5966C92.767 40.7045 92.9716 39.5909 92.9716 38.2557C92.9716 36.9205 92.767 35.8125 92.358 34.9318C91.9489 34.0455 91.3438 33.3835 90.5426 32.946C89.7472 32.5028 88.7585 32.2812 87.5767 32.2812H84.8835V44.2642ZM104.291 47.2557C102.979 47.2557 101.845 46.983 100.891 46.4375C99.9419 45.8864 99.2118 45.108 98.7004 44.1023C98.189 43.0909 97.9334 41.9006 97.9334 40.5312C97.9334 39.1847 98.189 38.0028 98.7004 36.9858C99.2174 35.9631 99.939 35.1676 100.865 34.5994C101.791 34.0256 102.879 33.7386 104.129 33.7386C104.936 33.7386 105.698 33.8693 106.413 34.1307C107.135 34.3864 107.771 34.7841 108.323 35.3239C108.879 35.8636 109.317 36.5511 109.635 37.3864C109.953 38.2159 110.112 39.2045 110.112 40.3523V41.2983H99.3822V39.2188H107.155C107.149 38.6278 107.021 38.1023 106.771 37.642C106.521 37.1761 106.172 36.8097 105.723 36.5426C105.28 36.2756 104.763 36.142 104.172 36.142C103.541 36.142 102.987 36.2955 102.51 36.6023C102.033 36.9034 101.661 37.3011 101.394 37.7955C101.132 38.2841 100.999 38.821 100.993 39.4062V41.2216C100.993 41.983 101.132 42.6364 101.411 43.1818C101.689 43.7216 102.078 44.1364 102.578 44.4261C103.078 44.7102 103.663 44.8523 104.334 44.8523C104.783 44.8523 105.189 44.7898 105.553 44.6648C105.916 44.5341 106.232 44.3438 106.499 44.0938C106.766 43.8438 106.967 43.5341 107.104 43.1648L109.984 43.4886C109.803 44.25 109.456 44.9148 108.945 45.483C108.439 46.0455 107.791 46.483 107.002 46.7955C106.212 47.1023 105.308 47.2557 104.291 47.2557ZM123.561 33.9091L118.899 47H115.49L110.828 33.9091H114.117L117.126 43.6335H117.262L120.279 33.9091H123.561ZM130.566 47.2557C129.253 47.2557 128.12 46.983 127.165 46.4375C126.216 45.8864 125.486 45.108 124.975 44.1023C124.463 43.0909 124.208 41.9006 124.208 40.5312C124.208 39.1847 124.463 38.0028 124.975 36.9858C125.492 35.9631 126.213 35.1676 127.14 34.5994C128.066 34.0256 129.154 33.7386 130.404 33.7386C131.211 33.7386 131.972 33.8693 132.688 34.1307C133.409 34.3864 134.046 34.7841 134.597 35.3239C135.154 35.8636 135.591 36.5511 135.909 37.3864C136.228 38.2159 136.387 39.2045 136.387 40.3523V41.2983H125.657V39.2188H133.429C133.424 38.6278 133.296 38.1023 133.046 37.642C132.796 37.1761 132.446 36.8097 131.998 36.5426C131.554 36.2756 131.037 36.142 130.446 36.142C129.816 36.142 129.262 36.2955 128.784 36.6023C128.307 36.9034 127.935 37.3011 127.668 37.7955C127.407 38.2841 127.273 38.821 127.267 39.4062V41.2216C127.267 41.983 127.407 42.6364 127.685 43.1818C127.963 43.7216 128.353 44.1364 128.853 44.4261C129.353 44.7102 129.938 44.8523 130.608 44.8523C131.057 44.8523 131.463 44.7898 131.827 44.6648C132.191 44.5341 132.506 44.3438 132.773 44.0938C133.04 43.8438 133.242 43.5341 133.378 43.1648L136.259 43.4886C136.077 44.25 135.73 44.9148 135.219 45.483C134.713 46.0455 134.066 46.483 133.276 46.7955C132.486 47.1023 131.583 47.2557 130.566 47.2557ZM141.602 29.5455V47H138.517V29.5455H141.602ZM150.005 47.2557C148.726 47.2557 147.618 46.9744 146.681 46.4119C145.743 45.8494 145.016 45.0625 144.499 44.0511C143.988 43.0398 143.732 41.858 143.732 40.5057C143.732 39.1534 143.988 37.9687 144.499 36.9517C145.016 35.9347 145.743 35.1449 146.681 34.5824C147.618 34.0199 148.726 33.7386 150.005 33.7386C151.283 33.7386 152.391 34.0199 153.329 34.5824C154.266 35.1449 154.991 35.9347 155.502 36.9517C156.019 37.9687 156.278 39.1534 156.278 40.5057C156.278 41.858 156.019 43.0398 155.502 44.0511C154.991 45.0625 154.266 45.8494 153.329 46.4119C152.391 46.9744 151.283 47.2557 150.005 47.2557ZM150.022 44.7841C150.715 44.7841 151.295 44.5937 151.761 44.2131C152.226 43.8267 152.573 43.3097 152.8 42.6619C153.033 42.0142 153.15 41.2926 153.15 40.4972C153.15 39.696 153.033 38.9716 152.8 38.3239C152.573 37.6705 152.226 37.1506 151.761 36.7642C151.295 36.3778 150.715 36.1847 150.022 36.1847C149.312 36.1847 148.721 36.3778 148.249 36.7642C147.783 37.1506 147.434 37.6705 147.201 38.3239C146.974 38.9716 146.86 39.696 146.86 40.4972C146.86 41.2926 146.974 42.0142 147.201 42.6619C147.434 43.3097 147.783 43.8267 148.249 44.2131C148.721 44.5937 149.312 44.7841 150.022 44.7841ZM158.416 51.9091V33.9091H161.45V36.0739H161.629C161.788 35.7557 162.013 35.4176 162.303 35.0597C162.592 34.696 162.984 34.3864 163.479 34.1307C163.973 33.8693 164.604 33.7386 165.371 33.7386C166.382 33.7386 167.294 33.9972 168.107 34.5142C168.925 35.0256 169.572 35.7841 170.05 36.7898C170.533 37.7898 170.774 39.017 170.774 40.4716C170.774 41.9091 170.538 43.1307 170.067 44.1364C169.595 45.142 168.953 45.9091 168.141 46.4375C167.328 46.9659 166.408 47.2301 165.379 47.2301C164.629 47.2301 164.007 47.1051 163.513 46.8551C163.018 46.6051 162.621 46.304 162.32 45.9517C162.024 45.5937 161.794 45.2557 161.629 44.9375H161.501V51.9091H158.416ZM161.442 40.4545C161.442 41.3011 161.561 42.0426 161.8 42.679C162.044 43.3153 162.393 43.8125 162.848 44.1705C163.308 44.5227 163.865 44.6989 164.518 44.6989C165.2 44.6989 165.771 44.517 166.232 44.1534C166.692 43.7841 167.038 43.2812 167.271 42.6449C167.51 42.0028 167.629 41.2727 167.629 40.4545C167.629 39.642 167.513 38.9205 167.28 38.2898C167.047 37.6591 166.7 37.1648 166.24 36.8068C165.78 36.4489 165.206 36.2699 164.518 36.2699C163.859 36.2699 163.3 36.4432 162.839 36.7898C162.379 37.1364 162.03 37.6222 161.791 38.2472C161.558 38.8722 161.442 39.608 161.442 40.4545ZM172.936 47V33.9091H175.885V36.1335H176.038C176.311 35.3835 176.763 34.7983 177.394 34.3778C178.024 33.9517 178.777 33.7386 179.652 33.7386C180.538 33.7386 181.286 33.9545 181.894 34.3864C182.507 34.8125 182.939 35.3949 183.189 36.1335H183.325C183.615 35.4062 184.104 34.8267 184.791 34.3949C185.484 33.9574 186.305 33.7386 187.254 33.7386C188.459 33.7386 189.442 34.1193 190.203 34.8807C190.965 35.642 191.345 36.7528 191.345 38.2131V47H188.252V38.6903C188.252 37.8778 188.036 37.2841 187.604 36.9091C187.172 36.5284 186.644 36.3381 186.019 36.3381C185.274 36.3381 184.692 36.571 184.271 37.0369C183.857 37.4972 183.649 38.0966 183.649 38.8352V47H180.624V38.5625C180.624 37.8864 180.419 37.3466 180.01 36.9432C179.607 36.5398 179.078 36.3381 178.425 36.3381C177.982 36.3381 177.578 36.4517 177.215 36.679C176.851 36.9006 176.561 37.2159 176.345 37.625C176.129 38.0284 176.021 38.5 176.021 39.0398V47H172.936ZM199.791 47.2557C198.478 47.2557 197.345 46.983 196.39 46.4375C195.441 45.8864 194.711 45.108 194.2 44.1023C193.688 43.0909 193.433 41.9006 193.433 40.5312C193.433 39.1847 193.688 38.0028 194.2 36.9858C194.717 35.9631 195.438 35.1676 196.365 34.5994C197.291 34.0256 198.379 33.7386 199.629 33.7386C200.436 33.7386 201.197 33.8693 201.913 34.1307C202.634 34.3864 203.271 34.7841 203.822 35.3239C204.379 35.8636 204.816 36.5511 205.134 37.3864C205.453 38.2159 205.612 39.2045 205.612 40.3523V41.2983H194.882V39.2188H202.654C202.649 38.6278 202.521 38.1023 202.271 37.642C202.021 37.1761 201.671 36.8097 201.223 36.5426C200.779 36.2756 200.262 36.142 199.671 36.142C199.041 36.142 198.487 36.2955 198.009 36.6023C197.532 36.9034 197.16 37.3011 196.893 37.7955C196.632 38.2841 196.498 38.821 196.492 39.4062V41.2216C196.492 41.983 196.632 42.6364 196.91 43.1818C197.188 43.7216 197.578 44.1364 198.078 44.4261C198.578 44.7102 199.163 44.8523 199.833 44.8523C200.282 44.8523 200.688 44.7898 201.052 44.6648C201.416 44.5341 201.731 44.3438 201.998 44.0938C202.265 43.8438 202.467 43.5341 202.603 43.1648L205.484 43.4886C205.302 44.25 204.955 44.9148 204.444 45.483C203.938 46.0455 203.291 46.483 202.501 46.7955C201.711 47.1023 200.808 47.2557 199.791 47.2557ZM210.827 39.3295V47H207.742V33.9091H210.691V36.1335H210.844C211.145 35.4006 211.625 34.8182 212.284 34.3864C212.949 33.9545 213.77 33.7386 214.747 33.7386C215.651 33.7386 216.438 33.9318 217.108 34.3182C217.784 34.7045 218.307 35.2642 218.676 35.9972C219.051 36.7301 219.236 37.6193 219.23 38.6648V47H216.145V39.142C216.145 38.267 215.918 37.5824 215.463 37.0881C215.015 36.5937 214.392 36.3466 213.597 36.3466C213.057 36.3466 212.577 36.4659 212.157 36.7045C211.742 36.9375 211.415 37.2756 211.176 37.7188C210.943 38.1619 210.827 38.6989 210.827 39.3295ZM228.424 33.9091V36.2955H220.898V33.9091H228.424ZM222.756 30.7727H225.841V43.0625C225.841 43.4773 225.904 43.7955 226.029 44.017C226.16 44.233 226.33 44.3807 226.54 44.4602C226.75 44.5398 226.983 44.5795 227.239 44.5795C227.432 44.5795 227.608 44.5653 227.767 44.5369C227.932 44.5085 228.057 44.483 228.142 44.4602L228.662 46.8722C228.498 46.929 228.262 46.9915 227.955 47.0597C227.654 47.1278 227.285 47.1676 226.847 47.179C226.074 47.2017 225.378 47.0852 224.759 46.8295C224.14 46.5682 223.648 46.1648 223.285 45.6193C222.927 45.0739 222.75 44.392 222.756 43.5739V30.7727Z" fill="#1E1E1E"/>
<path d="M81.4091 78V66.3636H85.4773C86.2879 66.3636 86.9564 66.5038 87.483 66.7841C88.0095 67.0606 88.4015 67.4337 88.6591 67.9034C88.9167 68.3693 89.0455 68.8864 89.0455 69.4545C89.0455 69.9545 88.9564 70.3674 88.7784 70.6932C88.6042 71.0189 88.3731 71.2765 88.0852 71.4659C87.8011 71.6553 87.4924 71.7955 87.1591 71.8864V72C87.5152 72.0227 87.8731 72.1477 88.233 72.375C88.5928 72.6023 88.8939 72.928 89.1364 73.3523C89.3788 73.7765 89.5 74.2955 89.5 74.9091C89.5 75.4924 89.3674 76.017 89.1023 76.483C88.8371 76.9489 88.4186 77.3182 87.8466 77.5909C87.2746 77.8636 86.5303 78 85.6136 78H81.4091ZM82.8182 76.75H85.6136C86.5341 76.75 87.1875 76.572 87.5739 76.2159C87.964 75.8561 88.1591 75.4205 88.1591 74.9091C88.1591 74.5152 88.0587 74.1515 87.858 73.8182C87.6572 73.4811 87.3712 73.2121 87 73.0114C86.6288 72.8068 86.1894 72.7045 85.6818 72.7045H82.8182V76.75ZM82.8182 71.4773H85.4318C85.8561 71.4773 86.2386 71.3939 86.5795 71.2273C86.9242 71.0606 87.197 70.8258 87.3977 70.5227C87.6023 70.2197 87.7045 69.8636 87.7045 69.4545C87.7045 68.9432 87.5265 68.5095 87.1705 68.1534C86.8144 67.7936 86.25 67.6136 85.4773 67.6136H82.8182V71.4773ZM95.179 78.1818C94.3911 78.1818 93.6998 77.9943 93.1051 77.6193C92.5142 77.2443 92.0521 76.7197 91.7188 76.0455C91.3892 75.3712 91.2244 74.5833 91.2244 73.6818C91.2244 72.7727 91.3892 71.9792 91.7188 71.3011C92.0521 70.6231 92.5142 70.0966 93.1051 69.7216C93.6998 69.3466 94.3911 69.1591 95.179 69.1591C95.9669 69.1591 96.6563 69.3466 97.2472 69.7216C97.8419 70.0966 98.304 70.6231 98.6335 71.3011C98.9669 71.9792 99.1335 72.7727 99.1335 73.6818C99.1335 74.5833 98.9669 75.3712 98.6335 76.0455C98.304 76.7197 97.8419 77.2443 97.2472 77.6193C96.6563 77.9943 95.9669 78.1818 95.179 78.1818ZM95.179 76.9773C95.7775 76.9773 96.2699 76.8239 96.6562 76.517C97.0426 76.2102 97.3286 75.8068 97.5142 75.3068C97.6998 74.8068 97.7926 74.2652 97.7926 73.6818C97.7926 73.0985 97.6998 72.5549 97.5142 72.0511C97.3286 71.5473 97.0426 71.1402 96.6562 70.8295C96.2699 70.5189 95.7775 70.3636 95.179 70.3636C94.5805 70.3636 94.0881 70.5189 93.7017 70.8295C93.3153 71.1402 93.0294 71.5473 92.8438 72.0511C92.6581 72.5549 92.5653 73.0985 92.5653 73.6818C92.5653 74.2652 92.6581 74.8068 92.8438 75.3068C93.0294 75.8068 93.3153 76.2102 93.7017 76.517C94.0881 76.8239 94.5805 76.9773 95.179 76.9773ZM104.476 78.1818C103.749 78.1818 103.107 77.9981 102.55 77.6307C101.993 77.2595 101.557 76.7367 101.243 76.0625C100.929 75.3845 100.771 74.5833 100.771 73.6591C100.771 72.7424 100.929 71.947 101.243 71.2727C101.557 70.5985 101.995 70.0777 102.555 69.7102C103.116 69.3428 103.764 69.1591 104.499 69.1591C105.067 69.1591 105.516 69.2538 105.845 69.4432C106.179 69.6288 106.432 69.8409 106.607 70.0795C106.785 70.3144 106.923 70.5076 107.021 70.6591H107.135V66.3636H108.476V78H107.18V76.6591H107.021C106.923 76.8182 106.783 77.0189 106.601 77.2614C106.419 77.5 106.16 77.714 105.822 77.9034C105.485 78.089 105.036 78.1818 104.476 78.1818ZM104.658 76.9773C105.196 76.9773 105.65 76.8371 106.021 76.5568C106.393 76.2727 106.675 75.8807 106.868 75.3807C107.061 74.8769 107.158 74.2955 107.158 73.6364C107.158 72.9848 107.063 72.4148 106.874 71.9261C106.684 71.4337 106.404 71.0511 106.033 70.7784C105.661 70.5019 105.203 70.3636 104.658 70.3636C104.089 70.3636 103.616 70.5095 103.237 70.8011C102.862 71.089 102.58 71.4811 102.391 71.9773C102.205 72.4697 102.112 73.0227 102.112 73.6364C102.112 74.2576 102.207 74.822 102.396 75.3295C102.589 75.8333 102.874 76.2348 103.249 76.5341C103.627 76.8295 104.097 76.9773 104.658 76.9773ZM111.982 81.2727C111.754 81.2727 111.552 81.2538 111.374 81.2159C111.196 81.1818 111.072 81.1477 111.004 81.1136L111.345 79.9318C111.671 80.0152 111.959 80.0455 112.209 80.0227C112.459 80 112.68 79.8883 112.874 79.6875C113.071 79.4905 113.25 79.1705 113.413 78.7273L113.663 78.0455L110.436 69.2727H111.891L114.3 76.2273H114.391L116.8 69.2727H118.254L114.55 79.2727C114.383 79.7235 114.177 80.0966 113.93 80.392C113.684 80.6913 113.398 80.9129 113.072 81.0568C112.75 81.2008 112.387 81.2727 111.982 81.2727ZM128.32 69.2727V70.4091H123.797V69.2727H128.32ZM125.115 67.1818H126.456V75.5C126.456 75.8788 126.511 76.1629 126.621 76.3523C126.734 76.5379 126.878 76.6629 127.053 76.7273C127.231 76.7879 127.418 76.8182 127.615 76.8182C127.763 76.8182 127.884 76.8106 127.979 76.7955C128.073 76.7765 128.149 76.7614 128.206 76.75L128.479 77.9545C128.388 77.9886 128.261 78.0227 128.098 78.0568C127.935 78.0947 127.729 78.1136 127.479 78.1136C127.1 78.1136 126.729 78.0322 126.365 77.8693C126.005 77.7064 125.706 77.4583 125.467 77.125C125.232 76.7917 125.115 76.3712 125.115 75.8636V67.1818ZM133.902 78.1818C133.061 78.1818 132.336 77.9962 131.726 77.625C131.12 77.25 130.652 76.7273 130.322 76.0568C129.997 75.3826 129.834 74.5985 129.834 73.7045C129.834 72.8106 129.997 72.0227 130.322 71.3409C130.652 70.6553 131.11 70.1212 131.697 69.7386C132.288 69.3523 132.978 69.1591 133.766 69.1591C134.22 69.1591 134.669 69.2348 135.112 69.3864C135.555 69.5379 135.959 69.7841 136.322 70.125C136.686 70.4621 136.976 70.9091 137.192 71.4659C137.408 72.0227 137.516 72.7083 137.516 73.5227V74.0909H130.788V72.9318H136.152C136.152 72.4394 136.054 72 135.857 71.6136C135.663 71.2273 135.387 70.9223 135.027 70.6989C134.671 70.4754 134.25 70.3636 133.766 70.3636C133.232 70.3636 132.769 70.4962 132.379 70.7614C131.993 71.0227 131.696 71.3636 131.487 71.7841C131.279 72.2045 131.175 72.6553 131.175 73.1364V73.9091C131.175 74.5682 131.288 75.1269 131.516 75.5852C131.747 76.0398 132.067 76.3864 132.476 76.625C132.885 76.8598 133.36 76.9773 133.902 76.9773C134.254 76.9773 134.572 76.928 134.857 76.8295C135.144 76.7273 135.393 76.5758 135.601 76.375C135.809 76.1705 135.97 75.9167 136.084 75.6136L137.379 75.9773C137.243 76.4167 137.014 76.803 136.692 77.1364C136.37 77.4659 135.972 77.7235 135.499 77.9091C135.025 78.0909 134.493 78.1818 133.902 78.1818ZM140.321 69.2727L142.412 72.8409L144.503 69.2727H146.048L143.23 73.6364L146.048 78H144.503L142.412 74.6136L140.321 78H138.776L141.548 73.6364L138.776 69.2727H140.321ZM151.757 69.2727V70.4091H147.234V69.2727H151.757ZM148.553 67.1818H149.893V75.5C149.893 75.8788 149.948 76.1629 150.058 76.3523C150.172 76.5379 150.316 76.6629 150.49 76.7273C150.668 76.7879 150.856 76.8182 151.053 76.8182C151.2 76.8182 151.321 76.8106 151.416 76.7955C151.511 76.7765 151.587 76.7614 151.643 76.75L151.916 77.9545C151.825 77.9886 151.698 78.0227 151.536 78.0568C151.373 78.0947 151.166 78.1136 150.916 78.1136C150.537 78.1136 150.166 78.0322 149.803 77.8693C149.443 77.7064 149.143 77.4583 148.905 77.125C148.67 76.7917 148.553 76.3712 148.553 75.8636V67.1818ZM162.161 69.2727V70.4091H157.456V69.2727H162.161ZM158.865 78V68.0682C158.865 67.5682 158.982 67.1515 159.217 66.8182C159.452 66.4848 159.757 66.2348 160.132 66.0682C160.507 65.9015 160.903 65.8182 161.32 65.8182C161.649 65.8182 161.918 65.8447 162.126 65.8977C162.335 65.9508 162.49 66 162.592 66.0455L162.206 67.2045C162.138 67.1818 162.043 67.1534 161.922 67.1193C161.804 67.0852 161.649 67.0682 161.456 67.0682C161.013 67.0682 160.693 67.1799 160.496 67.4034C160.303 67.6269 160.206 67.9545 160.206 68.3864V78H158.865ZM167.226 78.1818C166.438 78.1818 165.747 77.9943 165.152 77.6193C164.561 77.2443 164.099 76.7197 163.766 76.0455C163.436 75.3712 163.271 74.5833 163.271 73.6818C163.271 72.7727 163.436 71.9792 163.766 71.3011C164.099 70.6231 164.561 70.0966 165.152 69.7216C165.747 69.3466 166.438 69.1591 167.226 69.1591C168.014 69.1591 168.703 69.3466 169.294 69.7216C169.889 70.0966 170.351 70.6231 170.68 71.3011C171.014 71.9792 171.18 72.7727 171.18 73.6818C171.18 74.5833 171.014 75.3712 170.68 76.0455C170.351 76.7197 169.889 77.2443 169.294 77.6193C168.703 77.9943 168.014 78.1818 167.226 78.1818ZM167.226 76.9773C167.824 76.9773 168.317 76.8239 168.703 76.517C169.089 76.2102 169.375 75.8068 169.561 75.3068C169.747 74.8068 169.839 74.2652 169.839 73.6818C169.839 73.0985 169.747 72.5549 169.561 72.0511C169.375 71.5473 169.089 71.1402 168.703 70.8295C168.317 70.5189 167.824 70.3636 167.226 70.3636C166.627 70.3636 166.135 70.5189 165.749 70.8295C165.362 71.1402 165.076 71.5473 164.891 72.0511C164.705 72.5549 164.612 73.0985 164.612 73.6818C164.612 74.2652 164.705 74.8068 164.891 75.3068C165.076 75.8068 165.362 76.2102 165.749 76.517C166.135 76.8239 166.627 76.9773 167.226 76.9773ZM173.227 78V69.2727H174.523V70.5909H174.614C174.773 70.1591 175.061 69.8087 175.477 69.5398C175.894 69.2708 176.364 69.1364 176.886 69.1364C176.985 69.1364 177.108 69.1383 177.256 69.142C177.403 69.1458 177.515 69.1515 177.591 69.1591V70.5227C177.545 70.5114 177.441 70.4943 177.278 70.4716C177.119 70.4451 176.951 70.4318 176.773 70.4318C176.348 70.4318 175.97 70.5208 175.636 70.6989C175.307 70.8731 175.045 71.1155 174.852 71.4261C174.663 71.733 174.568 72.0833 174.568 72.4773V78H173.227ZM185.658 78L182.999 69.2727H184.408L186.294 75.9545H186.385L188.249 69.2727H189.68L191.521 75.9318H191.612L193.499 69.2727H194.908L192.249 78H190.93L189.021 71.2955H188.885L186.976 78H185.658ZM198.021 72.75V78H196.68V66.3636H198.021V70.6364H198.135C198.339 70.1856 198.646 69.8277 199.055 69.5625C199.468 69.2936 200.018 69.1591 200.703 69.1591C201.298 69.1591 201.819 69.2784 202.266 69.517C202.713 69.7519 203.059 70.1136 203.305 70.6023C203.555 71.0871 203.68 71.7045 203.68 72.4545V78H202.339V72.5455C202.339 71.8523 202.16 71.3163 201.8 70.9375C201.444 70.5549 200.949 70.3636 200.317 70.3636C199.877 70.3636 199.483 70.4564 199.135 70.642C198.79 70.8277 198.518 71.0985 198.317 71.4545C198.12 71.8106 198.021 72.2424 198.021 72.75ZM208.702 78.2045C208.149 78.2045 207.647 78.1004 207.196 77.892C206.745 77.6799 206.387 77.375 206.122 76.9773C205.857 76.5758 205.724 76.0909 205.724 75.5227C205.724 75.0227 205.823 74.6174 206.02 74.3068C206.217 73.9924 206.48 73.7462 206.81 73.5682C207.139 73.3902 207.503 73.2576 207.901 73.1705C208.302 73.0795 208.705 73.0076 209.111 72.9545C209.641 72.8864 210.071 72.8352 210.401 72.8011C210.734 72.7633 210.976 72.7008 211.128 72.6136C211.283 72.5265 211.361 72.375 211.361 72.1591V72.1136C211.361 71.553 211.207 71.1174 210.901 70.8068C210.598 70.4962 210.137 70.3409 209.52 70.3409C208.88 70.3409 208.378 70.4811 208.014 70.7614C207.651 71.0417 207.395 71.3409 207.247 71.6591L205.974 71.2045C206.202 70.6742 206.505 70.2614 206.884 69.9659C207.266 69.6667 207.683 69.4583 208.134 69.3409C208.588 69.2197 209.035 69.1591 209.474 69.1591C209.755 69.1591 210.077 69.1932 210.44 69.2614C210.808 69.3258 211.162 69.4602 211.503 69.6648C211.848 69.8693 212.134 70.178 212.361 70.5909C212.588 71.0038 212.702 71.5568 212.702 72.25V78H211.361V76.8182H211.293C211.202 77.0076 211.05 77.2102 210.838 77.4261C210.626 77.642 210.344 77.8258 209.991 77.9773C209.639 78.1288 209.209 78.2045 208.702 78.2045ZM208.906 77C209.437 77 209.884 76.8958 210.247 76.6875C210.615 76.4792 210.891 76.2102 211.077 75.8807C211.266 75.5511 211.361 75.2045 211.361 74.8409V73.6136C211.304 73.6818 211.179 73.7443 210.986 73.8011C210.796 73.8542 210.577 73.9015 210.327 73.9432C210.08 73.9811 209.84 74.0152 209.605 74.0455C209.374 74.072 209.187 74.0947 209.043 74.1136C208.694 74.1591 208.368 74.233 208.065 74.3352C207.766 74.4337 207.524 74.5833 207.338 74.7841C207.156 74.9811 207.065 75.25 207.065 75.5909C207.065 76.0568 207.238 76.4091 207.582 76.6477C207.931 76.8826 208.372 77 208.906 77ZM218.945 69.2727V70.4091H214.422V69.2727H218.945ZM215.74 67.1818H217.081V75.5C217.081 75.8788 217.136 76.1629 217.246 76.3523C217.359 76.5379 217.503 76.6629 217.678 76.7273C217.856 76.7879 218.043 76.8182 218.24 76.8182C218.388 76.8182 218.509 76.8106 218.604 76.7955C218.698 76.7765 218.774 76.7614 218.831 76.75L219.104 77.9545C219.013 77.9886 218.886 78.0227 218.723 78.0568C218.56 78.0947 218.354 78.1136 218.104 78.1136C217.725 78.1136 217.354 78.0322 216.99 77.8693C216.63 77.7064 216.331 77.4583 216.092 77.125C215.857 76.7917 215.74 76.3712 215.74 75.8636V67.1818ZM224.527 78.1818C223.686 78.1818 222.961 77.9962 222.351 77.625C221.745 77.25 221.277 76.7273 220.947 76.0568C220.622 75.3826 220.459 74.5985 220.459 73.7045C220.459 72.8106 220.622 72.0227 220.947 71.3409C221.277 70.6553 221.735 70.1212 222.322 69.7386C222.913 69.3523 223.603 69.1591 224.391 69.1591C224.845 69.1591 225.294 69.2348 225.737 69.3864C226.18 69.5379 226.584 69.7841 226.947 70.125C227.311 70.4621 227.601 70.9091 227.817 71.4659C228.033 72.0227 228.141 72.7083 228.141 73.5227V74.0909H221.413V72.9318H226.777C226.777 72.4394 226.679 72 226.482 71.6136C226.288 71.2273 226.012 70.9223 225.652 70.6989C225.296 70.4754 224.875 70.3636 224.391 70.3636C223.857 70.3636 223.394 70.4962 223.004 70.7614C222.618 71.0227 222.321 71.3636 222.112 71.7841C221.904 72.2045 221.8 72.6553 221.8 73.1364V73.9091C221.8 74.5682 221.913 75.1269 222.141 75.5852C222.372 76.0398 222.692 76.3864 223.101 76.625C223.51 76.8598 223.985 76.9773 224.527 76.9773C224.879 76.9773 225.197 76.928 225.482 76.8295C225.769 76.7273 226.018 76.5758 226.226 76.375C226.434 76.1705 226.595 75.9167 226.709 75.6136L228.004 75.9773C227.868 76.4167 227.639 76.803 227.317 77.1364C226.995 77.4659 226.597 77.7235 226.124 77.9091C225.65 78.0909 225.118 78.1818 224.527 78.1818ZM237.051 69.2727L233.824 78H232.46L229.233 69.2727H230.688L233.097 76.2273H233.188L235.597 69.2727H237.051ZM242.168 78.1818C241.327 78.1818 240.601 77.9962 239.991 77.625C239.385 77.25 238.918 76.7273 238.588 76.0568C238.262 75.3826 238.099 74.5985 238.099 73.7045C238.099 72.8106 238.262 72.0227 238.588 71.3409C238.918 70.6553 239.376 70.1212 239.963 69.7386C240.554 69.3523 241.243 69.1591 242.031 69.1591C242.486 69.1591 242.935 69.2348 243.378 69.3864C243.821 69.5379 244.224 69.7841 244.588 70.125C244.952 70.4621 245.241 70.9091 245.457 71.4659C245.673 72.0227 245.781 72.7083 245.781 73.5227V74.0909H239.054V72.9318H244.418C244.418 72.4394 244.319 72 244.122 71.6136C243.929 71.2273 243.652 70.9223 243.293 70.6989C242.937 70.4754 242.516 70.3636 242.031 70.3636C241.497 70.3636 241.035 70.4962 240.645 70.7614C240.259 71.0227 239.961 71.3636 239.753 71.7841C239.545 72.2045 239.44 72.6553 239.44 73.1364V73.9091C239.44 74.5682 239.554 75.1269 239.781 75.5852C240.012 76.0398 240.332 76.3864 240.741 76.625C241.151 76.8598 241.626 76.9773 242.168 76.9773C242.52 76.9773 242.838 76.928 243.122 76.8295C243.41 76.7273 243.658 76.5758 243.866 76.375C244.075 76.1705 244.236 75.9167 244.349 75.6136L245.645 75.9773C245.509 76.4167 245.279 76.803 244.957 77.1364C244.635 77.4659 244.238 77.7235 243.764 77.9091C243.291 78.0909 242.759 78.1818 242.168 78.1818ZM247.821 78V69.2727H249.116V70.5909H249.207C249.366 70.1591 249.654 69.8087 250.071 69.5398C250.488 69.2708 250.957 69.1364 251.48 69.1364C251.579 69.1364 251.702 69.1383 251.849 69.142C251.997 69.1458 252.109 69.1515 252.185 69.1591V70.5227C252.139 70.5114 252.035 70.4943 251.872 70.4716C251.713 70.4451 251.545 70.4318 251.366 70.4318C250.942 70.4318 250.563 70.5208 250.23 70.6989C249.901 70.8731 249.639 71.1155 249.446 71.4261C249.257 71.733 249.162 72.0833 249.162 72.4773V78H247.821ZM259.138 81.2727C258.911 81.2727 258.708 81.2538 258.53 81.2159C258.352 81.1818 258.229 81.1477 258.161 81.1136L258.501 79.9318C258.827 80.0152 259.115 80.0455 259.365 80.0227C259.615 80 259.837 79.8883 260.03 79.6875C260.227 79.4905 260.407 79.1705 260.57 78.7273L260.82 78.0455L257.592 69.2727H259.047L261.456 76.2273H261.547L263.956 69.2727H265.411L261.706 79.2727C261.539 79.7235 261.333 80.0966 261.087 80.392C260.84 80.6913 260.554 80.9129 260.229 81.0568C259.907 81.2008 259.543 81.2727 259.138 81.2727ZM270.413 78.1818C269.625 78.1818 268.934 77.9943 268.339 77.6193C267.749 77.2443 267.286 76.7197 266.953 76.0455C266.624 75.3712 266.459 74.5833 266.459 73.6818C266.459 72.7727 266.624 71.9792 266.953 71.3011C267.286 70.6231 267.749 70.0966 268.339 69.7216C268.934 69.3466 269.625 69.1591 270.413 69.1591C271.201 69.1591 271.891 69.3466 272.482 69.7216C273.076 70.0966 273.538 70.6231 273.868 71.3011C274.201 71.9792 274.368 72.7727 274.368 73.6818C274.368 74.5833 274.201 75.3712 273.868 76.0455C273.538 76.7197 273.076 77.2443 272.482 77.6193C271.891 77.9943 271.201 78.1818 270.413 78.1818ZM270.413 76.9773C271.012 76.9773 271.504 76.8239 271.891 76.517C272.277 76.2102 272.563 75.8068 272.749 75.3068C272.934 74.8068 273.027 74.2652 273.027 73.6818C273.027 73.0985 272.934 72.5549 272.749 72.0511C272.563 71.5473 272.277 71.1402 271.891 70.8295C271.504 70.5189 271.012 70.3636 270.413 70.3636C269.815 70.3636 269.322 70.5189 268.936 70.8295C268.55 71.1402 268.264 71.5473 268.078 72.0511C267.893 72.5549 267.8 73.0985 267.8 73.6818C267.8 74.2652 267.893 74.8068 268.078 75.3068C268.264 75.8068 268.55 76.2102 268.936 76.517C269.322 76.8239 269.815 76.9773 270.413 76.9773ZM281.915 74.4318V69.2727H283.256V78H281.915V76.5227H281.824C281.619 76.9659 281.301 77.3428 280.869 77.6534C280.438 77.9602 279.892 78.1136 279.233 78.1136C278.688 78.1136 278.203 77.9943 277.778 77.7557C277.354 77.5133 277.021 77.1496 276.778 76.6648C276.536 76.1761 276.415 75.5606 276.415 74.8182V69.2727H277.756V74.7273C277.756 75.3636 277.934 75.8712 278.29 76.25C278.65 76.6288 279.108 76.8182 279.665 76.8182C279.998 76.8182 280.337 76.733 280.682 76.5625C281.03 76.392 281.322 76.1307 281.557 75.7784C281.795 75.4261 281.915 74.9773 281.915 74.4318ZM287.128 66.3636V67.3864C287.128 67.697 287.071 68.0284 286.957 68.3807C286.848 68.7292 286.685 69.0682 286.469 69.3977C286.257 69.7235 285.999 70.0076 285.696 70.25L284.969 69.6591C285.207 69.3182 285.414 68.964 285.588 68.5966C285.766 68.2254 285.855 67.8295 285.855 67.4091V66.3636H287.128ZM291.195 78.1818C290.467 78.1818 289.825 77.9981 289.268 77.6307C288.712 77.2595 288.276 76.7367 287.962 76.0625C287.647 75.3845 287.49 74.5833 287.49 73.6591C287.49 72.7424 287.647 71.947 287.962 71.2727C288.276 70.5985 288.714 70.0777 289.274 69.7102C289.835 69.3428 290.482 69.1591 291.217 69.1591C291.786 69.1591 292.234 69.2538 292.564 69.4432C292.897 69.6288 293.151 69.8409 293.325 70.0795C293.503 70.3144 293.642 70.5076 293.74 70.6591H293.854V66.3636H295.195V78H293.899V76.6591H293.74C293.642 76.8182 293.501 77.0189 293.32 77.2614C293.138 77.5 292.878 77.714 292.541 77.9034C292.204 78.089 291.755 78.1818 291.195 78.1818ZM291.376 76.9773C291.914 76.9773 292.369 76.8371 292.74 76.5568C293.111 76.2727 293.393 75.8807 293.587 75.3807C293.78 74.8769 293.876 74.2955 293.876 73.6364C293.876 72.9848 293.782 72.4148 293.592 71.9261C293.403 71.4337 293.123 71.0511 292.751 70.7784C292.38 70.5019 291.922 70.3636 291.376 70.3636C290.808 70.3636 290.335 70.5095 289.956 70.8011C289.581 71.089 289.299 71.4811 289.109 71.9773C288.924 72.4697 288.831 73.0227 288.831 73.6364C288.831 74.2576 288.926 74.822 289.115 75.3295C289.308 75.8333 289.592 76.2348 289.967 76.5341C290.346 76.8295 290.816 76.9773 291.376 76.9773ZM82.5682 88.3636V100H81.2273V88.3636H82.5682ZM85.0241 100V91.2727H86.3651V100H85.0241ZM85.706 89.8182C85.4446 89.8182 85.2192 89.7292 85.0298 89.5511C84.8442 89.3731 84.7514 89.1591 84.7514 88.9091C84.7514 88.6591 84.8442 88.4451 85.0298 88.267C85.2192 88.089 85.4446 88 85.706 88C85.9673 88 86.1908 88.089 86.3764 88.267C86.5658 88.4451 86.6605 88.6591 86.6605 88.9091C86.6605 89.1591 86.5658 89.3731 86.3764 89.5511C86.1908 89.7292 85.9673 89.8182 85.706 89.8182ZM90.071 96.8182L90.0483 95.1591H90.321L94.1392 91.2727H95.7983L91.7301 95.3864H91.6165L90.071 96.8182ZM88.821 100V88.3636H90.1619V100H88.821ZM94.3665 100L90.9574 95.6818L91.9119 94.75L96.071 100H94.3665ZM100.824 100.182C99.983 100.182 99.2576 99.9962 98.6477 99.625C98.0417 99.25 97.5739 98.7273 97.2443 98.0568C96.9186 97.3826 96.7557 96.5985 96.7557 95.7045C96.7557 94.8106 96.9186 94.0227 97.2443 93.3409C97.5739 92.6553 98.0322 92.1212 98.6193 91.7386C99.2102 91.3523 99.8996 91.1591 100.688 91.1591C101.142 91.1591 101.591 91.2348 102.034 91.3864C102.477 91.5379 102.881 91.7841 103.244 92.125C103.608 92.4621 103.898 92.9091 104.114 93.4659C104.33 94.0227 104.438 94.7083 104.438 95.5227V96.0909H97.7102V94.9318H103.074C103.074 94.4394 102.975 94 102.778 93.6136C102.585 93.2273 102.309 92.9223 101.949 92.6989C101.593 92.4754 101.172 92.3636 100.688 92.3636C100.153 92.3636 99.6913 92.4962 99.3011 92.7614C98.9148 93.0227 98.6174 93.3636 98.4091 93.7841C98.2008 94.2045 98.0966 94.6553 98.0966 95.1364V95.9091C98.0966 96.5682 98.2102 97.1269 98.4375 97.5852C98.6686 98.0398 98.9886 98.3864 99.3977 98.625C99.8068 98.8598 100.282 98.9773 100.824 98.9773C101.176 98.9773 101.494 98.928 101.778 98.8295C102.066 98.7273 102.314 98.5758 102.523 98.375C102.731 98.1705 102.892 97.9167 103.006 97.6136L104.301 97.9773C104.165 98.4167 103.936 98.803 103.614 99.1364C103.292 99.4659 102.894 99.7235 102.42 99.9091C101.947 100.091 101.415 100.182 100.824 100.182ZM114.773 91.2727V92.4091H110.25V91.2727H114.773ZM111.568 89.1818H112.909V97.5C112.909 97.8788 112.964 98.1629 113.074 98.3523C113.188 98.5379 113.331 98.6629 113.506 98.7273C113.684 98.7879 113.871 98.8182 114.068 98.8182C114.216 98.8182 114.337 98.8106 114.432 98.7955C114.527 98.7765 114.602 98.7614 114.659 98.75L114.932 99.9545C114.841 99.9886 114.714 100.023 114.551 100.057C114.388 100.095 114.182 100.114 113.932 100.114C113.553 100.114 113.182 100.032 112.818 99.8693C112.458 99.7064 112.159 99.4583 111.92 99.125C111.686 98.7917 111.568 98.3712 111.568 97.8636V89.1818ZM120.241 100.182C119.454 100.182 118.762 99.9943 118.168 99.6193C117.577 99.2443 117.115 98.7197 116.781 98.0455C116.452 97.3712 116.287 96.5833 116.287 95.6818C116.287 94.7727 116.452 93.9792 116.781 93.3011C117.115 92.6231 117.577 92.0966 118.168 91.7216C118.762 91.3466 119.454 91.1591 120.241 91.1591C121.029 91.1591 121.719 91.3466 122.31 91.7216C122.904 92.0966 123.366 92.6231 123.696 93.3011C124.029 93.9792 124.196 94.7727 124.196 95.6818C124.196 96.5833 124.029 97.3712 123.696 98.0455C123.366 98.7197 122.904 99.2443 122.31 99.6193C121.719 99.9943 121.029 100.182 120.241 100.182ZM120.241 98.9773C120.84 98.9773 121.332 98.8239 121.719 98.517C122.105 98.2102 122.391 97.8068 122.577 97.3068C122.762 96.8068 122.855 96.2652 122.855 95.6818C122.855 95.0985 122.762 94.5549 122.577 94.0511C122.391 93.5473 122.105 93.1402 121.719 92.8295C121.332 92.5189 120.84 92.3636 120.241 92.3636C119.643 92.3636 119.151 92.5189 118.764 92.8295C118.378 93.1402 118.092 93.5473 117.906 94.0511C117.721 94.5549 117.628 95.0985 117.628 95.6818C117.628 96.2652 117.721 96.8068 117.906 97.3068C118.092 97.8068 118.378 98.2102 118.764 98.517C119.151 98.8239 119.643 98.9773 120.241 98.9773ZM136.925 93.2273L135.72 93.5682C135.644 93.3674 135.533 93.1723 135.385 92.983C135.241 92.7898 135.044 92.6307 134.794 92.5057C134.544 92.3807 134.224 92.3182 133.834 92.3182C133.3 92.3182 132.855 92.4413 132.499 92.6875C132.146 92.9299 131.97 93.2386 131.97 93.6136C131.97 93.947 132.091 94.2102 132.334 94.4034C132.576 94.5966 132.955 94.7576 133.47 94.8864L134.766 95.2045C135.546 95.3939 136.127 95.6837 136.51 96.0739C136.893 96.4602 137.084 96.9583 137.084 97.5682C137.084 98.0682 136.94 98.5152 136.652 98.9091C136.368 99.303 135.97 99.6136 135.459 99.8409C134.947 100.068 134.353 100.182 133.675 100.182C132.785 100.182 132.048 99.9886 131.464 99.6023C130.881 99.2159 130.512 98.6515 130.357 97.9091L131.629 97.5909C131.75 98.0606 131.98 98.4129 132.317 98.6477C132.658 98.8826 133.103 99 133.652 99C134.277 99 134.773 98.8674 135.141 98.6023C135.512 98.3333 135.697 98.0114 135.697 97.6364C135.697 97.3333 135.591 97.0795 135.379 96.875C135.167 96.6667 134.841 96.5114 134.402 96.4091L132.947 96.0682C132.148 95.8788 131.561 95.5852 131.186 95.1875C130.815 94.786 130.629 94.2841 130.629 93.6818C130.629 93.1894 130.768 92.7538 131.044 92.375C131.324 91.9962 131.705 91.6989 132.186 91.483C132.671 91.267 133.22 91.1591 133.834 91.1591C134.697 91.1591 135.375 91.3485 135.868 91.7273C136.364 92.1061 136.716 92.6061 136.925 93.2273ZM141.67 100.205C141.117 100.205 140.616 100.1 140.165 99.892C139.714 99.6799 139.356 99.375 139.091 98.9773C138.826 98.5758 138.693 98.0909 138.693 97.5227C138.693 97.0227 138.792 96.6174 138.989 96.3068C139.186 95.9924 139.449 95.7462 139.778 95.5682C140.108 95.3902 140.472 95.2576 140.869 95.1705C141.271 95.0795 141.674 95.0076 142.08 94.9545C142.61 94.8864 143.04 94.8352 143.369 94.8011C143.703 94.7633 143.945 94.7008 144.097 94.6136C144.252 94.5265 144.33 94.375 144.33 94.1591V94.1136C144.33 93.553 144.176 93.1174 143.869 92.8068C143.566 92.4962 143.106 92.3409 142.489 92.3409C141.848 92.3409 141.347 92.4811 140.983 92.7614C140.619 93.0417 140.364 93.3409 140.216 93.6591L138.943 93.2045C139.17 92.6742 139.473 92.2614 139.852 91.9659C140.235 91.6667 140.652 91.4583 141.102 91.3409C141.557 91.2197 142.004 91.1591 142.443 91.1591C142.723 91.1591 143.045 91.1932 143.409 91.2614C143.777 91.3258 144.131 91.4602 144.472 91.6648C144.816 91.8693 145.102 92.178 145.33 92.5909C145.557 93.0038 145.67 93.5568 145.67 94.25V100H144.33V98.8182H144.261C144.17 99.0076 144.019 99.2102 143.807 99.4261C143.595 99.642 143.313 99.8258 142.96 99.9773C142.608 100.129 142.178 100.205 141.67 100.205ZM141.875 99C142.405 99 142.852 98.8958 143.216 98.6875C143.583 98.4792 143.86 98.2102 144.045 97.8807C144.235 97.5511 144.33 97.2045 144.33 96.8409V95.6136C144.273 95.6818 144.148 95.7443 143.955 95.8011C143.765 95.8542 143.545 95.9015 143.295 95.9432C143.049 95.9811 142.809 96.0152 142.574 96.0455C142.343 96.072 142.155 96.0947 142.011 96.1136C141.663 96.1591 141.337 96.233 141.034 96.3352C140.735 96.4337 140.492 96.5833 140.307 96.7841C140.125 96.9811 140.034 97.25 140.034 97.5909C140.034 98.0568 140.206 98.4091 140.551 98.6477C140.9 98.8826 141.341 99 141.875 99ZM148.669 103.273C148.442 103.273 148.239 103.254 148.061 103.216C147.883 103.182 147.76 103.148 147.692 103.114L148.033 101.932C148.358 102.015 148.646 102.045 148.896 102.023C149.146 102 149.368 101.888 149.561 101.688C149.758 101.491 149.938 101.17 150.101 100.727L150.351 100.045L147.124 91.2727H148.578L150.987 98.2273H151.078L153.487 91.2727H154.942L151.237 101.273C151.071 101.723 150.864 102.097 150.618 102.392C150.372 102.691 150.086 102.913 149.76 103.057C149.438 103.201 149.074 103.273 148.669 103.273ZM157.142 100.091C156.862 100.091 156.621 99.9905 156.42 99.7898C156.22 99.589 156.119 99.3485 156.119 99.0682C156.119 98.7879 156.22 98.5473 156.42 98.3466C156.621 98.1458 156.862 98.0455 157.142 98.0455C157.422 98.0455 157.663 98.1458 157.864 98.3466C158.064 98.5473 158.165 98.7879 158.165 99.0682C158.165 99.2538 158.117 99.4242 158.023 99.5795C157.932 99.7348 157.809 99.8598 157.653 99.9545C157.502 100.045 157.331 100.091 157.142 100.091ZM166.048 100.091C165.768 100.091 165.527 99.9905 165.327 99.7898C165.126 99.589 165.026 99.3485 165.026 99.0682C165.026 98.7879 165.126 98.5473 165.327 98.3466C165.527 98.1458 165.768 98.0455 166.048 98.0455C166.329 98.0455 166.569 98.1458 166.77 98.3466C166.971 98.5473 167.071 98.7879 167.071 99.0682C167.071 99.2538 167.024 99.4242 166.929 99.5795C166.838 99.7348 166.715 99.8598 166.56 99.9545C166.408 100.045 166.238 100.091 166.048 100.091Z" fill="#757575"/>
<path d="M80.5 129C80.5 124.858 83.8579 121.5 88 121.5H147C151.142 121.5 154.5 124.858 154.5 129V153C154.5 157.142 151.142 160.5 147 160.5H88C83.8579 160.5 80.5 157.142 80.5 153V129Z" fill="#E3E3E3"/>
<path d="M80.5 129C80.5 124.858 83.8579 121.5 88 121.5H147C151.142 121.5 154.5 124.858 154.5 129V153C154.5 157.142 151.142 160.5 147 160.5H88C83.8579 160.5 80.5 157.142 80.5 153V129Z" stroke="#767676" stroke-linecap="round"/>
<path d="M93.4091 147V135.364H97.4773C98.2879 135.364 98.9564 135.504 99.483 135.784C100.009 136.061 100.402 136.434 100.659 136.903C100.917 137.369 101.045 137.886 101.045 138.455C101.045 138.955 100.956 139.367 100.778 139.693C100.604 140.019 100.373 140.277 100.085 140.466C99.8011 140.655 99.4924 140.795 99.1591 140.886V141C99.5152 141.023 99.8731 141.148 100.233 141.375C100.593 141.602 100.894 141.928 101.136 142.352C101.379 142.777 101.5 143.295 101.5 143.909C101.5 144.492 101.367 145.017 101.102 145.483C100.837 145.949 100.419 146.318 99.8466 146.591C99.2746 146.864 98.5303 147 97.6136 147H93.4091ZM94.8182 145.75H97.6136C98.5341 145.75 99.1875 145.572 99.5739 145.216C99.964 144.856 100.159 144.42 100.159 143.909C100.159 143.515 100.059 143.152 99.858 142.818C99.6572 142.481 99.3712 142.212 99 142.011C98.6288 141.807 98.1894 141.705 97.6818 141.705H94.8182V145.75ZM94.8182 140.477H97.4318C97.8561 140.477 98.2386 140.394 98.5795 140.227C98.9242 140.061 99.197 139.826 99.3977 139.523C99.6023 139.22 99.7045 138.864 99.7045 138.455C99.7045 137.943 99.5265 137.509 99.1705 137.153C98.8144 136.794 98.25 136.614 97.4773 136.614H94.8182V140.477ZM109.134 143.432V138.273H110.474V147H109.134V145.523H109.043C108.838 145.966 108.52 146.343 108.088 146.653C107.656 146.96 107.111 147.114 106.452 147.114C105.906 147.114 105.421 146.994 104.997 146.756C104.573 146.513 104.24 146.15 103.997 145.665C103.755 145.176 103.634 144.561 103.634 143.818V138.273H104.974V143.727C104.974 144.364 105.152 144.871 105.509 145.25C105.868 145.629 106.327 145.818 106.884 145.818C107.217 145.818 107.556 145.733 107.901 145.562C108.249 145.392 108.541 145.131 108.776 144.778C109.014 144.426 109.134 143.977 109.134 143.432ZM116.726 138.273V139.409H112.203V138.273H116.726ZM113.521 136.182H114.862V144.5C114.862 144.879 114.917 145.163 115.027 145.352C115.141 145.538 115.285 145.663 115.459 145.727C115.637 145.788 115.824 145.818 116.021 145.818C116.169 145.818 116.29 145.811 116.385 145.795C116.48 145.777 116.555 145.761 116.612 145.75L116.885 146.955C116.794 146.989 116.667 147.023 116.504 147.057C116.341 147.095 116.135 147.114 115.885 147.114C115.506 147.114 115.135 147.032 114.771 146.869C114.411 146.706 114.112 146.458 113.874 146.125C113.639 145.792 113.521 145.371 113.521 144.864V136.182ZM122.538 138.273V139.409H118.016V138.273H122.538ZM119.334 136.182H120.675V144.5C120.675 144.879 120.73 145.163 120.839 145.352C120.953 145.538 121.097 145.663 121.271 145.727C121.449 145.788 121.637 145.818 121.834 145.818C121.982 145.818 122.103 145.811 122.197 145.795C122.292 145.777 122.368 145.761 122.425 145.75L122.697 146.955C122.607 146.989 122.48 147.023 122.317 147.057C122.154 147.095 121.947 147.114 121.697 147.114C121.319 147.114 120.947 147.032 120.584 146.869C120.224 146.706 119.925 146.458 119.686 146.125C119.451 145.792 119.334 145.371 119.334 144.864V136.182ZM128.007 147.182C127.219 147.182 126.528 146.994 125.933 146.619C125.342 146.244 124.88 145.72 124.547 145.045C124.217 144.371 124.053 143.583 124.053 142.682C124.053 141.773 124.217 140.979 124.547 140.301C124.88 139.623 125.342 139.097 125.933 138.722C126.528 138.347 127.219 138.159 128.007 138.159C128.795 138.159 129.484 138.347 130.075 138.722C130.67 139.097 131.132 139.623 131.462 140.301C131.795 140.979 131.962 141.773 131.962 142.682C131.962 143.583 131.795 144.371 131.462 145.045C131.132 145.72 130.67 146.244 130.075 146.619C129.484 146.994 128.795 147.182 128.007 147.182ZM128.007 145.977C128.606 145.977 129.098 145.824 129.484 145.517C129.871 145.21 130.157 144.807 130.342 144.307C130.528 143.807 130.621 143.265 130.621 142.682C130.621 142.098 130.528 141.555 130.342 141.051C130.157 140.547 129.871 140.14 129.484 139.83C129.098 139.519 128.606 139.364 128.007 139.364C127.409 139.364 126.916 139.519 126.53 139.83C126.143 140.14 125.857 140.547 125.672 141.051C125.486 141.555 125.393 142.098 125.393 142.682C125.393 143.265 125.486 143.807 125.672 144.307C125.857 144.807 126.143 145.21 126.53 145.517C126.916 145.824 127.409 145.977 128.007 145.977ZM135.349 141.75V147H134.009V138.273H135.304V139.636H135.418C135.622 139.193 135.933 138.837 136.349 138.568C136.766 138.295 137.304 138.159 137.963 138.159C138.554 138.159 139.071 138.28 139.514 138.523C139.957 138.761 140.302 139.125 140.548 139.614C140.795 140.098 140.918 140.712 140.918 141.455V147H139.577V141.545C139.577 140.86 139.399 140.326 139.043 139.943C138.687 139.557 138.198 139.364 137.577 139.364C137.149 139.364 136.766 139.456 136.429 139.642C136.096 139.828 135.832 140.098 135.639 140.455C135.446 140.811 135.349 141.242 135.349 141.75Z" fill="#1E1E1E"/>
</svg>
