<svg width="361" height="103" viewBox="0 0 361 103" fill="none" xmlns="http://www.w3.org/2000/svg">
<path d="M7.78027 7.74512L2.60254 22H0.486328L6.44824 6.35938H7.8125L7.78027 7.74512ZM12.1201 22L6.93164 7.74512L6.89941 6.35938H8.26367L14.2471 22H12.1201ZM11.8516 16.21V17.9072H3.06445V16.21H11.8516ZM18.0283 12.6113V26.4688H16.0303V10.377H17.8564L18.0283 12.6113ZM25.8594 16.0918V16.3174C25.8594 17.1624 25.7591 17.9466 25.5586 18.6699C25.3581 19.3861 25.0645 20.0091 24.6777 20.5391C24.2982 21.069 23.8291 21.4808 23.2705 21.7744C22.7119 22.068 22.071 22.2148 21.3477 22.2148C20.61 22.2148 19.9583 22.0931 19.3926 21.8496C18.8268 21.6061 18.347 21.2516 17.9531 20.7861C17.5592 20.3206 17.2441 19.762 17.0078 19.1104C16.7786 18.4587 16.6211 17.7246 16.5352 16.9082V15.7051C16.6211 14.8457 16.7822 14.0758 17.0186 13.3955C17.2549 12.7152 17.5664 12.1351 17.9531 11.6553C18.347 11.1683 18.8232 10.7995 19.3818 10.5488C19.9404 10.291 20.585 10.1621 21.3154 10.1621C22.0459 10.1621 22.694 10.3053 23.2598 10.5918C23.8255 10.8711 24.3018 11.2721 24.6885 11.7949C25.0752 12.3177 25.3652 12.9443 25.5586 13.6748C25.7591 14.3981 25.8594 15.2038 25.8594 16.0918ZM23.8613 16.3174V16.0918C23.8613 15.5117 23.8005 14.9674 23.6787 14.459C23.557 13.9434 23.3672 13.4922 23.1094 13.1055C22.8587 12.7116 22.5365 12.4036 22.1426 12.1816C21.7487 11.9525 21.2796 11.8379 20.7354 11.8379C20.234 11.8379 19.7972 11.9238 19.4248 12.0957C19.0596 12.2676 18.748 12.5003 18.4902 12.7939C18.2324 13.0804 18.0212 13.4098 17.8564 13.7822C17.6989 14.1475 17.5807 14.527 17.502 14.9209V17.7031C17.6452 18.2044 17.8457 18.6771 18.1035 19.1211C18.3613 19.5579 18.7051 19.9124 19.1348 20.1846C19.5645 20.4495 20.1051 20.582 20.7568 20.582C21.2939 20.582 21.7559 20.471 22.1426 20.249C22.5365 20.0199 22.8587 19.7083 23.1094 19.3145C23.3672 18.9206 23.557 18.4694 23.6787 17.9609C23.8005 17.4453 23.8613 16.8975 23.8613 16.3174ZM30.3818 12.6113V26.4688H28.3838V10.377H30.21L30.3818 12.6113ZM38.2129 16.0918V16.3174C38.2129 17.1624 38.1126 17.9466 37.9121 18.6699C37.7116 19.3861 37.418 20.0091 37.0312 20.5391C36.6517 21.069 36.1826 21.4808 35.624 21.7744C35.0654 22.068 34.4245 22.2148 33.7012 22.2148C32.9635 22.2148 32.3118 22.0931 31.7461 21.8496C31.1803 21.6061 30.7005 21.2516 30.3066 20.7861C29.9128 20.3206 29.5977 19.762 29.3613 19.1104C29.1322 18.4587 28.9746 17.7246 28.8887 16.9082V15.7051C28.9746 14.8457 29.1357 14.0758 29.3721 13.3955C29.6084 12.7152 29.9199 12.1351 30.3066 11.6553C30.7005 11.1683 31.1768 10.7995 31.7354 10.5488C32.2939 10.291 32.9385 10.1621 33.6689 10.1621C34.3994 10.1621 35.0475 10.3053 35.6133 10.5918C36.179 10.8711 36.6553 11.2721 37.042 11.7949C37.4287 12.3177 37.7188 12.9443 37.9121 13.6748C38.1126 14.3981 38.2129 15.2038 38.2129 16.0918ZM36.2148 16.3174V16.0918C36.2148 15.5117 36.154 14.9674 36.0322 14.459C35.9105 13.9434 35.7207 13.4922 35.4629 13.1055C35.2122 12.7116 34.89 12.4036 34.4961 12.1816C34.1022 11.9525 33.6331 11.8379 33.0889 11.8379C32.5876 11.8379 32.1507 11.9238 31.7783 12.0957C31.4131 12.2676 31.1016 12.5003 30.8438 12.7939C30.5859 13.0804 30.3747 13.4098 30.21 13.7822C30.0524 14.1475 29.9342 14.527 29.8555 14.9209V17.7031C29.9987 18.2044 30.1992 18.6771 30.457 19.1211C30.7148 19.5579 31.0586 19.9124 31.4883 20.1846C31.918 20.4495 32.4587 20.582 33.1104 20.582C33.6475 20.582 34.1094 20.471 34.4961 20.249C34.89 20.0199 35.2122 19.7083 35.4629 19.3145C35.7207 18.9206 35.9105 18.4694 36.0322 17.9609C36.154 17.4453 36.2148 16.8975 36.2148 16.3174ZM58.5371 6.35938V22H56.4531L48.5791 9.93652V22H46.5059V6.35938H48.5791L56.4854 18.4551V6.35938H58.5371ZM68.7637 20.0127V14.0293C68.7637 13.571 68.6706 13.1735 68.4844 12.8369C68.3053 12.4932 68.0332 12.2282 67.668 12.042C67.3027 11.8558 66.8516 11.7627 66.3145 11.7627C65.8132 11.7627 65.3727 11.8486 64.9932 12.0205C64.6208 12.1924 64.3271 12.418 64.1123 12.6973C63.9046 12.9766 63.8008 13.2773 63.8008 13.5996H61.8135C61.8135 13.1842 61.9209 12.7725 62.1357 12.3643C62.3506 11.9561 62.6585 11.5872 63.0596 11.2578C63.4678 10.9212 63.9548 10.6562 64.5205 10.4629C65.0934 10.2624 65.7308 10.1621 66.4326 10.1621C67.2777 10.1621 68.0225 10.3053 68.667 10.5918C69.3187 10.8783 69.8271 11.3115 70.1924 11.8916C70.5648 12.4645 70.751 13.1842 70.751 14.0508V19.4648C70.751 19.8516 70.7832 20.2633 70.8477 20.7002C70.9193 21.137 71.0231 21.513 71.1592 21.8281V22H69.0859C68.9857 21.7708 68.9069 21.4665 68.8496 21.0869C68.7923 20.7002 68.7637 20.3421 68.7637 20.0127ZM69.1074 14.9531L69.1289 16.3496H67.1201C66.5544 16.3496 66.0495 16.3962 65.6055 16.4893C65.1615 16.5752 64.7891 16.7077 64.4883 16.8867C64.1875 17.0658 63.9583 17.2913 63.8008 17.5635C63.6432 17.8285 63.5645 18.14 63.5645 18.498C63.5645 18.8633 63.6468 19.1963 63.8115 19.4971C63.9762 19.7979 64.2233 20.0378 64.5527 20.2168C64.8893 20.3887 65.3011 20.4746 65.7881 20.4746C66.3968 20.4746 66.9339 20.3457 67.3994 20.0879C67.8649 19.8301 68.2337 19.515 68.5059 19.1426C68.7852 18.7702 68.9355 18.4085 68.957 18.0576L69.8057 19.0137C69.7555 19.3145 69.6195 19.6475 69.3975 20.0127C69.1755 20.3779 68.8783 20.7288 68.5059 21.0654C68.1406 21.3949 67.7038 21.6706 67.1953 21.8926C66.694 22.1074 66.1283 22.2148 65.498 22.2148C64.7103 22.2148 64.0192 22.0609 63.4248 21.7529C62.8376 21.445 62.3792 21.0332 62.0498 20.5176C61.7275 19.9948 61.5664 19.4111 61.5664 18.7666C61.5664 18.1436 61.6882 17.5957 61.9316 17.123C62.1751 16.6432 62.526 16.2458 62.9844 15.9307C63.4427 15.6084 63.9941 15.3649 64.6387 15.2002C65.2832 15.0355 66.0029 14.9531 66.7979 14.9531H69.1074ZM75.8535 12.6865V22H73.8555V10.377H75.7461L75.8535 12.6865ZM75.4453 15.748L74.5215 15.7158C74.5286 14.9209 74.6325 14.1868 74.833 13.5137C75.0335 12.8333 75.3307 12.2425 75.7246 11.7412C76.1185 11.2399 76.609 10.8532 77.1963 10.5811C77.7835 10.3018 78.4639 10.1621 79.2373 10.1621C79.7816 10.1621 80.2829 10.2409 80.7412 10.3984C81.1995 10.5488 81.597 10.7887 81.9336 11.1182C82.2702 11.4476 82.5316 11.8701 82.7178 12.3857C82.904 12.9014 82.9971 13.5244 82.9971 14.2549V22H81.0098V14.3516C81.0098 13.7428 80.9059 13.2559 80.6982 12.8906C80.4977 12.5254 80.2113 12.2604 79.8389 12.0957C79.4665 11.9238 79.0296 11.8379 78.5283 11.8379C77.9411 11.8379 77.4505 11.9417 77.0566 12.1494C76.6628 12.3571 76.3477 12.6436 76.1113 13.0088C75.875 13.374 75.7031 13.793 75.5957 14.2656C75.4954 14.7311 75.4453 15.2253 75.4453 15.748ZM82.9756 14.6523L81.6436 15.0605C81.6507 14.4232 81.7546 13.8109 81.9551 13.2236C82.1628 12.6364 82.46 12.1136 82.8467 11.6553C83.2406 11.1969 83.724 10.8353 84.2969 10.5703C84.8698 10.2982 85.5251 10.1621 86.2627 10.1621C86.8857 10.1621 87.4372 10.2445 87.917 10.4092C88.404 10.5739 88.8122 10.8281 89.1416 11.1719C89.4782 11.5085 89.7324 11.9417 89.9043 12.4717C90.0762 13.0016 90.1621 13.6318 90.1621 14.3623V22H88.1641V14.3408C88.1641 13.6891 88.0602 13.1842 87.8525 12.8262C87.652 12.4609 87.3656 12.2067 86.9932 12.0635C86.6279 11.9131 86.1911 11.8379 85.6826 11.8379C85.2458 11.8379 84.859 11.9131 84.5225 12.0635C84.1859 12.2139 83.903 12.4215 83.6738 12.6865C83.4447 12.9443 83.2692 13.2415 83.1475 13.5781C83.0329 13.9147 82.9756 14.2728 82.9756 14.6523ZM97.9932 22.2148C97.1839 22.2148 96.4499 22.0788 95.791 21.8066C95.1393 21.5273 94.5771 21.137 94.1045 20.6357C93.639 20.1344 93.2809 19.54 93.0303 18.8525C92.7796 18.165 92.6543 17.4131 92.6543 16.5967V16.1455C92.6543 15.2002 92.7939 14.3587 93.0732 13.6211C93.3525 12.8763 93.7321 12.2461 94.2119 11.7305C94.6917 11.2148 95.236 10.8245 95.8447 10.5596C96.4535 10.2946 97.0837 10.1621 97.7354 10.1621C98.5661 10.1621 99.2822 10.3053 99.8838 10.5918C100.493 10.8783 100.99 11.2793 101.377 11.7949C101.764 12.3034 102.05 12.9049 102.236 13.5996C102.423 14.2871 102.516 15.0391 102.516 15.8555V16.7471H93.8359V15.125H100.528V14.9746C100.5 14.459 100.392 13.9577 100.206 13.4707C100.027 12.9837 99.7406 12.5827 99.3467 12.2676C98.9528 11.9525 98.4157 11.7949 97.7354 11.7949C97.2842 11.7949 96.8688 11.8916 96.4893 12.085C96.1097 12.2712 95.7839 12.5505 95.5117 12.9229C95.2396 13.2952 95.0283 13.75 94.8779 14.2871C94.7275 14.8242 94.6523 15.4437 94.6523 16.1455V16.5967C94.6523 17.1481 94.7275 17.6673 94.8779 18.1543C95.0355 18.6341 95.2611 19.0566 95.5547 19.4219C95.8555 19.7871 96.2171 20.0736 96.6396 20.2812C97.0693 20.4889 97.5563 20.5928 98.1006 20.5928C98.8024 20.5928 99.3968 20.4495 99.8838 20.1631C100.371 19.8766 100.797 19.4935 101.162 19.0137L102.365 19.9697C102.115 20.3493 101.796 20.7109 101.409 21.0547C101.022 21.3984 100.546 21.6777 99.9805 21.8926C99.4219 22.1074 98.7594 22.2148 97.9932 22.2148ZM110.207 20.9473C110.207 20.6107 110.311 20.3278 110.519 20.0986C110.733 19.8623 111.041 19.7441 111.442 19.7441C111.843 19.7441 112.148 19.8623 112.355 20.0986C112.57 20.3278 112.678 20.6107 112.678 20.9473C112.678 21.2767 112.57 21.556 112.355 21.7852C112.148 22.0143 111.843 22.1289 111.442 22.1289C111.041 22.1289 110.733 22.0143 110.519 21.7852C110.311 21.556 110.207 21.2767 110.207 20.9473ZM110.218 11.4619C110.218 11.1253 110.322 10.8424 110.529 10.6133C110.744 10.377 111.052 10.2588 111.453 10.2588C111.854 10.2588 112.159 10.377 112.366 10.6133C112.581 10.8424 112.688 11.1253 112.688 11.4619C112.688 11.7913 112.581 12.0706 112.366 12.2998C112.159 12.529 111.854 12.6436 111.453 12.6436C111.052 12.6436 110.744 12.529 110.529 12.2998C110.322 12.0706 110.218 11.7913 110.218 11.4619ZM127.169 7.74512L121.991 22H119.875L125.837 6.35938H127.201L127.169 7.74512ZM131.509 22L126.32 7.74512L126.288 6.35938H127.652L133.636 22H131.509ZM131.24 16.21V17.9072H122.453V16.21H131.24ZM142.197 18.917C142.197 18.6305 142.133 18.3656 142.004 18.1221C141.882 17.8714 141.628 17.6458 141.241 17.4453C140.862 17.2376 140.289 17.0586 139.522 16.9082C138.878 16.7721 138.294 16.611 137.771 16.4248C137.256 16.2386 136.815 16.013 136.45 15.748C136.092 15.4831 135.816 15.1715 135.623 14.8135C135.43 14.4554 135.333 14.0365 135.333 13.5566C135.333 13.0983 135.433 12.665 135.634 12.2568C135.841 11.8486 136.132 11.487 136.504 11.1719C136.883 10.8568 137.338 10.6097 137.868 10.4307C138.398 10.2516 138.989 10.1621 139.641 10.1621C140.572 10.1621 141.367 10.3268 142.025 10.6562C142.684 10.9857 143.189 11.4261 143.54 11.9775C143.891 12.5218 144.066 13.127 144.066 13.793H142.079C142.079 13.4707 141.982 13.1592 141.789 12.8584C141.603 12.5505 141.327 12.2962 140.962 12.0957C140.604 11.8952 140.163 11.7949 139.641 11.7949C139.089 11.7949 138.642 11.8809 138.298 12.0527C137.961 12.2174 137.714 12.4287 137.557 12.6865C137.406 12.9443 137.331 13.2165 137.331 13.5029C137.331 13.7178 137.367 13.9111 137.438 14.083C137.517 14.2477 137.653 14.4017 137.847 14.5449C138.04 14.681 138.312 14.8099 138.663 14.9316C139.014 15.0534 139.462 15.1751 140.006 15.2969C140.958 15.5117 141.743 15.7695 142.358 16.0703C142.974 16.3711 143.433 16.7399 143.733 17.1768C144.034 17.6136 144.185 18.1436 144.185 18.7666C144.185 19.2751 144.077 19.7406 143.862 20.1631C143.655 20.5856 143.35 20.9508 142.949 21.2588C142.555 21.5596 142.083 21.7959 141.531 21.9678C140.987 22.1325 140.375 22.2148 139.694 22.2148C138.67 22.2148 137.804 22.0322 137.095 21.667C136.386 21.3018 135.849 20.8291 135.483 20.249C135.118 19.6689 134.936 19.0566 134.936 18.4121H136.934C136.962 18.9564 137.12 19.3896 137.406 19.7119C137.693 20.027 138.044 20.2526 138.459 20.3887C138.874 20.5176 139.286 20.582 139.694 20.582C140.239 20.582 140.693 20.5104 141.059 20.3672C141.431 20.224 141.714 20.027 141.907 19.7764C142.101 19.5257 142.197 19.2393 142.197 18.917ZM153.562 18.917C153.562 18.6305 153.498 18.3656 153.369 18.1221C153.247 17.8714 152.993 17.6458 152.606 17.4453C152.227 17.2376 151.654 17.0586 150.888 16.9082C150.243 16.7721 149.66 16.611 149.137 16.4248C148.621 16.2386 148.181 16.013 147.815 15.748C147.457 15.4831 147.182 15.1715 146.988 14.8135C146.795 14.4554 146.698 14.0365 146.698 13.5566C146.698 13.0983 146.799 12.665 146.999 12.2568C147.207 11.8486 147.497 11.487 147.869 11.1719C148.249 10.8568 148.703 10.6097 149.233 10.4307C149.763 10.2516 150.354 10.1621 151.006 10.1621C151.937 10.1621 152.732 10.3268 153.391 10.6562C154.049 10.9857 154.554 11.4261 154.905 11.9775C155.256 12.5218 155.432 13.127 155.432 13.793H153.444C153.444 13.4707 153.348 13.1592 153.154 12.8584C152.968 12.5505 152.692 12.2962 152.327 12.0957C151.969 11.8952 151.529 11.7949 151.006 11.7949C150.454 11.7949 150.007 11.8809 149.663 12.0527C149.326 12.2174 149.079 12.4287 148.922 12.6865C148.771 12.9443 148.696 13.2165 148.696 13.5029C148.696 13.7178 148.732 13.9111 148.804 14.083C148.882 14.2477 149.019 14.4017 149.212 14.5449C149.405 14.681 149.677 14.8099 150.028 14.9316C150.379 15.0534 150.827 15.1751 151.371 15.2969C152.324 15.5117 153.108 15.7695 153.724 16.0703C154.34 16.3711 154.798 16.7399 155.099 17.1768C155.399 17.6136 155.55 18.1436 155.55 18.7666C155.55 19.2751 155.442 19.7406 155.228 20.1631C155.02 20.5856 154.715 20.9508 154.314 21.2588C153.921 21.5596 153.448 21.7959 152.896 21.9678C152.352 22.1325 151.74 22.2148 151.06 22.2148C150.035 22.2148 149.169 22.0322 148.46 21.667C147.751 21.3018 147.214 20.8291 146.849 20.249C146.483 19.6689 146.301 19.0566 146.301 18.4121H148.299C148.327 18.9564 148.485 19.3896 148.771 19.7119C149.058 20.027 149.409 20.2526 149.824 20.3887C150.24 20.5176 150.651 20.582 151.06 20.582C151.604 20.582 152.059 20.5104 152.424 20.3672C152.796 20.224 153.079 20.027 153.272 19.7764C153.466 19.5257 153.562 19.2393 153.562 18.917ZM160.319 10.377V22H158.321V10.377H160.319ZM158.171 7.29395C158.171 6.97168 158.268 6.69954 158.461 6.47754C158.661 6.25553 158.955 6.14453 159.342 6.14453C159.721 6.14453 160.011 6.25553 160.212 6.47754C160.42 6.69954 160.523 6.97168 160.523 7.29395C160.523 7.60189 160.42 7.86686 160.212 8.08887C160.011 8.30371 159.721 8.41113 159.342 8.41113C158.955 8.41113 158.661 8.30371 158.461 8.08887C158.268 7.86686 158.171 7.60189 158.171 7.29395ZM171.04 10.377H172.845V21.7529C172.845 22.777 172.637 23.6507 172.222 24.374C171.806 25.0973 171.226 25.6452 170.481 26.0176C169.744 26.3971 168.892 26.5869 167.925 26.5869C167.524 26.5869 167.051 26.5225 166.507 26.3936C165.97 26.2718 165.44 26.0605 164.917 25.7598C164.401 25.4661 163.968 25.0687 163.617 24.5674L164.659 23.3857C165.146 23.973 165.655 24.3812 166.185 24.6104C166.722 24.8395 167.252 24.9541 167.774 24.9541C168.405 24.9541 168.949 24.8359 169.407 24.5996C169.866 24.3633 170.22 24.0124 170.471 23.5469C170.729 23.0885 170.857 22.5228 170.857 21.8496V12.9336L171.04 10.377ZM163.037 16.3174V16.0918C163.037 15.2038 163.141 14.3981 163.349 13.6748C163.563 12.9443 163.868 12.3177 164.262 11.7949C164.663 11.2721 165.146 10.8711 165.712 10.5918C166.278 10.3053 166.915 10.1621 167.624 10.1621C168.354 10.1621 168.992 10.291 169.536 10.5488C170.088 10.7995 170.553 11.1683 170.933 11.6553C171.319 12.1351 171.624 12.7152 171.846 13.3955C172.068 14.0758 172.222 14.8457 172.308 15.7051V16.6934C172.229 17.5456 172.075 18.3118 171.846 18.9922C171.624 19.6725 171.319 20.2526 170.933 20.7324C170.553 21.2122 170.088 21.5811 169.536 21.8389C168.985 22.0895 168.34 22.2148 167.603 22.2148C166.908 22.2148 166.278 22.068 165.712 21.7744C165.153 21.4808 164.674 21.069 164.272 20.5391C163.871 20.0091 163.563 19.3861 163.349 18.6699C163.141 17.9466 163.037 17.1624 163.037 16.3174ZM165.024 16.0918V16.3174C165.024 16.8975 165.082 17.4417 165.196 17.9502C165.318 18.4587 165.501 18.9062 165.744 19.293C165.995 19.6797 166.313 19.984 166.7 20.2061C167.087 20.4209 167.549 20.5283 168.086 20.5283C168.745 20.5283 169.289 20.3887 169.719 20.1094C170.148 19.8301 170.489 19.4613 170.739 19.0029C170.997 18.5446 171.198 18.0469 171.341 17.5098V14.9209C171.262 14.527 171.14 14.1475 170.976 13.7822C170.818 13.4098 170.61 13.0804 170.353 12.7939C170.102 12.5003 169.79 12.2676 169.418 12.0957C169.046 11.9238 168.609 11.8379 168.107 11.8379C167.563 11.8379 167.094 11.9525 166.7 12.1816C166.313 12.4036 165.995 12.7116 165.744 13.1055C165.501 13.4922 165.318 13.9434 165.196 14.459C165.082 14.9674 165.024 15.5117 165.024 16.0918ZM177.851 12.8584V22H175.863V10.377H177.743L177.851 12.8584ZM177.378 15.748L176.551 15.7158C176.558 14.9209 176.676 14.1868 176.905 13.5137C177.134 12.8333 177.457 12.2425 177.872 11.7412C178.287 11.2399 178.782 10.8532 179.354 10.5811C179.935 10.3018 180.576 10.1621 181.277 10.1621C181.85 10.1621 182.366 10.2409 182.824 10.3984C183.283 10.5488 183.673 10.7923 183.995 11.1289C184.325 11.4655 184.575 11.9023 184.747 12.4395C184.919 12.9694 185.005 13.6175 185.005 14.3838V22H183.007V14.3623C183.007 13.7536 182.917 13.2666 182.738 12.9014C182.559 12.529 182.298 12.2604 181.954 12.0957C181.61 11.9238 181.188 11.8379 180.687 11.8379C180.192 11.8379 179.741 11.9417 179.333 12.1494C178.932 12.3571 178.585 12.6436 178.291 13.0088C178.005 13.374 177.779 13.793 177.614 14.2656C177.457 14.7311 177.378 15.2253 177.378 15.748ZM190 12.6865V22H188.002V10.377H189.893L190 12.6865ZM189.592 15.748L188.668 15.7158C188.675 14.9209 188.779 14.1868 188.979 13.5137C189.18 12.8333 189.477 12.2425 189.871 11.7412C190.265 11.2399 190.756 10.8532 191.343 10.5811C191.93 10.3018 192.61 10.1621 193.384 10.1621C193.928 10.1621 194.429 10.2409 194.888 10.3984C195.346 10.5488 195.743 10.7887 196.08 11.1182C196.417 11.4476 196.678 11.8701 196.864 12.3857C197.05 12.9014 197.144 13.5244 197.144 14.2549V22H195.156V14.3516C195.156 13.7428 195.052 13.2559 194.845 12.8906C194.644 12.5254 194.358 12.2604 193.985 12.0957C193.613 11.9238 193.176 11.8379 192.675 11.8379C192.088 11.8379 191.597 11.9417 191.203 12.1494C190.809 12.3571 190.494 12.6436 190.258 13.0088C190.021 13.374 189.85 13.793 189.742 14.2656C189.642 14.7311 189.592 15.2253 189.592 15.748ZM197.122 14.6523L195.79 15.0605C195.797 14.4232 195.901 13.8109 196.102 13.2236C196.309 12.6364 196.606 12.1136 196.993 11.6553C197.387 11.1969 197.87 10.8353 198.443 10.5703C199.016 10.2982 199.672 10.1621 200.409 10.1621C201.032 10.1621 201.584 10.2445 202.063 10.4092C202.55 10.5739 202.959 10.8281 203.288 11.1719C203.625 11.5085 203.879 11.9417 204.051 12.4717C204.223 13.0016 204.309 13.6318 204.309 14.3623V22H202.311V14.3408C202.311 13.6891 202.207 13.1842 201.999 12.8262C201.799 12.4609 201.512 12.2067 201.14 12.0635C200.774 11.9131 200.338 11.8379 199.829 11.8379C199.392 11.8379 199.006 11.9131 198.669 12.0635C198.332 12.2139 198.049 12.4215 197.82 12.6865C197.591 12.9443 197.416 13.2415 197.294 13.5781C197.179 13.9147 197.122 14.2728 197.122 14.6523ZM212.14 22.2148C211.33 22.2148 210.596 22.0788 209.938 21.8066C209.286 21.5273 208.724 21.137 208.251 20.6357C207.785 20.1344 207.427 19.54 207.177 18.8525C206.926 18.165 206.801 17.4131 206.801 16.5967V16.1455C206.801 15.2002 206.94 14.3587 207.22 13.6211C207.499 12.8763 207.879 12.2461 208.358 11.7305C208.838 11.2148 209.382 10.8245 209.991 10.5596C210.6 10.2946 211.23 10.1621 211.882 10.1621C212.713 10.1621 213.429 10.3053 214.03 10.5918C214.639 10.8783 215.137 11.2793 215.523 11.7949C215.91 12.3034 216.197 12.9049 216.383 13.5996C216.569 14.2871 216.662 15.0391 216.662 15.8555V16.7471H207.982V15.125H214.675V14.9746C214.646 14.459 214.539 13.9577 214.353 13.4707C214.174 12.9837 213.887 12.5827 213.493 12.2676C213.099 11.9525 212.562 11.7949 211.882 11.7949C211.431 11.7949 211.015 11.8916 210.636 12.085C210.256 12.2712 209.93 12.5505 209.658 12.9229C209.386 13.2952 209.175 13.75 209.024 14.2871C208.874 14.8242 208.799 15.4437 208.799 16.1455V16.5967C208.799 17.1481 208.874 17.6673 209.024 18.1543C209.182 18.6341 209.408 19.0566 209.701 19.4219C210.002 19.7871 210.364 20.0736 210.786 20.2812C211.216 20.4889 211.703 20.5928 212.247 20.5928C212.949 20.5928 213.543 20.4495 214.03 20.1631C214.517 19.8766 214.943 19.4935 215.309 19.0137L216.512 19.9697C216.261 20.3493 215.942 20.7109 215.556 21.0547C215.169 21.3984 214.693 21.6777 214.127 21.8926C213.568 22.1074 212.906 22.2148 212.14 22.2148ZM220.97 12.8584V22H218.982V10.377H220.862L220.97 12.8584ZM220.497 15.748L219.67 15.7158C219.677 14.9209 219.795 14.1868 220.024 13.5137C220.254 12.8333 220.576 12.2425 220.991 11.7412C221.407 11.2399 221.901 10.8532 222.474 10.5811C223.054 10.3018 223.695 10.1621 224.396 10.1621C224.969 10.1621 225.485 10.2409 225.943 10.3984C226.402 10.5488 226.792 10.7923 227.114 11.1289C227.444 11.4655 227.694 11.9023 227.866 12.4395C228.038 12.9694 228.124 13.6175 228.124 14.3838V22H226.126V14.3623C226.126 13.7536 226.036 13.2666 225.857 12.9014C225.678 12.529 225.417 12.2604 225.073 12.0957C224.729 11.9238 224.307 11.8379 223.806 11.8379C223.312 11.8379 222.86 11.9417 222.452 12.1494C222.051 12.3571 221.704 12.6436 221.41 13.0088C221.124 13.374 220.898 13.793 220.733 14.2656C220.576 14.7311 220.497 15.2253 220.497 15.748ZM236.009 10.377V11.9023H229.725V10.377H236.009ZM231.852 7.55176H233.839V19.1211C233.839 19.515 233.9 19.8122 234.021 20.0127C234.143 20.2132 234.301 20.3457 234.494 20.4102C234.688 20.4746 234.895 20.5068 235.117 20.5068C235.282 20.5068 235.454 20.4925 235.633 20.4639C235.819 20.4281 235.959 20.3994 236.052 20.3779L236.062 22C235.905 22.0501 235.697 22.0967 235.439 22.1396C235.189 22.1898 234.884 22.2148 234.526 22.2148C234.039 22.2148 233.592 22.1182 233.184 21.9248C232.775 21.7314 232.45 21.4092 232.206 20.958C231.97 20.4997 231.852 19.8838 231.852 19.1104V7.55176Z" fill="black"/>
<path d="M11.5815 49.4995C11.5821 49.2671 11.5461 49.0619 11.4736 48.884C11.4057 48.7016 11.283 48.5372 11.1056 48.391C10.9328 48.2447 10.6916 48.1052 10.382 47.9723C10.077 47.8394 9.6899 47.7041 9.22082 47.5662C8.72898 47.4192 8.28502 47.2564 7.88896 47.0778C7.4929 46.8945 7.15387 46.6864 6.87187 46.4533C6.58986 46.2202 6.37402 45.9531 6.22433 45.652C6.07465 45.3508 6.00026 45.0066 6.00118 44.6192C6.00209 44.2318 6.08268 43.8743 6.24295 43.5465C6.40323 43.2188 6.63176 42.9345 6.92856 42.6936C7.22991 42.4483 7.58811 42.2577 8.00314 42.122C8.41818 41.9862 8.8809 41.9189 9.39132 41.9201C10.1387 41.9219 10.7718 42.0669 11.2907 42.3553C11.8141 42.639 12.212 43.0114 12.4844 43.4723C12.7567 43.9287 12.8923 44.4167 12.8911 44.9362L11.5786 44.9331C11.5795 44.5594 11.5005 44.2288 11.3417 43.9413C11.1828 43.6493 10.9418 43.4209 10.6186 43.256C10.2955 43.0867 9.88552 43.0014 9.38878 43.0002C8.91938 42.9991 8.53184 43.0688 8.22617 43.2094C7.9205 43.35 7.69219 43.5408 7.54123 43.782C7.39483 44.0232 7.32127 44.2987 7.32054 44.6086C7.32005 44.8183 7.36289 45.0098 7.44907 45.1832C7.53982 45.352 7.67845 45.5095 7.86495 45.6558C8.05602 45.8021 8.29724 45.9371 8.58861 46.0608C8.88455 46.1846 9.23746 46.3039 9.64735 46.4188C10.2121 46.5796 10.6993 46.7585 11.109 46.9554C11.5187 47.1524 11.8554 47.3742 12.1191 47.6209C12.3874 47.8631 12.585 48.1392 12.7119 48.4494C12.8434 48.7551 12.9086 49.1016 12.9077 49.489C12.9068 49.8946 12.8239 50.2612 12.659 50.589C12.4942 50.9167 12.2588 51.1964 11.953 51.4281C11.6471 51.6598 11.2798 51.839 10.8511 51.9656C10.427 52.0876 9.95289 52.148 9.4288 52.1468C8.96852 52.1457 8.51522 52.0809 8.06891 51.9522C7.62715 51.8236 7.22428 51.6312 6.8603 51.3752C6.50087 51.1191 6.21222 50.804 5.99435 50.4298C5.78105 50.051 5.67498 49.6132 5.67615 49.1165L6.98865 49.1196C6.98784 49.4614 7.05323 49.7555 7.18482 50.0019C7.31641 50.2437 7.49595 50.4447 7.72344 50.6047C7.95549 50.7648 8.21725 50.8839 8.50873 50.962C8.80479 51.0356 9.11232 51.0728 9.43133 51.0736C9.89161 51.0747 10.2814 51.0118 10.6007 50.8849C10.92 50.7581 11.162 50.5763 11.3266 50.3397C11.4958 50.1032 11.5808 49.8231 11.5815 49.4995ZM16.0334 44.6291L16.016 52.0256L14.7445 52.0226L14.7619 44.6261L16.0334 44.6291ZM14.6708 42.664C14.6713 42.4589 14.7332 42.2859 14.8566 42.1449C14.9846 42.0039 15.1716 41.9337 15.4177 41.9343C15.6592 41.9349 15.8436 42.0059 15.9709 42.1475C16.1027 42.2891 16.1684 42.4624 16.1679 42.6675C16.1674 42.8635 16.101 43.0319 15.9685 43.1729C15.8405 43.3093 15.6558 43.3772 15.4143 43.3767C15.1682 43.3761 14.9815 43.3073 14.8542 43.1703C14.7315 43.0287 14.6704 42.86 14.6708 42.664ZM19.568 46.1072L19.5541 52.0339L18.2826 52.0309L18.3 44.6344L19.5031 44.6373L19.568 46.1072ZM19.3037 48.0548L18.7158 48.0329C18.7216 47.527 18.7888 47.0601 18.9174 46.632C19.046 46.1994 19.236 45.8238 19.4874 45.5054C19.7388 45.187 20.0516 44.9416 20.4257 44.7693C20.7998 44.5925 21.2329 44.5046 21.7251 44.5058C22.0715 44.5066 22.3904 44.5575 22.6818 44.6584C22.9732 44.7548 23.2258 44.9081 23.4395 45.1182C23.6532 45.3283 23.8189 45.5976 23.9366 45.926C24.0543 46.2544 24.1127 46.651 24.1116 47.1159L24.1 52.0446L22.8353 52.0416L22.8468 47.1744C22.8477 46.7871 22.7823 46.477 22.6507 46.2443C22.5237 46.0116 22.3418 45.8425 22.105 45.7371C21.8683 45.6272 21.5905 45.5719 21.2714 45.5711C20.8977 45.5702 20.5854 45.6356 20.3345 45.7672C20.0835 45.8987 19.8825 46.0805 19.7316 46.3126C19.5807 46.5447 19.4707 46.811 19.4016 47.1116C19.3371 47.4077 19.3045 47.7221 19.3037 48.0548ZM24.0973 47.3688L23.249 47.6266C23.2545 47.221 23.3215 46.8315 23.45 46.4581C23.5831 46.0847 23.773 45.7525 24.0198 45.4614C24.2711 45.1703 24.5792 44.9409 24.9442 44.7731C25.3092 44.6008 25.7264 44.5152 26.1958 44.5163C26.5923 44.5172 26.9431 44.5704 27.2482 44.676C27.5578 44.7815 27.8172 44.9439 28.0263 45.1632C28.24 45.3779 28.4011 45.654 28.5097 45.9915C28.6183 46.3289 28.6721 46.7301 28.671 47.195L28.6595 52.0553L27.3881 52.0523L27.3995 47.1783C27.4005 46.7636 27.3352 46.4421 27.2035 46.214C27.0765 45.9812 26.8946 45.819 26.6578 45.7273C26.4256 45.6311 26.1477 45.5826 25.8242 45.5818C25.5462 45.5812 25.3 45.6284 25.0855 45.7236C24.8711 45.8188 24.6908 45.9506 24.5446 46.1189C24.3984 46.2826 24.2863 46.4714 24.2083 46.6854C24.1349 46.8995 24.0979 47.1272 24.0973 47.3688ZM32.1023 46.0888L32.0816 54.9071L30.8101 54.9041L30.8341 44.6639L31.9963 44.6666L32.1023 46.0888ZM37.0805 48.3153L37.0801 48.4589C37.0789 48.9966 37.0139 49.4955 36.8852 49.9555C36.7565 50.4109 36.5687 50.807 36.3219 51.1436C36.0795 51.4803 35.7804 51.7416 35.4245 51.9276C35.0686 52.1137 34.6605 52.2061 34.2002 52.205C33.7308 52.2039 33.3163 52.1255 32.9566 51.9697C32.597 51.8139 32.2922 51.5876 32.0422 51.2908C31.7923 50.994 31.5926 50.638 31.4432 50.223C31.2983 49.8079 31.1991 49.3406 31.1457 48.8209L31.1475 48.0553C31.2034 47.5085 31.3071 47.0189 31.4585 46.5863C31.6099 46.1537 31.8091 45.785 32.0559 45.4803C32.3072 45.1709 32.6109 44.937 32.9667 44.7783C33.3225 44.6151 33.7329 44.534 34.1977 44.5351C34.6626 44.5362 35.0748 44.6283 35.4344 44.8114C35.794 44.99 36.0965 45.2459 36.3418 45.5792C36.5871 45.9125 36.7707 46.3117 36.8927 46.7768C37.0192 47.2374 37.0818 47.7502 37.0805 48.3153ZM35.8086 48.4559L35.809 48.3123C35.8099 47.9432 35.7719 47.5967 35.6952 47.273C35.6185 46.9447 35.4984 46.6573 35.3349 46.4108C35.176 46.1598 34.9714 45.9633 34.7211 45.8215C34.4708 45.6751 34.1724 45.6014 33.8261 45.6006C33.5071 45.5999 33.229 45.6539 32.9917 45.7627C32.759 45.8716 32.5605 46.0192 32.396 46.2057C32.2315 46.3876 32.0965 46.5969 31.9912 46.8336C31.8904 47.0658 31.8146 47.3072 31.7639 47.5577L31.7597 49.3282C31.8501 49.6474 31.977 49.9485 32.1404 50.2314C32.3038 50.5098 32.522 50.7359 32.7951 50.9097C33.0681 51.079 33.412 51.1641 33.8267 51.1651C34.1685 51.1659 34.4626 51.096 34.709 50.9553C34.96 50.81 35.1656 50.6123 35.3256 50.362C35.4903 50.1117 35.6117 49.8249 35.69 49.5015C35.7682 49.1736 35.8078 48.825 35.8086 48.4559ZM40.3336 41.5827L40.3089 52.0827L39.0374 52.0797L39.0621 41.5797L40.3336 41.5827ZM44.6691 51.3273L46.7423 44.7013L48.0958 44.7045L45.109 53.2356C45.0402 53.4177 44.9486 53.6134 44.8341 53.8228C44.7243 54.0367 44.5825 54.2392 44.4089 54.4302C44.2353 54.6212 44.0253 54.7757 43.7789 54.8936C43.5371 55.0161 43.2475 55.0769 42.9103 55.0761C42.81 55.0759 42.6825 55.0619 42.5276 55.0342C42.3727 55.0065 42.2634 54.9834 42.1996 54.9651L42.1952 53.9397C42.2316 53.9443 42.2886 53.949 42.3661 53.9537C42.4481 53.963 42.505 53.9677 42.5369 53.9678C42.824 53.9685 43.0679 53.9303 43.2686 53.8533C43.4693 53.7809 43.6382 53.6559 43.7754 53.4785C43.9171 53.3057 44.0384 53.0667 44.1394 52.7616L44.6691 51.3273ZM43.174 44.6929L45.0814 50.4396L45.4063 51.7734L44.4961 52.2361L41.7931 44.6897L43.174 44.6929ZM57.8581 50.6884L57.8795 41.6239L59.1509 41.6269L59.1263 52.1269L57.9641 52.1242L57.8581 50.6884ZM52.8867 48.496L52.8871 48.3525C52.8884 47.7874 52.958 47.2748 53.0958 46.8149C53.2381 46.3504 53.4373 45.9521 53.6933 45.62C53.9538 45.2879 54.2621 45.0334 54.6179 44.8565C54.9784 44.6751 55.3796 44.5849 55.8217 44.5859C56.2865 44.587 56.692 44.67 57.0379 44.8349C57.3885 44.9952 57.6841 45.2306 57.9249 45.5411C58.1703 45.847 58.3631 46.2166 58.5034 46.6498C58.6436 47.0831 58.7405 47.5733 58.7939 48.1203L58.7924 48.7492C58.741 49.2914 58.6419 49.7788 58.495 50.2114C58.3527 50.644 58.1582 51.0126 57.9114 51.3174C57.6691 51.6222 57.3723 51.8562 57.021 52.0194C56.6697 52.1781 56.2594 52.2569 55.79 52.2558C55.3571 52.2548 54.9608 52.1604 54.6012 51.9727C54.2462 51.785 53.9392 51.5223 53.6802 51.1844C53.4258 50.8466 53.2285 50.4496 53.0883 49.9936C52.9526 49.533 52.8855 49.0338 52.8867 48.496ZM54.1585 48.3555L54.1582 48.499C54.1573 48.8681 54.193 49.2146 54.2651 49.5383C54.3419 49.8621 54.4597 50.1472 54.6186 50.3937C54.7775 50.6401 54.9799 50.8343 55.2256 50.9761C55.4714 51.1134 55.7652 51.1825 56.107 51.1833C56.5262 51.1843 56.8705 51.0962 57.1398 50.9191C57.4137 50.742 57.633 50.5078 57.7977 50.2166C57.9625 49.9253 58.0908 49.6088 58.1828 49.2673L58.1867 47.6198C58.1326 47.369 58.0534 47.1273 57.9491 46.8946C57.8494 46.6574 57.7177 46.4475 57.5541 46.2648C57.395 46.0776 57.1971 45.929 56.9604 45.8191C56.7282 45.7091 56.4527 45.6538 56.1337 45.6531C55.7873 45.6522 55.4886 45.7245 55.2376 45.8697C54.9912 46.0104 54.7879 46.2059 54.6279 46.4562C54.4678 46.7019 54.3486 46.9887 54.2704 47.3167C54.1967 47.64 54.1594 47.9863 54.1585 48.3555ZM65.8744 50.4338L65.8878 44.7463L67.1592 44.7493L67.1419 52.1457L65.9319 52.1429L65.8744 50.4338ZM66.1173 48.8758L66.6437 48.8633C66.6426 49.3555 66.5891 49.8111 66.4833 50.2301C66.382 50.6446 66.2171 51.0042 65.9885 51.309C65.76 51.6139 65.4609 51.8524 65.0914 52.0247C64.7218 52.1925 64.2727 52.2757 63.7441 52.2745C63.3841 52.2736 63.0538 52.2204 62.7532 52.1149C62.4573 52.0094 62.2024 51.847 61.9888 51.6278C61.7751 51.4085 61.6094 51.1233 61.4918 50.7721C61.3786 50.4209 61.3227 49.9993 61.3238 49.5071L61.335 44.7356L62.5997 44.7386L62.5884 49.5237C62.5877 49.8564 62.6235 50.1322 62.6959 50.3511C62.7728 50.5655 62.875 50.7366 63.0023 50.8645C63.1342 50.9879 63.2798 51.0748 63.4392 51.1253C63.6031 51.1758 63.7717 51.2013 63.9448 51.2017C64.4826 51.203 64.909 51.1014 65.2239 50.8971C65.5388 50.6882 65.7651 50.4085 65.9026 50.0579C66.0447 49.7027 66.1163 49.3087 66.1173 48.8758ZM70.5913 46.2271L70.5774 52.1538L69.3059 52.1508L69.3233 44.7544L70.5264 44.7572L70.5913 46.2271ZM70.327 48.1747L69.7391 48.1528C69.7449 47.647 69.8121 47.18 69.9407 46.7519C70.0693 46.3193 70.2593 45.9437 70.5107 45.6253C70.7621 45.3069 71.0749 45.0615 71.449 44.8892C71.8231 44.7124 72.2562 44.6245 72.7484 44.6257C73.0948 44.6265 73.4137 44.6774 73.7051 44.7783C73.9965 44.8747 74.2491 45.028 74.4628 45.2381C74.6765 45.4483 74.8422 45.7175 74.9599 46.0459C75.0776 46.3743 75.136 46.771 75.1349 47.2358L75.1233 52.1645L73.8586 52.1615L73.8701 47.2944C73.871 46.907 73.8056 46.5969 73.674 46.3642C73.547 46.1315 73.3651 45.9624 73.1283 45.8571C72.8916 45.7471 72.6137 45.6918 72.2947 45.691C71.921 45.6902 71.6087 45.7555 71.3578 45.8871C71.1068 46.0187 70.9058 46.2005 70.7549 46.4325C70.604 46.6646 70.494 46.931 70.4249 47.2316C70.3604 47.5276 70.3278 47.842 70.327 48.1747ZM75.1206 47.4887L74.2723 47.7465C74.2778 47.3409 74.3448 46.9514 74.4733 46.578C74.6064 46.2046 74.7963 45.8724 75.0431 45.5813C75.2944 45.2902 75.6025 45.0608 75.9675 44.893C76.3325 44.7207 76.7497 44.6351 77.2191 44.6362C77.6156 44.6371 77.9664 44.6904 78.2715 44.7959C78.5811 44.9015 78.8405 45.0638 79.0496 45.2831C79.2633 45.4978 79.4244 45.7739 79.533 46.1114C79.6416 46.4489 79.6954 46.85 79.6943 47.3149L79.6828 52.1752L78.4114 52.1722L78.4228 47.2982C78.4238 46.8835 78.3585 46.5621 78.2268 46.3339C78.0998 46.1012 77.9179 45.939 77.6811 45.8473C77.4489 45.751 77.171 45.7025 76.8475 45.7017C76.5695 45.7011 76.3233 45.7484 76.1088 45.8436C75.8944 45.9388 75.7141 46.0705 75.5679 46.2388C75.4217 46.4025 75.3096 46.5914 75.2316 46.8054C75.1582 47.0194 75.1212 47.2472 75.1206 47.4887ZM83.1186 46.2565L83.1047 52.1833L81.8332 52.1803L81.8506 44.7838L83.0537 44.7866L83.1186 46.2565ZM82.8543 48.2042L82.2665 48.1823C82.2722 47.6764 82.3394 47.2094 82.468 46.7814C82.5966 46.3487 82.7866 45.9732 83.038 45.6548C83.2894 45.3364 83.6022 45.091 83.9763 44.9187C84.3504 44.7418 84.7835 44.654 85.2757 44.6551C85.6221 44.656 85.941 44.7068 86.2324 44.8078C86.5238 44.9042 86.7764 45.0574 86.9901 45.2676C87.2038 45.4777 87.3695 45.747 87.4872 46.0754C87.605 46.4038 87.6633 46.8004 87.6622 47.2653L87.6506 52.194L86.3859 52.191L86.3974 47.3238C86.3983 46.9364 86.3329 46.6264 86.2013 46.3937C86.0743 46.1609 85.8924 45.9919 85.6556 45.8865C85.4189 45.7766 85.1411 45.7212 84.822 45.7205C84.4484 45.7196 84.136 45.785 83.8851 45.9165C83.6341 46.0481 83.4332 46.2299 83.2822 46.462C83.1313 46.6941 83.0213 46.9604 82.9522 47.261C82.8877 47.5571 82.8551 47.8715 82.8543 48.2042ZM87.6479 47.5182L86.7996 47.7759C86.8052 47.3703 86.8722 46.9808 87.0006 46.6074C87.1337 46.2341 87.3236 45.9018 87.5704 45.6107C87.8217 45.3197 88.1299 45.0902 88.4948 44.9225C88.8598 44.7502 89.277 44.6646 89.7464 44.6657C90.1429 44.6666 90.4937 44.7198 90.7988 44.8254C91.1084 44.9309 91.3678 45.0933 91.5769 45.3125C91.7906 45.5272 91.9518 45.8033 92.0603 46.1408C92.1689 46.4783 92.2227 46.8795 92.2216 47.3443L92.2101 52.2047L90.9387 52.2017L90.9501 47.3277C90.9511 46.913 90.8858 46.5915 90.7541 46.3633C90.6271 46.1306 90.4452 45.9684 90.2084 45.8767C89.9762 45.7805 89.6983 45.7319 89.3748 45.7312C89.0968 45.7305 88.8506 45.7778 88.6362 45.873C88.4217 45.9682 88.2414 46.0999 88.0952 46.2682C87.949 46.4319 87.8369 46.6208 87.7589 46.8348C87.6855 47.0488 87.6485 47.2766 87.6479 47.5182ZM96.4541 51.449L98.5273 44.823L99.8808 44.8262L96.894 53.3573C96.8252 53.5394 96.7336 53.7352 96.6192 53.9445C96.5093 54.1585 96.3675 54.3609 96.1939 54.5519C96.0203 54.7429 95.8103 54.8974 95.5639 55.0153C95.3221 55.1378 95.0325 55.1986 94.6953 55.1978C94.595 55.1976 94.4675 55.1836 94.3126 55.1559C94.1577 55.1282 94.0484 55.1052 93.9846 55.0868L93.9802 54.0614C94.0167 54.066 94.0736 54.0707 94.1511 54.0754C94.2331 54.0848 94.29 54.0894 94.3219 54.0895C94.609 54.0902 94.8529 54.052 95.0537 53.975C95.2543 53.9026 95.4233 53.7777 95.5604 53.6002C95.7021 53.4274 95.8234 53.1884 95.9244 52.8833L96.4541 51.449ZM94.959 44.8146L96.8664 50.5613L97.1914 51.8951L96.2811 52.3578L93.5781 44.8114L94.959 44.8146ZM108.092 44.8455L108.089 45.8162L104.09 45.8068L104.093 44.8361L108.092 44.8455ZM105.45 43.0414L106.715 43.0444L106.698 50.4067C106.697 50.6573 106.736 50.8466 106.813 50.9743C106.89 51.1021 106.99 51.1867 107.113 51.228C107.236 51.2693 107.368 51.2901 107.509 51.2904C107.614 51.2907 107.723 51.2818 107.837 51.2639C107.956 51.2413 108.045 51.2233 108.104 51.2098L108.109 52.242C108.008 52.2737 107.876 52.303 107.712 52.33C107.552 52.3615 107.359 52.377 107.131 52.3765C106.821 52.3757 106.536 52.3135 106.277 52.1899C106.017 52.0662 105.81 51.8607 105.656 51.5732C105.506 51.2812 105.432 50.8891 105.433 50.3969L105.45 43.0414ZM112.877 52.39C112.362 52.3888 111.895 52.3011 111.476 52.1269C111.062 51.9482 110.705 51.699 110.405 51.3793C110.109 51.0596 109.882 50.6808 109.724 50.2429C109.565 49.805 109.486 49.3263 109.488 48.8068L109.488 48.5197C109.49 47.9181 109.58 47.3829 109.759 46.9139C109.938 46.4403 110.18 46.0399 110.486 45.7125C110.792 45.385 111.139 45.1375 111.527 44.9698C111.915 44.8021 112.316 44.7187 112.731 44.7197C113.259 44.7209 113.715 44.8131 114.097 44.9963C114.484 45.1795 114.8 45.4355 115.046 45.7642C115.291 46.0883 115.472 46.4716 115.59 46.9139C115.707 47.3517 115.765 47.8303 115.764 48.3499L115.763 48.9172L110.239 48.9043L110.242 47.872L114.501 47.882L114.501 47.7863C114.483 47.4582 114.416 47.139 114.298 46.8288C114.185 46.5187 114.003 46.263 113.753 46.0619C113.503 45.8608 113.161 45.7598 112.728 45.7587C112.441 45.7581 112.177 45.819 111.935 45.9414C111.693 46.0594 111.485 46.2366 111.312 46.4732C111.138 46.7098 111.003 46.9988 110.906 47.3404C110.81 47.682 110.761 48.0761 110.76 48.5227L110.759 48.8098C110.758 49.1607 110.805 49.4912 110.9 49.8013C111 50.1069 111.143 50.3761 111.329 50.609C111.52 50.8418 111.75 51.0247 112.018 51.1575C112.291 51.2903 112.601 51.3571 112.948 51.3579C113.394 51.3589 113.773 51.2687 114.083 51.0871C114.393 50.9056 114.665 50.6624 114.898 50.3576L115.662 50.9678C115.502 51.209 115.299 51.4386 115.052 51.6568C114.806 51.875 114.502 52.052 114.142 52.1879C113.786 52.3237 113.364 52.3911 112.877 52.39ZM118.353 44.8696L119.967 47.5668L121.614 44.8773L123.098 44.8808L120.669 48.5255L123.155 52.2774L121.692 52.274L119.99 49.4946L118.275 52.2659L116.805 52.2625L119.302 48.5222L116.897 44.8662L118.353 44.8696ZM127.791 44.8918L127.789 45.8625L123.79 45.8531L123.792 44.8824L127.791 44.8918ZM125.15 43.0877L126.414 43.0907L126.397 50.453C126.396 50.7036 126.435 50.8929 126.512 51.0206C126.589 51.1484 126.689 51.233 126.812 51.2743C126.935 51.3156 127.067 51.3364 127.208 51.3367C127.313 51.337 127.423 51.3281 127.537 51.3102C127.655 51.2877 127.744 51.2696 127.803 51.2561L127.808 52.2883C127.707 52.32 127.575 52.3493 127.411 52.3763C127.251 52.4078 127.058 52.4233 126.83 52.4228C126.52 52.422 126.235 52.3598 125.976 52.2362C125.716 52.1125 125.509 51.907 125.355 51.6195C125.205 51.3275 125.131 50.9354 125.132 50.4432L125.15 43.0877ZM132.903 48.6841L132.903 48.5269C132.905 47.9937 132.983 47.4994 133.139 47.044C133.295 46.5841 133.52 46.1859 133.812 45.8493C134.105 45.5082 134.458 45.2447 134.874 45.0588C135.289 44.8684 135.754 44.7738 136.269 44.775C136.788 44.7762 137.255 44.873 137.669 45.0654C138.088 45.2532 138.443 45.5184 138.734 45.8609C139.029 46.1988 139.254 46.5981 139.408 47.0588C139.562 47.5148 139.638 48.0095 139.637 48.5427L139.636 48.6999C139.635 49.2331 139.557 49.7274 139.401 50.1828C139.245 50.6381 139.018 51.0364 138.721 51.3775C138.429 51.714 138.075 51.9775 137.66 52.1679C137.249 52.3538 136.784 52.4462 136.264 52.4449C135.745 52.4437 135.278 52.3492 134.864 52.1614C134.449 51.969 134.095 51.7038 133.799 51.3659C133.508 51.0234 133.286 50.6241 133.132 50.168C132.978 49.7119 132.902 49.2173 132.903 48.6841ZM134.168 48.5298L134.168 48.6871C134.167 49.0562 134.209 49.4049 134.295 49.7333C134.381 50.057 134.51 50.3445 134.683 50.5955C134.86 50.8466 135.081 51.0453 135.344 51.1918C135.608 51.3337 135.916 51.405 136.267 51.4059C136.613 51.4067 136.916 51.3368 137.177 51.1961C137.441 51.0509 137.66 50.8532 137.834 50.6029C138.008 50.3527 138.138 50.0659 138.226 49.7425C138.318 49.4146 138.364 49.0661 138.365 48.6969L138.365 48.5397C138.366 48.1751 138.321 47.8309 138.231 47.5072C138.145 47.1788 138.014 46.8891 137.837 46.6381C137.664 46.3825 137.446 46.1814 137.182 46.035C136.922 45.8885 136.617 45.8149 136.266 45.8141C135.92 45.8132 135.614 45.8854 135.35 46.0307C135.09 46.1759 134.87 46.3759 134.692 46.6307C134.518 46.8809 134.388 47.17 134.3 47.4979C134.213 47.8213 134.169 48.1653 134.168 48.5298ZM143.351 52.3249L142.086 52.3219L142.105 44.1461C142.106 43.6129 142.203 43.1643 142.395 42.8001C142.592 42.4315 142.873 42.1541 143.238 41.9681C143.603 41.7776 144.036 41.6829 144.538 41.6841C144.684 41.6844 144.829 41.6939 144.975 41.7124C145.126 41.731 145.271 41.7587 145.412 41.7955L145.342 42.8276C145.246 42.8046 145.137 42.7884 145.014 42.7789C144.895 42.7696 144.777 42.7647 144.658 42.7644C144.389 42.7638 144.157 42.818 143.961 42.9269C143.769 43.0312 143.623 43.1858 143.522 43.3907C143.421 43.5955 143.371 43.8483 143.37 44.1491L143.351 52.3249ZM144.94 44.9321L144.938 45.9028L140.932 45.8934L140.934 44.9227L144.94 44.9321ZM153.418 44.952L153.416 45.9227L149.417 45.9133L149.419 44.9426L153.418 44.952ZM150.777 43.148L152.041 43.1509L152.024 50.5132C152.023 50.7639 152.062 50.9531 152.139 51.0809C152.216 51.2087 152.316 51.2932 152.439 51.3345C152.562 51.3758 152.694 51.3966 152.835 51.397C152.94 51.3972 153.049 51.3884 153.163 51.3704C153.282 51.3479 153.371 51.3299 153.43 51.3163L153.435 52.3486C153.334 52.3802 153.202 52.4095 153.038 52.4365C152.878 52.468 152.685 52.4835 152.457 52.483C152.147 52.4823 151.862 52.4201 151.603 52.2964C151.343 52.1728 151.136 51.9672 150.982 51.6797C150.832 51.3877 150.758 50.9956 150.759 50.5034L150.777 43.148ZM156.423 41.8556L156.398 52.3555L155.134 52.3526L155.158 41.8526L156.423 41.8556ZM156.107 48.3763L155.581 48.3546C155.586 47.8487 155.663 47.3818 155.81 46.9537C155.956 46.5212 156.162 46.1457 156.427 45.8273C156.693 45.5089 157.008 45.2635 157.373 45.0912C157.742 44.9143 158.15 44.8264 158.597 44.8275C158.961 44.8283 159.289 44.8792 159.581 44.9802C159.872 45.0766 160.12 45.2321 160.325 45.4468C160.534 45.6615 160.693 45.9398 160.801 46.2819C160.91 46.6194 160.964 47.0319 160.963 47.5196L160.951 52.3662L159.68 52.3633L159.691 47.5029C159.692 47.1155 159.636 46.8055 159.522 46.5728C159.409 46.3356 159.243 46.1643 159.025 46.059C158.806 45.9491 158.537 45.8938 158.218 45.893C157.904 45.8923 157.617 45.9577 157.357 46.0892C157.101 46.2208 156.88 46.4026 156.692 46.6345C156.509 46.8665 156.365 47.1328 156.26 47.4333C156.159 47.7293 156.108 48.0436 156.107 48.3763ZM166.164 52.5152C165.649 52.514 165.182 52.4263 164.763 52.2522C164.349 52.0734 163.992 51.8242 163.691 51.5045C163.396 51.1848 163.169 50.806 163.011 50.3681C162.852 49.9303 162.773 49.4516 162.775 48.932L162.775 48.6449C162.777 48.0434 162.867 47.5081 163.046 47.0391C163.225 46.5656 163.467 46.1651 163.773 45.8377C164.079 45.5103 164.426 45.2627 164.814 45.095C165.202 44.9273 165.603 44.8439 166.018 44.8449C166.546 44.8462 167.002 44.9384 167.384 45.1216C167.771 45.3048 168.087 45.5607 168.333 45.8894C168.578 46.2136 168.759 46.5968 168.877 47.0392C168.994 47.4769 169.052 47.9556 169.051 48.4751L169.05 49.0425L163.526 49.0295L163.529 47.9973L167.788 48.0073L167.788 47.9116C167.77 47.5834 167.703 47.2643 167.585 46.9541C167.472 46.6439 167.29 46.3883 167.04 46.1872C166.79 45.9861 166.448 45.885 166.015 45.884C165.728 45.8833 165.464 45.9442 165.222 46.0667C164.98 46.1846 164.772 46.3619 164.599 46.5984C164.425 46.835 164.29 47.1241 164.193 47.4656C164.097 47.8072 164.048 48.2013 164.047 48.6479L164.046 48.935C164.045 49.2859 164.092 49.6165 164.187 49.9266C164.287 50.2321 164.43 50.5014 164.616 50.7342C164.807 50.9671 165.037 51.1499 165.305 51.2827C165.578 51.4155 165.888 51.4823 166.235 51.4831C166.681 51.4842 167.06 51.3939 167.37 51.2124C167.68 51.0308 167.952 50.7876 168.185 50.4828L168.949 51.093C168.789 51.3342 168.586 51.5639 168.339 51.782C168.093 52.0002 167.789 52.1772 167.429 52.3131C167.073 52.449 166.651 52.5164 166.164 52.5152ZM175.77 46.4264L175.749 55.2448L174.478 55.2418L174.502 45.0016L175.664 45.0043L175.77 46.4264ZM180.748 48.653L180.748 48.7965C180.746 49.3343 180.681 49.8332 180.553 50.2932C180.424 50.7486 180.236 51.1446 179.989 51.4813C179.747 51.818 179.448 52.0793 179.092 52.2653C178.736 52.4513 178.328 52.5438 177.868 52.5427C177.398 52.5416 176.984 52.4632 176.624 52.3074C176.265 52.1516 175.96 51.9253 175.71 51.6285C175.46 51.3317 175.26 50.9757 175.111 50.5606C174.966 50.1456 174.867 49.6782 174.813 49.1586L174.815 48.393C174.871 47.8462 174.975 47.3565 175.126 46.924C175.278 46.4914 175.477 46.1227 175.723 45.8179C175.975 45.5086 176.278 45.2746 176.634 45.116C176.99 44.9527 177.4 44.8717 177.865 44.8728C178.33 44.8739 178.742 44.966 179.102 45.1491C179.462 45.3277 179.764 45.5836 180.009 45.9169C180.255 46.2501 180.438 46.6493 180.56 47.1145C180.687 47.575 180.749 48.0879 180.748 48.653ZM179.476 48.7936L179.477 48.65C179.477 48.2809 179.44 47.9344 179.363 47.6107C179.286 47.2824 179.166 46.995 179.003 46.7485C178.844 46.4975 178.639 46.301 178.389 46.1592C178.138 46.0127 177.84 45.9391 177.494 45.9383C177.175 45.9376 176.897 45.9916 176.659 46.1004C176.427 46.2092 176.228 46.3569 176.064 46.5433C175.899 46.7253 175.764 46.9346 175.659 47.1713C175.558 47.4035 175.482 47.6448 175.431 47.8954L175.427 49.6659C175.518 49.9851 175.645 50.2862 175.808 50.5691C175.971 50.8475 176.19 51.0736 176.463 51.2474C176.736 51.4167 177.08 51.5018 177.494 51.5028C177.836 51.5036 178.13 51.4336 178.377 51.2929C178.628 51.1477 178.833 50.9499 178.993 50.6997C179.158 50.4494 179.279 50.1626 179.358 49.8392C179.436 49.5112 179.475 49.1627 179.476 48.7936ZM183.882 46.1857L183.867 52.4201L182.602 52.4171L182.62 45.0207L183.85 45.0236L183.882 46.1857ZM186.195 44.9881L186.186 46.1638C186.081 46.1408 185.981 46.1269 185.885 46.1221C185.794 46.1128 185.689 46.108 185.57 46.1077C185.279 46.107 185.021 46.152 184.798 46.2426C184.574 46.3332 184.385 46.4604 184.229 46.6241C184.074 46.7878 183.951 46.9834 183.859 47.2111C183.772 47.4342 183.714 47.6801 183.686 47.949L183.33 48.1532C183.331 47.7066 183.376 47.2874 183.463 46.8957C183.555 46.504 183.695 46.158 183.883 45.8576C184.07 45.5527 184.308 45.3163 184.595 45.1484C184.887 44.9759 185.234 44.8901 185.635 44.891C185.726 44.8912 185.831 44.9029 185.949 44.926C186.068 44.9445 186.15 44.9652 186.195 44.9881ZM188.988 45.0356L188.971 52.4321L187.699 52.4291L187.717 45.0326L188.988 45.0356ZM187.625 43.0705C187.626 42.8654 187.688 42.6924 187.811 42.5514C187.939 42.4104 188.126 42.3402 188.372 42.3408C188.614 42.3414 188.798 42.4125 188.925 42.554C189.057 42.6956 189.123 42.869 189.123 43.074C189.122 43.27 189.056 43.4385 188.923 43.5794C188.795 43.7158 188.61 43.7838 188.369 43.7832C188.123 43.7826 187.936 43.7138 187.809 43.5768C187.686 43.4352 187.625 43.2665 187.625 43.0705ZM192.529 46.6231L192.516 52.4404L191.251 52.4375L191.268 45.041L192.465 45.0438L192.529 46.6231ZM192.224 48.4612L191.698 48.4395C191.704 47.9336 191.78 47.4667 191.927 47.0386C192.074 46.606 192.279 46.2305 192.545 45.9122C192.81 45.5938 193.125 45.3484 193.49 45.1761C193.859 44.9992 194.267 44.9113 194.714 44.9124C195.078 44.9132 195.406 44.9641 195.698 45.0651C195.989 45.1615 196.237 45.317 196.442 45.5317C196.651 45.7464 196.81 46.0247 196.918 46.3668C197.027 46.7043 197.081 47.1168 197.08 47.6045L197.068 52.4511L195.797 52.4481L195.808 47.5878C195.809 47.2004 195.753 46.8904 195.639 46.6577C195.526 46.4205 195.36 46.2492 195.142 46.1439C194.923 46.034 194.654 45.9786 194.335 45.9779C194.021 45.9772 193.734 46.0426 193.474 46.1741C193.218 46.3057 192.997 46.4874 192.809 46.7194C192.626 46.9514 192.482 47.2177 192.377 47.5182C192.276 47.8142 192.225 48.1285 192.224 48.4612ZM202.353 45.067L202.351 46.0377L198.352 46.0283L198.354 45.0576L202.353 45.067ZM199.712 43.263L200.977 43.266L200.959 50.6282C200.959 50.8789 200.997 51.0681 201.074 51.1959C201.151 51.3237 201.251 51.4082 201.374 51.4495C201.497 51.4908 201.629 51.5117 201.771 51.512C201.875 51.5122 201.985 51.5034 202.099 51.4854C202.217 51.4629 202.306 51.4449 202.366 51.4314L202.37 52.4636C202.27 52.4953 202.137 52.5246 201.973 52.5515C201.814 52.5831 201.62 52.5985 201.392 52.598C201.082 52.5973 200.798 52.5351 200.538 52.4114C200.279 52.2878 200.072 52.0822 199.917 51.7947C199.768 51.5027 199.693 51.1106 199.695 50.6184L199.712 43.263ZM205.461 45.0744L205.443 52.4708L204.172 52.4678L204.189 45.0714L205.461 45.0744ZM204.098 43.1092C204.099 42.9042 204.16 42.7311 204.284 42.5901C204.412 42.4492 204.599 42.379 204.845 42.3795C205.086 42.3801 205.271 42.4512 205.398 42.5928C205.53 42.7343 205.596 42.9077 205.595 43.1127C205.595 43.3087 205.528 43.4772 205.396 43.6181C205.268 43.7546 205.083 43.8225 204.841 43.8219C204.595 43.8213 204.409 43.7525 204.281 43.6155C204.159 43.474 204.098 43.3052 204.098 43.1092ZM209.002 46.6618L208.988 52.4791L207.724 52.4762L207.741 45.0797L208.937 45.0825L209.002 46.6618ZM208.697 48.4999L208.17 48.4782C208.176 47.9723 208.252 47.5054 208.399 47.0774C208.546 46.6448 208.752 46.2693 209.017 45.9509C209.282 45.6325 209.597 45.3871 209.962 45.2148C210.332 45.0379 210.74 44.95 211.187 44.9511C211.551 44.9519 211.879 45.0028 212.171 45.1038C212.462 45.2002 212.71 45.3557 212.915 45.5704C213.124 45.7851 213.283 46.0634 213.391 46.4055C213.5 46.743 213.553 47.1556 213.552 47.6432L213.541 52.4898L212.269 52.4869L212.281 47.6265C212.282 47.2392 212.225 46.9291 212.112 46.6964C211.999 46.4592 211.833 46.2879 211.614 46.1826C211.396 46.0727 211.127 46.0174 210.808 46.0166C210.494 46.0159 210.206 46.0813 209.946 46.2128C209.691 46.3444 209.469 46.5262 209.282 46.7581C209.099 46.9901 208.955 47.2564 208.849 47.5569C208.748 47.8529 208.698 48.1673 208.697 48.4999ZM220.521 45.1097L221.67 45.1124L221.653 52.3517C221.651 53.0034 221.518 53.5591 221.252 54.0187C220.987 54.4784 220.617 54.8261 220.142 55.062C219.672 55.3024 219.13 55.4219 218.514 55.4205C218.259 55.4199 217.959 55.3782 217.612 55.2953C217.271 55.217 216.934 55.0818 216.602 54.8896C216.274 54.702 215.999 54.4484 215.776 54.1289L216.441 53.3785C216.75 53.7529 217.073 54.0135 217.41 54.1601C217.751 54.3067 218.089 54.3804 218.421 54.3812C218.822 54.3821 219.169 54.3078 219.461 54.1581C219.753 54.0084 219.979 53.7856 220.139 53.4897C220.304 53.1985 220.387 52.8386 220.388 52.4102L220.401 46.7364L220.521 45.1097ZM215.419 48.878L215.42 48.7345C215.421 48.1694 215.488 47.6568 215.622 47.1969C215.759 46.7324 215.954 46.334 216.206 46.002C216.462 45.6699 216.77 45.4154 217.13 45.2385C217.491 45.0571 217.896 44.9669 218.348 44.9679C218.812 44.969 219.218 45.052 219.564 45.2169C219.914 45.3772 220.21 45.6126 220.451 45.9231C220.696 46.229 220.889 46.5986 221.029 47.0318C221.17 47.4651 221.266 47.9553 221.32 48.5023L221.318 49.1312C221.267 49.6734 221.168 50.1608 221.021 50.5934C220.879 51.026 220.684 51.3947 220.437 51.6994C220.195 52.0042 219.898 52.2382 219.547 52.4014C219.196 52.5601 218.785 52.6389 218.316 52.6378C217.874 52.6368 217.473 52.5424 217.113 52.3547C216.758 52.167 216.454 51.9042 216.199 51.5664C215.945 51.2286 215.75 50.8316 215.614 50.3756C215.483 49.915 215.418 49.4158 215.419 48.878ZM216.684 48.7375L216.684 48.881C216.683 49.2502 216.719 49.5966 216.791 49.9203C216.868 50.2441 216.983 50.5292 217.138 50.7756C217.297 51.0221 217.499 51.2163 217.745 51.3581C217.99 51.4954 218.284 51.5645 218.626 51.5653C219.045 51.5663 219.392 51.4782 219.666 51.3011C219.94 51.124 220.157 50.8898 220.317 50.5985C220.482 50.3073 220.61 49.9908 220.702 49.6492L220.706 48.0018C220.656 47.751 220.579 47.5093 220.475 47.2766C220.375 47.0394 220.244 46.8295 220.08 46.6468C219.921 46.4596 219.723 46.311 219.486 46.2011C219.25 46.0911 218.972 46.0358 218.653 46.035C218.306 46.0342 218.008 46.1064 217.757 46.2517C217.51 46.3924 217.307 46.5879 217.147 46.8382C216.991 47.0839 216.875 47.3707 216.796 47.6987C216.723 48.0221 216.685 48.3683 216.684 48.7375ZM231.91 51.2684L231.919 47.4608C231.92 47.1691 231.861 46.916 231.743 46.7016C231.63 46.4825 231.457 46.3135 231.225 46.1945C230.993 46.0754 230.706 46.0155 230.364 46.0147C230.045 46.014 229.764 46.068 229.523 46.1768C229.285 46.2856 229.098 46.4287 228.961 46.6062C228.828 46.7836 228.762 46.9748 228.761 47.1799L227.497 47.1769C227.497 46.9126 227.566 46.6507 227.704 46.3913C227.841 46.1318 228.038 45.8976 228.293 45.6886C228.553 45.475 228.864 45.3071 229.224 45.1849C229.589 45.0581 229.995 44.9953 230.441 44.9963C230.979 44.9976 231.453 45.0899 231.863 45.2731C232.277 45.4564 232.6 45.7329 232.831 46.1026C233.067 46.4677 233.185 46.926 233.184 47.4774L233.175 50.9227C233.175 51.1688 233.195 51.4309 233.235 51.709C233.28 51.9871 233.346 52.2265 233.432 52.4272L233.431 52.5366L232.112 52.5335C232.049 52.3875 231.999 52.1937 231.963 51.9521C231.927 51.7059 231.91 51.478 231.91 51.2684ZM232.136 48.0492L232.148 48.9379L230.87 48.9349C230.51 48.934 230.188 48.9629 229.906 49.0215C229.623 49.0755 229.386 49.1592 229.194 49.2727C229.002 49.3862 228.856 49.5294 228.755 49.7024C228.655 49.8707 228.604 50.0689 228.604 50.2967C228.603 50.5292 228.655 50.7412 228.759 50.9328C228.864 51.1245 229.021 51.2775 229.23 51.392C229.444 51.5018 229.706 51.5571 230.016 51.5579C230.403 51.5588 230.745 51.4775 231.042 51.3142C231.338 51.1508 231.574 50.9508 231.747 50.7143C231.926 50.4777 232.022 50.2478 232.036 50.0245L232.575 50.6342C232.542 50.8255 232.455 51.0372 232.313 51.2693C232.172 51.5014 231.982 51.7243 231.744 51.9379C231.511 52.147 231.233 52.3218 230.909 52.4623C230.59 52.5983 230.23 52.6658 229.829 52.6649C229.327 52.6637 228.888 52.5647 228.51 52.3678C228.137 52.171 227.846 51.9082 227.637 51.5796C227.433 51.2465 227.331 50.8748 227.332 50.4646C227.333 50.0682 227.411 49.7197 227.567 49.4193C227.722 49.1143 227.946 48.8619 228.238 48.6621C228.531 48.4577 228.882 48.3036 229.292 48.1997C229.703 48.0959 230.161 48.0445 230.667 48.0457L232.136 48.0492ZM236.689 46.7269L236.676 52.5442L235.411 52.5413L235.428 45.1448L236.625 45.1476L236.689 46.7269ZM236.384 48.565L235.858 48.5433C235.864 48.0374 235.94 47.5705 236.087 47.1424C236.234 46.7098 236.44 46.3343 236.705 46.016C236.97 45.6976 237.285 45.4522 237.65 45.2799C238.019 45.103 238.427 45.0151 238.874 45.0162C239.239 45.017 239.567 45.0679 239.858 45.1689C240.149 45.2653 240.397 45.4208 240.602 45.6355C240.811 45.8502 240.97 46.1285 241.079 46.4706C241.187 46.8081 241.241 47.2206 241.24 47.7083L241.228 52.5549L239.957 52.5519L239.968 47.6916C239.969 47.3042 239.913 46.9942 239.8 46.7615C239.686 46.5243 239.52 46.353 239.302 46.2476C239.083 46.1378 238.814 46.0824 238.495 46.0817C238.181 46.0809 237.894 46.1464 237.634 46.2779C237.378 46.4095 237.157 46.5912 236.969 46.8232C236.786 47.0552 236.642 47.3215 236.537 47.622C236.436 47.918 236.385 48.2323 236.384 48.565ZM248.065 51.1354L248.086 42.071L249.357 42.074L249.333 52.574L248.171 52.5712L248.065 51.1354ZM243.093 48.9431L243.094 48.7995C243.095 48.2344 243.164 47.7219 243.302 47.2619C243.445 46.7974 243.644 46.3991 243.9 46.067C244.16 45.735 244.469 45.4805 244.824 45.3036C245.185 45.1221 245.586 45.0319 246.028 45.033C246.493 45.0341 246.898 45.1171 247.244 45.2819C247.595 45.4423 247.891 45.6777 248.131 45.9881C248.377 46.294 248.57 46.6636 248.71 47.0969C248.85 47.5302 248.947 48.0203 249 48.5673L248.999 49.1962C248.948 49.7384 248.848 50.2258 248.702 50.6584C248.559 51.091 248.365 51.4597 248.118 51.7645C247.876 52.0692 247.579 52.3032 247.228 52.4665C246.876 52.6252 246.466 52.704 245.997 52.7029C245.564 52.7018 245.167 52.6075 244.808 52.4198C244.453 52.2321 244.146 51.9693 243.887 51.6315C243.632 51.2936 243.435 50.8967 243.295 50.4406C243.159 49.98 243.092 49.4808 243.093 48.9431ZM244.365 48.8025L244.365 48.9461C244.364 49.3152 244.399 49.6617 244.472 49.9854C244.548 50.3091 244.666 50.5943 244.825 50.8407C244.984 51.0872 245.186 51.2813 245.432 51.4232C245.678 51.5605 245.972 51.6295 246.313 51.6304C246.733 51.6313 247.077 51.5433 247.346 51.3662C247.62 51.1891 247.839 50.9549 248.004 50.6636C248.169 50.3723 248.297 50.0559 248.389 49.7143L248.393 48.0669C248.339 47.8161 248.26 47.5744 248.156 47.3417C248.056 47.1045 247.924 46.8945 247.761 46.7119C247.602 46.5246 247.404 46.3761 247.167 46.2661C246.935 46.1562 246.659 46.1009 246.34 46.1001C245.994 46.0993 245.695 46.1715 245.444 46.3168C245.198 46.4575 244.994 46.653 244.834 46.9032C244.674 47.1489 244.555 47.4358 244.477 47.7637C244.403 48.0871 244.366 48.4334 244.365 48.8025ZM258.388 45.1988L258.386 46.1695L254.387 46.1601L254.389 45.1894L258.388 45.1988ZM255.747 43.3947L257.012 43.3977L256.994 50.7599C256.994 51.0106 257.032 51.1998 257.109 51.3276C257.186 51.4554 257.286 51.5399 257.409 51.5812C257.532 51.6225 257.664 51.6434 257.806 51.6437C257.91 51.6439 258.02 51.6351 258.134 51.6171C258.252 51.5946 258.341 51.5766 258.401 51.5631L258.405 52.5953C258.305 52.627 258.172 52.6563 258.008 52.6832C257.849 52.7148 257.655 52.7303 257.427 52.7297C257.117 52.729 256.833 52.6668 256.573 52.5431C256.314 52.4195 256.107 52.2139 255.952 51.9264C255.803 51.6344 255.728 51.2423 255.73 50.7501L255.747 43.3947ZM262.184 51.8386L264.257 45.2125L265.611 45.2157L262.624 53.7468C262.555 53.929 262.464 54.1247 262.349 54.3341C262.239 54.548 262.098 54.7505 261.924 54.9415C261.75 55.1325 261.54 55.2869 261.294 55.4048C261.052 55.5273 260.763 55.5882 260.425 55.5874C260.325 55.5871 260.197 55.5732 260.043 55.5454C259.888 55.5177 259.778 55.4947 259.715 55.4763L259.71 54.4509C259.747 54.4556 259.804 54.4602 259.881 54.465C259.963 54.4743 260.02 54.479 260.052 54.4791C260.339 54.4797 260.583 54.4416 260.784 54.3646C260.984 54.2921 261.153 54.1672 261.29 53.9898C261.432 53.8169 261.553 53.578 261.654 53.2729L262.184 51.8386ZM260.689 45.2042L262.596 50.9508L262.921 52.2846L262.011 52.7473L259.308 45.2009L260.689 45.2042ZM268.264 46.6438L268.243 55.4622L266.972 55.4592L266.996 45.219L268.158 45.2217L268.264 46.6438ZM273.242 48.8704L273.242 49.0139C273.24 49.5517 273.175 50.0506 273.047 50.5106C272.918 50.966 272.73 51.362 272.483 51.6987C272.241 52.0354 271.942 52.2967 271.586 52.4827C271.23 52.6687 270.822 52.7612 270.362 52.7601C269.892 52.759 269.478 52.6806 269.118 52.5248C268.758 52.369 268.454 52.1427 268.204 51.8459C267.954 51.5491 267.754 51.1931 267.605 50.778C267.46 50.363 267.361 49.8956 267.307 49.376L267.309 48.6104C267.365 48.0636 267.469 47.5739 267.62 47.1414C267.771 46.7088 267.971 46.3401 268.217 46.0353C268.469 45.726 268.772 45.492 269.128 45.3334C269.484 45.1701 269.894 45.0891 270.359 45.0902C270.824 45.0913 271.236 45.1834 271.596 45.3665C271.955 45.5451 272.258 45.801 272.503 46.1343C272.749 46.4675 272.932 46.8667 273.054 47.3319C273.181 47.7924 273.243 48.3053 273.242 48.8704ZM271.97 49.011L271.97 48.8674C271.971 48.4983 271.933 48.1518 271.857 47.8281C271.78 47.4998 271.66 47.2124 271.496 46.9659C271.337 46.7149 271.133 46.5184 270.883 46.3766C270.632 46.2301 270.334 46.1565 269.988 46.1557C269.669 46.155 269.39 46.209 269.153 46.3178C268.921 46.4266 268.722 46.5743 268.557 46.7607C268.393 46.9427 268.258 47.152 268.153 47.3887C268.052 47.6209 267.976 47.8622 267.925 48.1128L267.921 49.8833C268.012 50.2025 268.138 50.5036 268.302 50.7865C268.465 51.0649 268.683 51.291 268.957 51.4648C269.23 51.6341 269.573 51.7192 269.988 51.7202C270.33 51.721 270.624 51.651 270.87 51.5103C271.121 51.3651 271.327 51.1673 271.487 50.9171C271.652 50.6668 271.773 50.38 271.851 50.0566C271.93 49.7286 271.969 49.3801 271.97 49.011ZM278.165 52.7785C277.65 52.7773 277.183 52.6896 276.765 52.5154C276.35 52.3367 275.993 52.0875 275.693 51.7678C275.398 51.4481 275.171 51.0693 275.012 50.6314C274.854 50.1935 274.775 49.7148 274.776 49.1953L274.777 48.9082C274.778 48.3066 274.869 47.7714 275.047 47.3024C275.226 46.8288 275.469 46.4284 275.775 46.101C276.081 45.7735 276.428 45.526 276.816 45.3583C277.203 45.1906 277.605 45.1072 278.019 45.1082C278.548 45.1094 279.003 45.2016 279.386 45.3848C279.773 45.568 280.089 45.824 280.334 46.1527C280.58 46.4768 280.761 46.8601 280.878 47.3024C280.996 47.7402 281.054 48.2188 281.053 48.7384L281.051 49.3057L275.528 49.2928L275.53 48.2605L279.789 48.2705L279.789 48.1748C279.772 47.8467 279.704 47.5275 279.587 47.2173C279.473 46.9072 279.292 46.6515 279.042 46.4504C278.791 46.2493 278.45 46.1483 278.017 46.1472C277.73 46.1466 277.465 46.2075 277.223 46.3299C276.982 46.4479 276.774 46.6251 276.6 46.8617C276.426 47.0983 276.291 47.3873 276.195 47.7289C276.098 48.0705 276.05 48.4646 276.048 48.9112L276.048 49.1983C276.047 49.5492 276.094 49.8797 276.189 50.1898C276.289 50.4954 276.431 50.7646 276.618 50.9975C276.809 51.2303 277.038 51.4132 277.307 51.546C277.58 51.6788 277.89 51.7456 278.236 51.7464C278.683 51.7474 279.061 51.6572 279.372 51.4756C279.682 51.2941 279.954 51.0509 280.187 50.7461L280.951 51.3563C280.791 51.5975 280.588 51.8271 280.341 52.0453C280.094 52.2635 279.791 52.4405 279.43 52.5764C279.075 52.7122 278.653 52.7796 278.165 52.7785ZM287.081 50.7008C287.082 50.5185 287.041 50.3498 286.96 50.1946C286.882 50.0349 286.721 49.891 286.475 49.7628C286.234 49.6301 285.87 49.5153 285.382 49.4185C284.972 49.3309 284.601 49.2275 284.269 49.1082C283.941 48.989 283.661 48.8448 283.429 48.6756C283.201 48.5064 283.026 48.3078 282.904 48.0796C282.781 47.8515 282.721 47.5847 282.721 47.2794C282.722 46.9877 282.786 46.7122 282.915 46.4527C283.047 46.1932 283.233 45.9635 283.47 45.7636C283.712 45.5636 284.002 45.4071 284.339 45.2939C284.677 45.1808 285.053 45.1247 285.468 45.1257C286.06 45.1271 286.566 45.2331 286.984 45.4437C287.403 45.6543 287.724 45.9354 287.946 46.2868C288.169 46.6337 288.28 47.019 288.279 47.4428L287.014 47.4399C287.014 47.2348 286.953 47.0364 286.831 46.8447C286.713 46.6485 286.538 46.4863 286.305 46.3581C286.078 46.23 285.798 46.1655 285.465 46.1647C285.114 46.1639 284.829 46.2179 284.61 46.3268C284.396 46.4311 284.238 46.5652 284.138 46.729C284.042 46.8928 283.993 47.0659 283.993 47.2482C283.993 47.3849 284.015 47.508 284.06 47.6175C284.11 47.7224 284.197 47.8206 284.319 47.9121C284.442 47.9989 284.615 48.0814 284.838 48.1594C285.061 48.2374 285.346 48.3155 285.692 48.3938C286.298 48.5319 286.797 48.6972 287.188 48.8895C287.58 49.0818 287.871 49.3172 288.062 49.5957C288.252 49.8741 288.347 50.2116 288.346 50.6081C288.346 50.9316 288.276 51.2277 288.139 51.4962C288.006 51.7648 287.812 51.9968 287.556 52.1921C287.305 52.383 287.004 52.5326 286.653 52.6412C286.306 52.7452 285.917 52.7967 285.484 52.7957C284.832 52.7941 284.281 52.6766 283.83 52.4431C283.38 52.2097 283.039 51.9081 282.807 51.5384C282.575 51.1687 282.46 50.7788 282.461 50.3686L283.733 50.3716C283.75 50.718 283.85 50.994 284.031 51.1995C284.213 51.4004 284.436 51.5445 284.7 51.6317C284.964 51.7144 285.226 51.756 285.486 51.7566C285.833 51.7574 286.122 51.7125 286.355 51.6219C286.592 51.5313 286.772 51.4064 286.896 51.2472C287.019 51.088 287.081 50.9059 287.081 50.7008ZM293.322 52.8141C292.807 52.8129 292.34 52.7252 291.921 52.551C291.507 52.3723 291.149 52.1231 290.849 51.8034C290.554 51.4837 290.327 51.1049 290.168 50.667C290.01 50.2291 289.931 49.7504 289.933 49.2309L289.933 48.9438C289.935 48.3422 290.025 47.807 290.204 47.338C290.382 46.8645 290.625 46.464 290.931 46.1366C291.237 45.8092 291.584 45.5616 291.972 45.3939C292.36 45.2262 292.761 45.1428 293.176 45.1438C293.704 45.145 294.16 45.2373 294.542 45.4205C294.929 45.6037 295.245 45.8596 295.49 46.1883C295.736 46.5125 295.917 46.8957 296.035 47.338C296.152 47.7758 296.21 48.2545 296.209 48.774L296.208 49.3414L290.684 49.3284L290.687 48.2962L294.945 48.3062L294.946 48.2105C294.928 47.8823 294.861 47.5631 294.743 47.253C294.63 46.9428 294.448 46.6872 294.198 46.4861C293.948 46.2849 293.606 46.1839 293.173 46.1829C292.886 46.1822 292.622 46.2431 292.38 46.3656C292.138 46.4835 291.93 46.6607 291.756 46.8973C291.583 47.1339 291.448 47.4229 291.351 47.7645C291.255 48.1061 291.206 48.5002 291.205 48.9468L291.204 49.2339C291.203 49.5848 291.25 49.9153 291.345 50.2254C291.445 50.531 291.588 50.8002 291.774 51.0331C291.965 51.266 292.195 51.4488 292.463 51.5816C292.736 51.7144 293.046 51.7812 293.392 51.782C293.839 51.7831 294.217 51.6928 294.528 51.5113C294.838 51.3297 295.11 51.0865 295.343 50.7817L296.107 51.3919C295.947 51.6331 295.744 51.8627 295.497 52.0809C295.251 52.2991 294.947 52.4761 294.587 52.612C294.231 52.7479 293.809 52.8152 293.322 52.8141ZM301.04 45.299L301.038 46.2697L297.039 46.2603L297.041 45.2896L301.04 45.299ZM298.399 43.4949L299.664 43.4979L299.647 50.8602C299.646 51.1108 299.684 51.3001 299.761 51.4279C299.839 51.5556 299.939 51.6402 300.062 51.6815C300.185 51.7228 300.317 51.7436 300.458 51.7439C300.563 51.7442 300.672 51.7353 300.786 51.7174C300.905 51.6949 300.994 51.6768 301.053 51.6633L301.057 52.6955C300.957 52.7272 300.825 52.7565 300.661 52.7835C300.501 52.815 300.307 52.8305 300.079 52.83C299.769 52.8292 299.485 52.767 299.225 52.6434C298.966 52.5197 298.759 52.3142 298.605 52.0267C298.455 51.7347 298.381 51.3426 298.382 50.8504L298.399 43.4949ZM305.871 45.3104L305.868 46.2811L301.869 46.2717L301.871 45.301L305.871 45.3104ZM303.229 43.5063L304.494 43.5093L304.477 50.8716C304.476 51.1222 304.514 51.3114 304.591 51.4392C304.669 51.567 304.769 51.6515 304.892 51.6928C305.015 51.7341 305.147 51.755 305.288 51.7553C305.393 51.7555 305.502 51.7467 305.616 51.7287C305.735 51.7062 305.824 51.6882 305.883 51.6747L305.887 52.7069C305.787 52.7386 305.655 52.7679 305.491 52.7948C305.331 52.8264 305.137 52.8419 304.909 52.8413C304.6 52.8406 304.315 52.7784 304.055 52.6547C303.796 52.5311 303.589 52.3255 303.435 52.038C303.285 51.746 303.211 51.3539 303.212 50.8617L303.229 43.5063ZM308.978 45.3177L308.961 52.7141L307.689 52.7111L307.706 45.3147L308.978 45.3177ZM307.615 43.3525C307.616 43.1475 307.678 42.9744 307.801 42.8334C307.929 42.6925 308.116 42.6223 308.362 42.6228C308.604 42.6234 308.788 42.6945 308.915 42.8361C309.047 42.9776 309.113 43.151 309.112 43.3561C309.112 43.552 309.045 43.7205 308.913 43.8615C308.785 43.9979 308.6 44.0658 308.359 44.0652C308.113 44.0646 307.926 43.9958 307.799 43.8588C307.676 43.7173 307.615 43.5485 307.615 43.3525ZM312.519 46.9051L312.505 52.7225L311.241 52.7195L311.258 45.323L312.454 45.3258L312.519 46.9051ZM312.214 48.7432L311.688 48.7215C311.693 48.2157 311.77 47.7487 311.917 47.3207C312.063 46.8881 312.269 46.5126 312.534 46.1942C312.8 45.8758 313.115 45.6304 313.48 45.4581C313.849 45.2813 314.257 45.1934 314.704 45.1944C315.068 45.1953 315.396 45.2462 315.688 45.3471C315.979 45.4435 316.227 45.599 316.432 45.8137C316.641 46.0284 316.8 46.3068 316.908 46.6488C317.017 46.9863 317.071 47.3989 317.07 47.8865L317.058 52.7332L315.787 52.7302L315.798 47.8698C315.799 47.4825 315.743 47.1724 315.629 46.9397C315.516 46.7025 315.35 46.5312 315.132 46.4259C314.913 46.316 314.644 46.2607 314.325 46.2599C314.011 46.2592 313.724 46.3246 313.464 46.4561C313.208 46.5877 312.987 46.7695 312.799 47.0015C312.616 47.2334 312.472 47.4997 312.367 47.8002C312.266 48.0962 312.215 48.4106 312.214 48.7432ZM324.038 45.3531L325.187 45.3558L325.17 52.595C325.168 53.2467 325.035 53.8024 324.769 54.262C324.504 54.7217 324.134 55.0695 323.66 55.3053C323.19 55.5458 322.647 55.6652 322.032 55.6638C321.777 55.6632 321.476 55.6215 321.13 55.5386C320.788 55.4604 320.451 55.3251 320.119 55.1329C319.791 54.9453 319.516 54.6917 319.294 54.3722L319.958 53.6218C320.267 53.9962 320.59 54.2568 320.927 54.4034C321.269 54.55 321.606 54.6237 321.938 54.6245C322.34 54.6255 322.686 54.5511 322.978 54.4014C323.27 54.2517 323.496 54.0289 323.656 53.733C323.821 53.4418 323.904 53.0819 323.905 52.6535L323.918 46.9797L324.038 45.3531ZM318.937 49.1214L318.937 48.9778C318.938 48.4127 319.006 47.9002 319.139 47.4402C319.277 46.9757 319.471 46.5774 319.723 46.2453C319.979 45.9132 320.287 45.6587 320.647 45.4818C321.008 45.3004 321.414 45.2102 321.865 45.2112C322.33 45.2123 322.735 45.2953 323.081 45.4602C323.432 45.6205 323.727 45.8559 323.968 46.1664C324.214 46.4723 324.406 46.8419 324.547 47.2752C324.687 47.7084 324.784 48.1986 324.837 48.7456L324.836 49.3745C324.784 49.9167 324.685 50.4041 324.538 50.8367C324.396 51.2693 324.201 51.638 323.955 51.9427C323.712 52.2475 323.416 52.4815 323.064 52.6447C322.713 52.8034 322.303 52.8822 321.833 52.8811C321.391 52.8801 320.99 52.7857 320.631 52.598C320.276 52.4103 319.971 52.1476 319.717 51.8097C319.462 51.4719 319.267 51.0749 319.131 50.6189C319 50.1583 318.936 49.6591 318.937 49.1214ZM320.202 48.9808L320.201 49.1243C320.201 49.4935 320.236 49.8399 320.308 50.1636C320.385 50.4874 320.501 50.7725 320.655 51.019C320.814 51.2654 321.016 51.4596 321.262 51.6014C321.508 51.7387 321.802 51.8078 322.143 51.8086C322.563 51.8096 322.909 51.7215 323.183 51.5444C323.457 51.3673 323.674 51.1331 323.834 50.8419C323.999 50.5506 324.127 50.2341 324.219 49.8926L324.223 48.2451C324.173 47.9943 324.097 47.7526 323.992 47.52C323.893 47.2827 323.761 47.0728 323.597 46.8901C323.438 46.7029 323.24 46.5543 323.004 46.4444C322.767 46.3344 322.489 46.2791 322.17 46.2784C321.824 46.2775 321.525 46.3498 321.274 46.495C321.028 46.6357 320.824 46.8312 320.664 47.0815C320.509 47.3272 320.392 47.614 320.314 47.942C320.24 48.2654 320.203 48.6116 320.202 48.9808ZM7.42392 64.6089L7.40654 72.0054L6.13506 72.0024L6.15244 64.6059L7.42392 64.6089ZM6.06135 62.6438C6.06183 62.4387 6.12376 62.2657 6.24714 62.1247C6.37508 61.9837 6.56209 61.9135 6.80818 61.9141C7.04972 61.9147 7.23412 61.9858 7.36139 62.1273C7.49322 62.2689 7.5589 62.4423 7.55842 62.6473C7.55795 62.8433 7.49148 63.0118 7.35898 63.1527C7.23106 63.2891 7.04633 63.3571 6.80479 63.3565C6.5587 63.3559 6.37201 63.2871 6.24473 63.1501C6.12202 63.0085 6.06089 62.8398 6.06135 62.6438ZM10.9651 66.1964L10.9514 72.0137L9.6868 72.0108L9.70419 64.6143L10.9005 64.6171L10.9651 66.1964ZM10.66 68.0345L10.1337 68.0128C10.1394 67.5069 10.2157 67.04 10.3626 66.6119C10.5094 66.1793 10.7154 65.8038 10.9805 65.4855C11.2455 65.1671 11.5606 64.9217 11.9256 64.7494C12.2951 64.5725 12.7032 64.4846 13.1498 64.4857C13.5144 64.4865 13.8424 64.5374 14.1338 64.6384C14.4253 64.7348 14.6733 64.8903 14.8779 65.105C15.087 65.3197 15.2458 65.598 15.3544 65.9401C15.463 66.2776 15.5167 66.6901 15.5156 67.1778L15.5042 72.0244L14.2327 72.0214L14.2441 67.1611C14.245 66.7737 14.1888 66.4637 14.0754 66.231C13.962 65.9938 13.7961 65.8225 13.5776 65.7172C13.3591 65.6073 13.0903 65.5519 12.7713 65.5512C12.4569 65.5505 12.1696 65.6159 11.9095 65.7474C11.654 65.879 11.4326 66.0607 11.2452 66.2927C11.0623 66.5247 10.9182 66.791 10.8126 67.0915C10.7117 67.3875 10.6608 67.7018 10.66 68.0345ZM22.3405 70.6049L22.3618 61.5405L23.6333 61.5435L23.6086 72.0435L22.4465 72.0407L22.3405 70.6049ZM17.3691 68.4126L17.3694 68.269C17.3708 67.7039 17.4403 67.1914 17.5781 66.7314C17.7205 66.2669 17.9197 65.8686 18.1757 65.5366C18.4362 65.2045 18.7444 64.95 19.1003 64.7731C19.4608 64.5917 19.862 64.5015 20.3041 64.5025C20.7689 64.5036 21.1743 64.5866 21.5203 64.7514C21.8708 64.9118 22.1665 65.1472 22.4073 65.4576C22.6527 65.7635 22.8455 66.1331 22.9858 66.5664C23.126 66.9997 23.2229 67.4898 23.2763 68.0368L23.2748 68.6657C23.2234 69.2079 23.1242 69.6953 22.9774 70.1279C22.8351 70.5605 22.6406 70.9292 22.3937 71.234C22.1515 71.5388 21.8547 71.7728 21.5034 71.936C21.1521 72.0947 20.7418 72.1735 20.2724 72.1724C19.8394 72.1713 19.4432 72.077 19.0836 71.8893C18.7286 71.7016 18.4216 71.4388 18.1626 71.101C17.9082 70.7632 17.7109 70.3662 17.5707 69.9101C17.435 69.4495 17.3678 68.9504 17.3691 68.4126ZM18.6409 68.272L18.6406 68.4156C18.6397 68.7847 18.6754 69.1312 18.7475 69.4549C18.8242 69.7786 18.9421 70.0638 19.101 70.3102C19.2599 70.5567 19.4623 70.7509 19.708 70.8927C19.9538 71.03 20.2476 71.0991 20.5894 71.0999C21.0086 71.1008 21.3529 71.0128 21.6222 70.8357C21.8961 70.6586 22.1154 70.4244 22.2801 70.1331C22.4449 69.8418 22.5732 69.5254 22.6652 69.1838L22.669 67.5364C22.6149 67.2856 22.5358 67.0439 22.4315 66.8112C22.3318 66.574 22.2001 66.364 22.0365 66.1814C21.8774 65.9941 21.6795 65.8456 21.4428 65.7356C21.2106 65.6257 20.935 65.5704 20.616 65.5696C20.2697 65.5688 19.971 65.641 19.72 65.7863C19.4736 65.927 19.2703 66.1225 19.1102 66.3727C18.9502 66.6185 18.831 66.9053 18.7527 67.2332C18.6791 67.5566 18.6418 67.9029 18.6409 68.272ZM30.3568 70.3504L30.3701 64.6629L31.6416 64.6659L31.6242 72.0623L30.4143 72.0595L30.3568 70.3504ZM30.5997 68.7923L31.1261 68.7799C31.1249 69.2721 31.0715 69.7277 30.9657 70.1467C30.8644 70.5612 30.6995 70.9208 30.4709 71.2256C30.2424 71.5304 29.9433 71.769 29.5737 71.9413C29.2042 72.109 28.7551 72.1923 28.2265 72.1911C27.8664 72.1902 27.5362 72.137 27.2356 72.0315C26.9397 71.926 26.6848 71.7636 26.4711 71.5443C26.2575 71.3251 26.0918 71.0399 25.9741 70.6887C25.861 70.3375 25.8051 69.9158 25.8062 69.4236L25.8174 64.6522L27.0821 64.6551L27.0708 69.4403C27.07 69.773 27.1059 70.0488 27.1783 70.2677C27.2552 70.4821 27.3574 70.6532 27.4847 70.7811C27.6165 70.9045 27.7622 70.9914 27.9216 71.0419C28.0855 71.0924 28.2541 71.1179 28.4272 71.1183C28.965 71.1195 29.3913 71.018 29.7063 70.8137C30.0212 70.6048 30.2475 70.325 30.385 69.9744C30.5271 69.6193 30.5987 69.2253 30.5997 68.7923ZM38.1132 70.1157C38.1136 69.9334 38.073 69.7646 37.9914 69.6095C37.9143 69.4498 37.7528 69.3059 37.507 69.1777C37.2658 69.045 36.9015 68.9302 36.4141 68.8333C36.0041 68.7458 35.6329 68.6424 35.3005 68.5231C34.9727 68.4038 34.6928 68.2596 34.4607 68.0905C34.2333 67.9213 34.0583 67.7227 33.9358 67.4945C33.8133 67.2663 33.7524 66.9996 33.7531 66.6943C33.7538 66.4026 33.8182 66.127 33.9464 65.8676C34.0792 65.6081 34.2643 65.3784 34.5018 65.1784C34.7438 64.9785 35.0335 64.8219 35.371 64.7088C35.7085 64.5957 36.0846 64.5396 36.4994 64.5406C37.0918 64.5419 37.5974 64.648 38.0162 64.8586C38.435 65.0692 38.7556 65.3502 38.9781 65.7017C39.2006 66.0485 39.3113 66.4339 39.3103 66.8577L38.0457 66.8547C38.0462 66.6497 37.9851 66.4513 37.8625 66.2596C37.7445 66.0633 37.5694 65.9011 37.3373 65.773C37.1097 65.6449 36.8296 65.5804 36.4969 65.5796C36.146 65.5788 35.861 65.6328 35.642 65.7417C35.4276 65.846 35.2701 65.9801 35.1694 66.1439C35.0733 66.3077 35.0251 66.4808 35.0246 66.6631C35.0243 66.7998 35.0468 66.9229 35.0921 67.0324C35.142 67.1373 35.2284 67.2355 35.3512 67.3269C35.474 67.4138 35.647 67.4962 35.8702 67.5742C36.0933 67.6522 36.3779 67.7304 36.7241 67.8087C37.3299 67.9468 37.8285 68.112 38.22 68.3044C38.6115 68.4967 38.9026 68.7321 39.0934 69.0105C39.2841 69.289 39.379 69.6264 39.3781 70.0229C39.3773 70.3465 39.3083 70.6426 39.1709 70.9111C39.0381 71.1797 38.8439 71.4116 38.5882 71.607C38.3371 71.7978 38.036 71.9475 37.6848 72.0561C37.3382 72.1601 36.9485 72.2116 36.5155 72.2105C35.8638 72.209 35.3127 72.0915 34.862 71.858C34.4114 71.6245 34.0703 71.323 33.8388 70.9533C33.6072 70.5836 33.4919 70.1937 33.4929 69.7835L34.7644 69.7865C34.7818 70.1329 34.8814 70.4088 35.0632 70.6143C35.245 70.8153 35.468 70.9594 35.7321 71.0466C35.9962 71.1292 36.2582 71.1709 36.518 71.1715C36.8643 71.1723 37.1538 71.1274 37.3864 71.0368C37.6236 70.9462 37.8039 70.8213 37.9274 70.6621C38.0508 70.5029 38.1127 70.3207 38.1132 70.1157ZM44.3984 64.6958L44.3961 65.6665L40.3971 65.6571L40.3994 64.6864L44.3984 64.6958ZM41.7572 62.8918L43.0218 62.8947L43.0045 70.257C43.0039 70.5077 43.0422 70.6969 43.1194 70.8247C43.1965 70.9525 43.2966 71.037 43.4196 71.0783C43.5425 71.1196 43.6746 71.1404 43.8159 71.1408C43.9207 71.141 44.0301 71.1322 44.1441 71.1142C44.2626 71.0917 44.3515 71.0737 44.4108 71.0601L44.4152 72.0924C44.3149 72.1241 44.1827 72.1534 44.0185 72.1803C43.859 72.2118 43.6652 72.2273 43.4374 72.2268C43.1275 72.2261 42.8428 72.1639 42.5833 72.0402C42.3238 71.9166 42.117 71.711 41.9627 71.4235C41.813 71.1315 41.7387 70.7394 41.7399 70.2472L41.7572 62.8918ZM47.3937 65.865L47.3791 72.0994L46.1144 72.0964L46.1318 64.6999L47.3623 64.7028L47.3937 65.865ZM49.7071 64.6673L49.6975 65.8431C49.5927 65.82 49.4925 65.8061 49.3968 65.8013C49.3057 65.792 49.2009 65.7872 49.0824 65.7869C48.7907 65.7862 48.5331 65.8312 48.3096 65.9218C48.0861 66.0125 47.8967 66.1396 47.7413 66.3033C47.586 66.467 47.4625 66.6627 47.3708 66.8903C47.2837 67.1134 47.2262 67.3594 47.1982 67.6282L46.8422 67.8325C46.8433 67.3858 46.8876 66.9667 46.9751 66.5749C47.0671 66.1832 47.207 65.8372 47.3945 65.5369C47.5821 65.232 47.8196 64.9955 48.1071 64.8276C48.3992 64.6551 48.7457 64.5693 49.1468 64.5703C49.2379 64.5705 49.3427 64.5821 49.4612 64.6052C49.5796 64.6237 49.6616 64.6444 49.7071 64.6673ZM53.3115 71.3477L55.3847 64.7217L56.7382 64.7248L53.7514 73.2559C53.6826 73.4381 53.591 73.6338 53.4766 73.8432C53.3667 74.0571 53.2249 74.2596 53.0513 74.4506C52.8777 74.6416 52.6677 74.796 52.4213 74.9139C52.1795 75.0364 51.89 75.0973 51.5527 75.0965C51.4525 75.0962 51.3249 75.0823 51.17 75.0546C51.0151 75.0269 50.9058 75.0038 50.842 74.9854L50.8376 73.96C50.8741 73.9647 50.931 73.9694 51.0085 73.9741C51.0905 73.9834 51.1474 73.9881 51.1793 73.9882C51.4665 73.9888 51.7104 73.9507 51.9111 73.8737C52.1117 73.8012 52.2807 73.6763 52.4178 73.4989C52.5595 73.326 52.6808 73.0871 52.7818 72.782L53.3115 71.3477ZM51.8164 64.7133L53.7238 70.46L54.0488 71.7937L53.1385 72.2564L50.4355 64.71L51.8164 64.7133Z" fill="black"/>
</svg>
