<svg width="258" height="22" viewBox="0 0 258 22" fill="none" xmlns="http://www.w3.org/2000/svg">
<path d="M0.796875 1.35938H2.80566L7.92969 14.1104L13.043 1.35938H15.0625L8.70312 17H7.13477L0.796875 1.35938ZM0.141602 1.35938H1.91406L2.2041 10.8984V17H0.141602V1.35938ZM13.9346 1.35938H15.707V17H13.6445V10.8984L13.9346 1.35938ZM26.374 14.7441V0.5H28.3721V17H26.5459L26.374 14.7441ZM18.5537 11.3174V11.0918C18.5537 10.2038 18.6611 9.39811 18.876 8.6748C19.098 7.94434 19.4095 7.31771 19.8105 6.79492C20.2188 6.27214 20.7021 5.87109 21.2607 5.5918C21.8265 5.30534 22.4567 5.16211 23.1514 5.16211C23.8818 5.16211 24.5192 5.29102 25.0635 5.54883C25.6149 5.79948 26.0804 6.16829 26.46 6.65527C26.8467 7.13509 27.151 7.71517 27.373 8.39551C27.5951 9.07585 27.749 9.8457 27.835 10.7051V11.6934C27.7562 12.5456 27.6022 13.3118 27.373 13.9922C27.151 14.6725 26.8467 15.2526 26.46 15.7324C26.0804 16.2122 25.6149 16.5811 25.0635 16.8389C24.512 17.0895 23.8675 17.2148 23.1299 17.2148C22.4495 17.2148 21.8265 17.068 21.2607 16.7744C20.7021 16.4808 20.2188 16.069 19.8105 15.5391C19.4095 15.0091 19.098 14.3861 18.876 13.6699C18.6611 12.9466 18.5537 12.1624 18.5537 11.3174ZM20.5518 11.0918V11.3174C20.5518 11.8975 20.609 12.4417 20.7236 12.9502C20.8454 13.4587 21.0316 13.9062 21.2822 14.293C21.5329 14.6797 21.8516 14.984 22.2383 15.2061C22.625 15.4209 23.0869 15.5283 23.624 15.5283C24.2829 15.5283 24.8236 15.3887 25.2461 15.1094C25.6758 14.8301 26.0195 14.4613 26.2773 14.0029C26.5352 13.5446 26.7357 13.0469 26.8789 12.5098V9.9209C26.793 9.52702 26.6676 9.14746 26.5029 8.78223C26.3454 8.40983 26.1377 8.0804 25.8799 7.79395C25.6292 7.50033 25.3177 7.26758 24.9453 7.0957C24.5801 6.92383 24.1468 6.83789 23.6455 6.83789C23.1012 6.83789 22.6322 6.95247 22.2383 7.18164C21.8516 7.40365 21.5329 7.71159 21.2822 8.10547C21.0316 8.49219 20.8454 8.94336 20.7236 9.45898C20.609 9.96745 20.5518 10.5117 20.5518 11.0918ZM31.498 15.9473C31.498 15.6107 31.6019 15.3278 31.8096 15.0986C32.0244 14.8623 32.3324 14.7441 32.7334 14.7441C33.1344 14.7441 33.4388 14.8623 33.6465 15.0986C33.8613 15.3278 33.9688 15.6107 33.9688 15.9473C33.9688 16.2767 33.8613 16.556 33.6465 16.7852C33.4388 17.0143 33.1344 17.1289 32.7334 17.1289C32.3324 17.1289 32.0244 17.0143 31.8096 16.7852C31.6019 16.556 31.498 16.2767 31.498 15.9473ZM43.3467 1.35938V17H41.3057V1.35938H43.3467ZM48.374 1.35938V3.05664H36.2891V1.35938H48.374ZM56.0225 15.0127V9.0293C56.0225 8.57096 55.9294 8.1735 55.7432 7.83691C55.5641 7.49316 55.292 7.22819 54.9268 7.04199C54.5615 6.85579 54.1104 6.7627 53.5732 6.7627C53.0719 6.7627 52.6315 6.84863 52.252 7.02051C51.8796 7.19238 51.5859 7.41797 51.3711 7.69727C51.1634 7.97656 51.0596 8.27734 51.0596 8.59961H49.0723C49.0723 8.18424 49.1797 7.77246 49.3945 7.36426C49.6094 6.95605 49.9173 6.58724 50.3184 6.25781C50.7266 5.92122 51.2135 5.65625 51.7793 5.46289C52.3522 5.26237 52.9896 5.16211 53.6914 5.16211C54.5365 5.16211 55.2812 5.30534 55.9258 5.5918C56.5775 5.87826 57.0859 6.31152 57.4512 6.8916C57.8236 7.46452 58.0098 8.18424 58.0098 9.05078V14.4648C58.0098 14.8516 58.042 15.2633 58.1064 15.7002C58.1781 16.137 58.2819 16.513 58.418 16.8281V17H56.3447C56.2445 16.7708 56.1657 16.4665 56.1084 16.0869C56.0511 15.7002 56.0225 15.3421 56.0225 15.0127ZM56.3662 9.95312L56.3877 11.3496H54.3789C53.8132 11.3496 53.3083 11.3962 52.8643 11.4893C52.4202 11.5752 52.0479 11.7077 51.7471 11.8867C51.4463 12.0658 51.2171 12.2913 51.0596 12.5635C50.902 12.8285 50.8232 13.14 50.8232 13.498C50.8232 13.8633 50.9056 14.1963 51.0703 14.4971C51.235 14.7979 51.4821 15.0378 51.8115 15.2168C52.1481 15.3887 52.5599 15.4746 53.0469 15.4746C53.6556 15.4746 54.1927 15.3457 54.6582 15.0879C55.1237 14.8301 55.4925 14.515 55.7646 14.1426C56.0439 13.7702 56.1943 13.4085 56.2158 13.0576L57.0645 14.0137C57.0143 14.3145 56.8783 14.6475 56.6562 15.0127C56.4342 15.3779 56.137 15.7288 55.7646 16.0654C55.3994 16.3949 54.9626 16.6706 54.4541 16.8926C53.9528 17.1074 53.387 17.2148 52.7568 17.2148C51.9691 17.2148 51.278 17.0609 50.6836 16.7529C50.0964 16.445 49.638 16.0332 49.3086 15.5176C48.9863 14.9948 48.8252 14.4111 48.8252 13.7666C48.8252 13.1436 48.9469 12.5957 49.1904 12.123C49.4339 11.6432 49.7848 11.2458 50.2432 10.9307C50.7015 10.6084 51.2529 10.3649 51.8975 10.2002C52.542 10.0355 53.2617 9.95312 54.0566 9.95312H56.3662ZM63.123 0.5V17H61.1357V0.5H63.123ZM62.6504 10.748L61.8232 10.7158C61.8304 9.9209 61.9486 9.18685 62.1777 8.51367C62.4069 7.83333 62.7292 7.24251 63.1445 6.74121C63.5599 6.23991 64.054 5.85319 64.627 5.58105C65.207 5.30176 65.848 5.16211 66.5498 5.16211C67.1227 5.16211 67.6383 5.24089 68.0967 5.39844C68.555 5.54883 68.9453 5.79232 69.2676 6.12891C69.597 6.46549 69.8477 6.90234 70.0195 7.43945C70.1914 7.9694 70.2773 8.61751 70.2773 9.38379V17H68.2793V9.3623C68.2793 8.75358 68.1898 8.2666 68.0107 7.90137C67.8317 7.52897 67.5703 7.26042 67.2266 7.0957C66.8828 6.92383 66.4603 6.83789 65.959 6.83789C65.4648 6.83789 65.0137 6.94173 64.6055 7.14941C64.2044 7.3571 63.8571 7.64355 63.5635 8.00879C63.277 8.37402 63.0514 8.79297 62.8867 9.26562C62.7292 9.73112 62.6504 10.2253 62.6504 10.748ZM80.0205 13.917C80.0205 13.6305 79.9561 13.3656 79.8271 13.1221C79.7054 12.8714 79.4512 12.6458 79.0645 12.4453C78.6849 12.2376 78.112 12.0586 77.3457 11.9082C76.7012 11.7721 76.1175 11.611 75.5947 11.4248C75.0791 11.2386 74.6387 11.013 74.2734 10.748C73.9154 10.4831 73.6396 10.1715 73.4463 9.81348C73.2529 9.4554 73.1562 9.03646 73.1562 8.55664C73.1562 8.09831 73.2565 7.66504 73.457 7.25684C73.6647 6.84863 73.9548 6.48698 74.3271 6.17188C74.7067 5.85677 75.1615 5.6097 75.6914 5.43066C76.2214 5.25163 76.8122 5.16211 77.4639 5.16211C78.3949 5.16211 79.1898 5.32682 79.8486 5.65625C80.5075 5.98568 81.0124 6.42611 81.3633 6.97754C81.7142 7.52181 81.8896 8.12695 81.8896 8.79297H79.9023C79.9023 8.4707 79.8057 8.15918 79.6123 7.8584C79.4261 7.55046 79.1504 7.29622 78.7852 7.0957C78.4271 6.89518 77.9867 6.79492 77.4639 6.79492C76.9124 6.79492 76.4648 6.88086 76.1211 7.05273C75.7845 7.21745 75.5374 7.42871 75.3799 7.68652C75.2295 7.94434 75.1543 8.21647 75.1543 8.50293C75.1543 8.71777 75.1901 8.91113 75.2617 9.08301C75.3405 9.24772 75.4766 9.40169 75.6699 9.54492C75.8633 9.68099 76.1354 9.8099 76.4863 9.93164C76.8372 10.0534 77.2848 10.1751 77.8291 10.2969C78.7816 10.5117 79.5658 10.7695 80.1816 11.0703C80.7975 11.3711 81.2559 11.7399 81.5566 12.1768C81.8574 12.6136 82.0078 13.1436 82.0078 13.7666C82.0078 14.2751 81.9004 14.7406 81.6855 15.1631C81.4779 15.5856 81.1735 15.9508 80.7725 16.2588C80.3786 16.5596 79.9059 16.7959 79.3545 16.9678C78.8102 17.1325 78.1979 17.2148 77.5176 17.2148C76.4935 17.2148 75.627 17.0322 74.918 16.667C74.209 16.3018 73.6719 15.8291 73.3066 15.249C72.9414 14.6689 72.7588 14.0566 72.7588 13.4121H74.7568C74.7855 13.9564 74.943 14.3896 75.2295 14.7119C75.516 15.027 75.8669 15.2526 76.2822 15.3887C76.6976 15.5176 77.1094 15.582 77.5176 15.582C78.0618 15.582 78.5166 15.5104 78.8818 15.3672C79.2542 15.224 79.5371 15.027 79.7305 14.7764C79.9238 14.5257 80.0205 14.2393 80.0205 13.917ZM86.7773 5.37695V17H84.7793V5.37695H86.7773ZM84.6289 2.29395C84.6289 1.97168 84.7256 1.69954 84.9189 1.47754C85.1195 1.25553 85.4131 1.14453 85.7998 1.14453C86.1794 1.14453 86.4694 1.25553 86.6699 1.47754C86.8776 1.69954 86.9814 1.97168 86.9814 2.29395C86.9814 2.60189 86.8776 2.86686 86.6699 3.08887C86.4694 3.30371 86.1794 3.41113 85.7998 3.41113C85.4131 3.41113 85.1195 3.30371 84.9189 3.08887C84.7256 2.86686 84.6289 2.60189 84.6289 2.29395ZM91.9551 7.8584V17H89.9678V5.37695H91.8477L91.9551 7.8584ZM91.4824 10.748L90.6553 10.7158C90.6624 9.9209 90.7806 9.18685 91.0098 8.51367C91.2389 7.83333 91.5612 7.24251 91.9766 6.74121C92.3919 6.23991 92.8861 5.85319 93.459 5.58105C94.0391 5.30176 94.68 5.16211 95.3818 5.16211C95.9548 5.16211 96.4704 5.24089 96.9287 5.39844C97.387 5.54883 97.7773 5.79232 98.0996 6.12891C98.429 6.46549 98.6797 6.90234 98.8516 7.43945C99.0234 7.9694 99.1094 8.61751 99.1094 9.38379V17H97.1113V9.3623C97.1113 8.75358 97.0218 8.2666 96.8428 7.90137C96.6637 7.52897 96.4023 7.26042 96.0586 7.0957C95.7148 6.92383 95.2923 6.83789 94.791 6.83789C94.2969 6.83789 93.8457 6.94173 93.4375 7.14941C93.0365 7.3571 92.6891 7.64355 92.3955 8.00879C92.109 8.37402 91.8835 8.79297 91.7188 9.26562C91.5612 9.73112 91.4824 10.2253 91.4824 10.748ZM109.239 14.3145V5.37695H111.237V17H109.336L109.239 14.3145ZM109.615 11.8652L110.442 11.8438C110.442 12.6172 110.36 13.3333 110.195 13.9922C110.038 14.6439 109.78 15.2096 109.422 15.6895C109.064 16.1693 108.595 16.5452 108.015 16.8174C107.435 17.0824 106.729 17.2148 105.898 17.2148C105.333 17.2148 104.813 17.1325 104.341 16.9678C103.875 16.8031 103.474 16.5488 103.138 16.2051C102.801 15.8613 102.54 15.4137 102.354 14.8623C102.174 14.3109 102.085 13.6484 102.085 12.875V5.37695H104.072V12.8965C104.072 13.4193 104.13 13.8525 104.244 14.1963C104.366 14.5329 104.527 14.8014 104.728 15.002C104.935 15.1953 105.164 15.3314 105.415 15.4102C105.673 15.4889 105.938 15.5283 106.21 15.5283C107.055 15.5283 107.725 15.3672 108.219 15.0449C108.713 14.7155 109.067 14.2751 109.282 13.7236C109.504 13.165 109.615 12.5456 109.615 11.8652ZM116.426 0.5V17H114.428V0.5H116.426ZM135.59 8.08398V9.77051H127.125V8.08398H135.59ZM127.447 1.35938V17H125.374V1.35938H127.447ZM137.395 1.35938V17H135.332V1.35938H137.395ZM140.252 11.3174V11.0703C140.252 10.2324 140.374 9.4554 140.617 8.73926C140.861 8.01595 141.212 7.38932 141.67 6.85938C142.128 6.32227 142.683 5.9069 143.335 5.61328C143.987 5.3125 144.717 5.16211 145.526 5.16211C146.343 5.16211 147.077 5.3125 147.729 5.61328C148.387 5.9069 148.946 6.32227 149.404 6.85938C149.87 7.38932 150.224 8.01595 150.468 8.73926C150.711 9.4554 150.833 10.2324 150.833 11.0703V11.3174C150.833 12.1553 150.711 12.9323 150.468 13.6484C150.224 14.3646 149.87 14.9912 149.404 15.5283C148.946 16.0583 148.391 16.4736 147.739 16.7744C147.095 17.068 146.364 17.2148 145.548 17.2148C144.731 17.2148 143.997 17.068 143.346 16.7744C142.694 16.4736 142.135 16.0583 141.67 15.5283C141.212 14.9912 140.861 14.3646 140.617 13.6484C140.374 12.9323 140.252 12.1553 140.252 11.3174ZM142.239 11.0703V11.3174C142.239 11.8975 142.307 12.4453 142.443 12.9609C142.579 13.4694 142.784 13.9206 143.056 14.3145C143.335 14.7083 143.682 15.0199 144.098 15.249C144.513 15.471 144.996 15.582 145.548 15.582C146.092 15.582 146.568 15.471 146.977 15.249C147.392 15.0199 147.736 14.7083 148.008 14.3145C148.28 13.9206 148.484 13.4694 148.62 12.9609C148.763 12.4453 148.835 11.8975 148.835 11.3174V11.0703C148.835 10.4974 148.763 9.95671 148.62 9.44824C148.484 8.93262 148.276 8.47786 147.997 8.08398C147.725 7.68294 147.381 7.36784 146.966 7.13867C146.558 6.90951 146.078 6.79492 145.526 6.79492C144.982 6.79492 144.502 6.90951 144.087 7.13867C143.679 7.36784 143.335 7.68294 143.056 8.08398C142.784 8.47786 142.579 8.93262 142.443 9.44824C142.307 9.95671 142.239 10.4974 142.239 11.0703ZM160.641 21.4688V7.61133L160.812 5.37695H162.639V21.4688H160.641ZM152.831 11.3174V11.0918C152.831 10.2038 152.935 9.39811 153.143 8.6748C153.35 7.94434 153.655 7.31771 154.056 6.79492C154.457 6.27214 154.94 5.87109 155.506 5.5918C156.079 5.30534 156.73 5.16211 157.461 5.16211C158.191 5.16211 158.832 5.29102 159.384 5.54883C159.942 5.79948 160.415 6.16829 160.802 6.65527C161.196 7.13509 161.507 7.71517 161.736 8.39551C161.965 9.07585 162.123 9.8457 162.209 10.7051V11.6934C162.13 12.5456 161.976 13.3118 161.747 13.9922C161.518 14.6725 161.206 15.2526 160.812 15.7324C160.426 16.2122 159.95 16.5811 159.384 16.8389C158.825 17.0895 158.177 17.2148 157.439 17.2148C156.723 17.2148 156.079 17.068 155.506 16.7744C154.94 16.4808 154.457 16.069 154.056 15.5391C153.662 15.0091 153.357 14.3861 153.143 13.6699C152.935 12.9466 152.831 12.1624 152.831 11.3174ZM154.829 11.0918V11.3174C154.829 11.8975 154.89 12.4453 155.012 12.9609C155.133 13.4694 155.32 13.9206 155.57 14.3145C155.828 14.7083 156.15 15.0199 156.537 15.249C156.931 15.471 157.396 15.582 157.934 15.582C158.592 15.582 159.14 15.4388 159.577 15.1523C160.021 14.8659 160.376 14.4899 160.641 14.0244C160.906 13.5518 161.11 13.0469 161.253 12.5098V9.9209C161.174 9.52702 161.049 9.14388 160.877 8.77148C160.712 8.39909 160.497 8.06608 160.232 7.77246C159.967 7.47168 159.645 7.23535 159.266 7.06348C158.893 6.88444 158.456 6.79492 157.955 6.79492C157.411 6.79492 156.942 6.90951 156.548 7.13867C156.154 7.36784 155.828 7.68294 155.57 8.08398C155.32 8.47786 155.133 8.93262 155.012 9.44824C154.89 9.96387 154.829 10.5117 154.829 11.0918ZM172.94 14.3145V5.37695H174.938V17H173.037L172.94 14.3145ZM173.316 11.8652L174.144 11.8438C174.144 12.6172 174.061 13.3333 173.896 13.9922C173.739 14.6439 173.481 15.2096 173.123 15.6895C172.765 16.1693 172.296 16.5452 171.716 16.8174C171.136 17.0824 170.43 17.2148 169.6 17.2148C169.034 17.2148 168.515 17.1325 168.042 16.9678C167.576 16.8031 167.175 16.5488 166.839 16.2051C166.502 15.8613 166.241 15.4137 166.055 14.8623C165.876 14.3109 165.786 13.6484 165.786 12.875V5.37695H167.773V12.8965C167.773 13.4193 167.831 13.8525 167.945 14.1963C168.067 14.5329 168.228 14.8014 168.429 15.002C168.636 15.1953 168.866 15.3314 169.116 15.4102C169.374 15.4889 169.639 15.5283 169.911 15.5283C170.756 15.5283 171.426 15.3672 171.92 15.0449C172.414 14.7155 172.769 14.2751 172.983 13.7236C173.205 13.165 173.316 12.5456 173.316 11.8652ZM182.791 17.2148C181.982 17.2148 181.248 17.0788 180.589 16.8066C179.937 16.5273 179.375 16.137 178.902 15.6357C178.437 15.1344 178.079 14.54 177.828 13.8525C177.577 13.165 177.452 12.4131 177.452 11.5967V11.1455C177.452 10.2002 177.592 9.35872 177.871 8.62109C178.15 7.8763 178.53 7.24609 179.01 6.73047C179.49 6.21484 180.034 5.82454 180.643 5.55957C181.251 5.2946 181.882 5.16211 182.533 5.16211C183.364 5.16211 184.08 5.30534 184.682 5.5918C185.29 5.87826 185.788 6.2793 186.175 6.79492C186.562 7.30339 186.848 7.90495 187.034 8.59961C187.22 9.28711 187.313 10.0391 187.313 10.8555V11.7471H178.634V10.125H185.326V9.97461C185.298 9.45898 185.19 8.95768 185.004 8.4707C184.825 7.98372 184.538 7.58268 184.145 7.26758C183.751 6.95247 183.214 6.79492 182.533 6.79492C182.082 6.79492 181.667 6.8916 181.287 7.08496C180.908 7.27116 180.582 7.55046 180.31 7.92285C180.037 8.29525 179.826 8.75 179.676 9.28711C179.525 9.82422 179.45 10.4437 179.45 11.1455V11.5967C179.45 12.1481 179.525 12.6673 179.676 13.1543C179.833 13.6341 180.059 14.0566 180.353 14.4219C180.653 14.7871 181.015 15.0736 181.438 15.2812C181.867 15.4889 182.354 15.5928 182.898 15.5928C183.6 15.5928 184.195 15.4495 184.682 15.1631C185.169 14.8766 185.595 14.4935 185.96 14.0137L187.163 14.9697C186.912 15.3493 186.594 15.7109 186.207 16.0547C185.82 16.3984 185.344 16.6777 184.778 16.8926C184.22 17.1074 183.557 17.2148 182.791 17.2148ZM203.728 13.0469C203.728 12.6816 203.67 12.3594 203.556 12.0801C203.448 11.7936 203.255 11.5358 202.976 11.3066C202.703 11.0775 202.324 10.859 201.837 10.6514C201.357 10.4437 200.748 10.2324 200.011 10.0176C199.237 9.78841 198.539 9.53418 197.916 9.25488C197.293 8.96842 196.759 8.64258 196.315 8.27734C195.871 7.91211 195.531 7.49316 195.295 7.02051C195.059 6.54785 194.94 6.00716 194.94 5.39844C194.94 4.78971 195.066 4.22754 195.316 3.71191C195.567 3.19629 195.925 2.7487 196.391 2.36914C196.863 1.98242 197.425 1.68164 198.077 1.4668C198.729 1.25195 199.456 1.14453 200.258 1.14453C201.432 1.14453 202.428 1.37012 203.244 1.82129C204.068 2.2653 204.694 2.84896 205.124 3.57227C205.554 4.28841 205.769 5.05469 205.769 5.87109H203.706C203.706 5.28385 203.581 4.76465 203.33 4.31348C203.079 3.85514 202.7 3.49707 202.191 3.23926C201.683 2.97428 201.038 2.8418 200.258 2.8418C199.52 2.8418 198.911 2.9528 198.432 3.1748C197.952 3.39681 197.594 3.69759 197.357 4.07715C197.128 4.45671 197.014 4.88997 197.014 5.37695C197.014 5.70638 197.082 6.00716 197.218 6.2793C197.361 6.54427 197.579 6.79134 197.873 7.02051C198.174 7.24967 198.553 7.46094 199.012 7.6543C199.477 7.84766 200.032 8.03385 200.677 8.21289C201.565 8.46354 202.331 8.74284 202.976 9.05078C203.62 9.35872 204.15 9.70605 204.565 10.0928C204.988 10.4723 205.299 10.9056 205.5 11.3926C205.708 11.8724 205.812 12.4167 205.812 13.0254C205.812 13.6628 205.683 14.2393 205.425 14.7549C205.167 15.2705 204.798 15.7109 204.318 16.0762C203.839 16.4414 203.262 16.7243 202.589 16.9248C201.923 17.1182 201.178 17.2148 200.354 17.2148C199.631 17.2148 198.919 17.1146 198.217 16.9141C197.522 16.7135 196.888 16.4128 196.315 16.0117C195.75 15.6107 195.295 15.1165 194.951 14.5293C194.615 13.9349 194.446 13.2474 194.446 12.4668H196.509C196.509 13.0039 196.613 13.4658 196.82 13.8525C197.028 14.2321 197.311 14.5472 197.669 14.7979C198.034 15.0485 198.446 15.2347 198.904 15.3564C199.37 15.471 199.853 15.5283 200.354 15.5283C201.078 15.5283 201.69 15.4281 202.191 15.2275C202.693 15.027 203.072 14.7406 203.33 14.3682C203.595 13.9958 203.728 13.5553 203.728 13.0469ZM210.312 5.37695V17H208.314V5.37695H210.312ZM208.164 2.29395C208.164 1.97168 208.261 1.69954 208.454 1.47754C208.655 1.25553 208.948 1.14453 209.335 1.14453C209.715 1.14453 210.005 1.25553 210.205 1.47754C210.413 1.69954 210.517 1.97168 210.517 2.29395C210.517 2.60189 210.413 2.86686 210.205 3.08887C210.005 3.30371 209.715 3.41113 209.335 3.41113C208.948 3.41113 208.655 3.30371 208.454 3.08887C208.261 2.86686 208.164 2.60189 208.164 2.29395ZM220.829 14.7441V0.5H222.827V17H221.001L220.829 14.7441ZM213.009 11.3174V11.0918C213.009 10.2038 213.116 9.39811 213.331 8.6748C213.553 7.94434 213.865 7.31771 214.266 6.79492C214.674 6.27214 215.157 5.87109 215.716 5.5918C216.282 5.30534 216.912 5.16211 217.606 5.16211C218.337 5.16211 218.974 5.29102 219.519 5.54883C220.07 5.79948 220.535 6.16829 220.915 6.65527C221.302 7.13509 221.606 7.71517 221.828 8.39551C222.05 9.07585 222.204 9.8457 222.29 10.7051V11.6934C222.211 12.5456 222.057 13.3118 221.828 13.9922C221.606 14.6725 221.302 15.2526 220.915 15.7324C220.535 16.2122 220.07 16.5811 219.519 16.8389C218.967 17.0895 218.323 17.2148 217.585 17.2148C216.905 17.2148 216.282 17.068 215.716 16.7744C215.157 16.4808 214.674 16.069 214.266 15.5391C213.865 15.0091 213.553 14.3861 213.331 13.6699C213.116 12.9466 213.009 12.1624 213.009 11.3174ZM215.007 11.0918V11.3174C215.007 11.8975 215.064 12.4417 215.179 12.9502C215.3 13.4587 215.487 13.9062 215.737 14.293C215.988 14.6797 216.307 14.984 216.693 15.2061C217.08 15.4209 217.542 15.5283 218.079 15.5283C218.738 15.5283 219.279 15.3887 219.701 15.1094C220.131 14.8301 220.475 14.4613 220.732 14.0029C220.99 13.5446 221.191 13.0469 221.334 12.5098V9.9209C221.248 9.52702 221.123 9.14746 220.958 8.78223C220.8 8.40983 220.593 8.0804 220.335 7.79395C220.084 7.50033 219.773 7.26758 219.4 7.0957C219.035 6.92383 218.602 6.83789 218.101 6.83789C217.556 6.83789 217.087 6.95247 216.693 7.18164C216.307 7.40365 215.988 7.71159 215.737 8.10547C215.487 8.49219 215.3 8.94336 215.179 9.45898C215.064 9.96745 215.007 10.5117 215.007 11.0918ZM233.247 14.7441V0.5H235.245V17H233.419L233.247 14.7441ZM225.427 11.3174V11.0918C225.427 10.2038 225.534 9.39811 225.749 8.6748C225.971 7.94434 226.283 7.31771 226.684 6.79492C227.092 6.27214 227.575 5.87109 228.134 5.5918C228.7 5.30534 229.33 5.16211 230.024 5.16211C230.755 5.16211 231.392 5.29102 231.937 5.54883C232.488 5.79948 232.953 6.16829 233.333 6.65527C233.72 7.13509 234.024 7.71517 234.246 8.39551C234.468 9.07585 234.622 9.8457 234.708 10.7051V11.6934C234.629 12.5456 234.475 13.3118 234.246 13.9922C234.024 14.6725 233.72 15.2526 233.333 15.7324C232.953 16.2122 232.488 16.5811 231.937 16.8389C231.385 17.0895 230.741 17.2148 230.003 17.2148C229.323 17.2148 228.7 17.068 228.134 16.7744C227.575 16.4808 227.092 16.069 226.684 15.5391C226.283 15.0091 225.971 14.3861 225.749 13.6699C225.534 12.9466 225.427 12.1624 225.427 11.3174ZM227.425 11.0918V11.3174C227.425 11.8975 227.482 12.4417 227.597 12.9502C227.718 13.4587 227.905 13.9062 228.155 14.293C228.406 14.6797 228.725 14.984 229.111 15.2061C229.498 15.4209 229.96 15.5283 230.497 15.5283C231.156 15.5283 231.697 15.3887 232.119 15.1094C232.549 14.8301 232.893 14.4613 233.15 14.0029C233.408 13.5446 233.609 13.0469 233.752 12.5098V9.9209C233.666 9.52702 233.541 9.14746 233.376 8.78223C233.218 8.40983 233.011 8.0804 232.753 7.79395C232.502 7.50033 232.191 7.26758 231.818 7.0957C231.453 6.92383 231.02 6.83789 230.519 6.83789C229.974 6.83789 229.505 6.95247 229.111 7.18164C228.725 7.40365 228.406 7.71159 228.155 8.10547C227.905 8.49219 227.718 8.94336 227.597 9.45898C227.482 9.96745 227.425 10.5117 227.425 11.0918ZM240.498 5.37695V17H238.5V5.37695H240.498ZM238.35 2.29395C238.35 1.97168 238.446 1.69954 238.64 1.47754C238.84 1.25553 239.134 1.14453 239.521 1.14453C239.9 1.14453 240.19 1.25553 240.391 1.47754C240.598 1.69954 240.702 1.97168 240.702 2.29395C240.702 2.60189 240.598 2.86686 240.391 3.08887C240.19 3.30371 239.9 3.41113 239.521 3.41113C239.134 3.41113 238.84 3.30371 238.64 3.08887C238.446 2.86686 238.35 2.60189 238.35 2.29395ZM245.687 0.5V17H243.688V0.5H245.687ZM252.787 5.37695L247.717 10.8018L244.881 13.7451L244.72 11.6289L246.75 9.20117L250.359 5.37695H252.787ZM250.972 17L246.825 11.457L247.856 9.68457L253.313 17H250.972ZM256.998 5.37695V17H255V5.37695H256.998ZM254.85 2.29395C254.85 1.97168 254.946 1.69954 255.14 1.47754C255.34 1.25553 255.634 1.14453 256.021 1.14453C256.4 1.14453 256.69 1.25553 256.891 1.47754C257.098 1.69954 257.202 1.97168 257.202 2.29395C257.202 2.60189 257.098 2.86686 256.891 3.08887C256.69 3.30371 256.4 3.41113 256.021 3.41113C255.634 3.41113 255.34 3.30371 255.14 3.08887C254.946 2.86686 254.85 2.60189 254.85 2.29395Z" fill="black"/>
</svg>
