<svg width="385" height="72" viewBox="0 0 385 72" fill="none" xmlns="http://www.w3.org/2000/svg">
<rect width="390" height="72" fill="#FEF7FF"/>
<g clip-path="url(#clip0_1_3954)">
<path d="M19 42V40H37V42H19ZM19 37V35H37V37H19ZM19 32V30H37V32H19Z" fill="#1D1B20"/>
</g>
<path d="M185.085 42H181.819L181.841 40.3135H185.085C186.202 40.3135 187.133 40.0807 187.878 39.6152C188.623 39.1426 189.181 38.4837 189.554 37.6387C189.933 36.7865 190.123 35.791 190.123 34.6523V33.6963C190.123 32.8011 190.016 32.0062 189.801 31.3115C189.586 30.6097 189.271 30.0189 188.855 29.5391C188.44 29.0521 187.932 28.6833 187.33 28.4326C186.736 28.182 186.052 28.0566 185.278 28.0566H181.755V26.3594H185.278C186.302 26.3594 187.237 26.5312 188.082 26.875C188.927 27.2116 189.654 27.7021 190.263 28.3467C190.879 28.984 191.351 29.7575 191.681 30.667C192.01 31.5693 192.175 32.5863 192.175 33.7178V34.6523C192.175 35.7839 192.01 36.8044 191.681 37.7139C191.351 38.6162 190.875 39.3861 190.252 40.0234C189.636 40.6608 188.891 41.1514 188.018 41.4951C187.151 41.8317 186.174 42 185.085 42ZM182.926 26.3594V42H180.853V26.3594H182.926ZM197.148 30.377V42H195.15V30.377H197.148ZM195 27.2939C195 26.9717 195.097 26.6995 195.29 26.4775C195.491 26.2555 195.784 26.1445 196.171 26.1445C196.55 26.1445 196.84 26.2555 197.041 26.4775C197.249 26.6995 197.353 26.9717 197.353 27.2939C197.353 27.6019 197.249 27.8669 197.041 28.0889C196.84 28.3037 196.55 28.4111 196.171 28.4111C195.784 28.4111 195.491 28.3037 195.29 28.0889C195.097 27.8669 195 27.6019 195 27.2939ZM207.45 39.3145V30.377H209.448V42H207.547L207.45 39.3145ZM207.826 36.8652L208.653 36.8438C208.653 37.6172 208.571 38.3333 208.406 38.9922C208.249 39.6439 207.991 40.2096 207.633 40.6895C207.275 41.1693 206.806 41.5452 206.226 41.8174C205.646 42.0824 204.94 42.2148 204.109 42.2148C203.544 42.2148 203.024 42.1325 202.552 41.9678C202.086 41.8031 201.685 41.5488 201.349 41.2051C201.012 40.8613 200.751 40.4137 200.564 39.8623C200.385 39.3109 200.296 38.6484 200.296 37.875V30.377H202.283V37.8965C202.283 38.4193 202.34 38.8525 202.455 39.1963C202.577 39.5329 202.738 39.8014 202.938 40.002C203.146 40.1953 203.375 40.3314 203.626 40.4102C203.884 40.4889 204.149 40.5283 204.421 40.5283C205.266 40.5283 205.936 40.3672 206.43 40.0449C206.924 39.7155 207.278 39.2751 207.493 38.7236C207.715 38.165 207.826 37.5456 207.826 36.8652Z" fill="#1D1B20"/>
<g clip-path="url(#clip1_1_3954)">
<path d="M355.85 41.1C356.7 40.45 357.65 39.9375 358.7 39.5625C359.75 39.1875 360.85 39 362 39C363.15 39 364.25 39.1875 365.3 39.5625C366.35 39.9375 367.3 40.45 368.15 41.1C368.733 40.4167 369.188 39.6417 369.513 38.775C369.838 37.9083 370 36.9833 370 36C370 33.7833 369.221 31.8958 367.663 30.3375C366.104 28.7792 364.217 28 362 28C359.783 28 357.896 28.7792 356.338 30.3375C354.779 31.8958 354 33.7833 354 36C354 36.9833 354.162 37.9083 354.487 38.775C354.812 39.6417 355.267 40.4167 355.85 41.1ZM362 37C361.017 37 360.188 36.6625 359.513 35.9875C358.838 35.3125 358.5 34.4833 358.5 33.5C358.5 32.5167 358.838 31.6875 359.513 31.0125C360.188 30.3375 361.017 30 362 30C362.983 30 363.812 30.3375 364.488 31.0125C365.163 31.6875 365.5 32.5167 365.5 33.5C365.5 34.4833 365.163 35.3125 364.488 35.9875C363.812 36.6625 362.983 37 362 37ZM362 46C360.617 46 359.317 45.7375 358.1 45.2125C356.883 44.6875 355.825 43.975 354.925 43.075C354.025 42.175 353.312 41.1167 352.788 39.9C352.262 38.6833 352 37.3833 352 36C352 34.6167 352.262 33.3167 352.788 32.1C353.312 30.8833 354.025 29.825 354.925 28.925C355.825 28.025 356.883 27.3125 358.1 26.7875C359.317 26.2625 360.617 26 362 26C363.383 26 364.683 26.2625 365.9 26.7875C367.117 27.3125 368.175 28.025 369.075 28.925C369.975 29.825 370.688 30.8833 371.212 32.1C371.737 33.3167 372 34.6167 372 36C372 37.3833 371.737 38.6833 371.212 39.9C370.688 41.1167 369.975 42.175 369.075 43.075C368.175 43.975 367.117 44.6875 365.9 45.2125C364.683 45.7375 363.383 46 362 46Z" fill="#49454F"/>
</g>
<defs>
<clipPath id="clip0_1_3954">
<rect x="8" y="16" width="40" height="40" rx="20" fill="white"/>
</clipPath>
<clipPath id="clip1_1_3954">
<rect x="342" y="16" width="40" height="40" rx="20" fill="white"/>
</clipPath>
</defs>
</svg>
