<svg width="390" height="72" viewBox="0 0 390 72" fill="none" xmlns="http://www.w3.org/2000/svg">
<rect width="390" height="72" fill="#FEF7FF"/>
<rect width="390" height="72" stroke="#02542D"/>
<g clip-path="url(#clip0_1_220)">
<path d="M19 42V40H37V42H19ZM19 37V35H37V37H19ZM19 32V30H37V32H19Z" fill="#1D1B20"/>
</g>
<path d="M173.312 27.7451L168.134 42H166.018L171.979 26.3594H173.344L173.312 27.7451ZM177.651 42L172.463 27.7451L172.431 26.3594H173.795L179.778 42H177.651ZM177.383 36.21V37.9072H168.596V36.21H177.383ZM181.562 25.5H183.56V39.7441L183.388 42H181.562V25.5ZM191.412 36.0918V36.3174C191.412 37.1624 191.312 37.9466 191.111 38.6699C190.911 39.3861 190.617 40.0091 190.23 40.5391C189.844 41.069 189.371 41.4808 188.812 41.7744C188.254 42.068 187.613 42.2148 186.89 42.2148C186.152 42.2148 185.504 42.0895 184.945 41.8389C184.394 41.5811 183.928 41.2122 183.549 40.7324C183.169 40.2526 182.865 39.6725 182.636 38.9922C182.414 38.3118 182.26 37.5456 182.174 36.6934V35.7051C182.26 34.8457 182.414 34.0758 182.636 33.3955C182.865 32.7152 183.169 32.1351 183.549 31.6553C183.928 31.1683 184.394 30.7995 184.945 30.5488C185.497 30.291 186.138 30.1621 186.868 30.1621C187.599 30.1621 188.247 30.3053 188.812 30.5918C189.378 30.8711 189.851 31.2721 190.23 31.7949C190.617 32.3177 190.911 32.9443 191.111 33.6748C191.312 34.3981 191.412 35.2038 191.412 36.0918ZM189.414 36.3174V36.0918C189.414 35.5117 189.36 34.9674 189.253 34.459C189.146 33.9434 188.974 33.4922 188.737 33.1055C188.501 32.7116 188.189 32.4036 187.803 32.1816C187.416 31.9525 186.94 31.8379 186.374 31.8379C185.873 31.8379 185.436 31.9238 185.063 32.0957C184.698 32.2676 184.387 32.5003 184.129 32.7939C183.871 33.0804 183.66 33.4098 183.495 33.7822C183.338 34.1475 183.219 34.527 183.141 34.9209V37.5098C183.255 38.0111 183.441 38.4945 183.699 38.96C183.964 39.4183 184.315 39.7943 184.752 40.0879C185.196 40.3815 185.744 40.5283 186.396 40.5283C186.933 40.5283 187.391 40.4209 187.771 40.2061C188.157 39.984 188.469 39.6797 188.705 39.293C188.949 38.9062 189.128 38.4587 189.242 37.9502C189.357 37.4417 189.414 36.8975 189.414 36.3174ZM193.399 36.3174V36.0703C193.399 35.2324 193.521 34.4554 193.765 33.7393C194.008 33.016 194.359 32.3893 194.817 31.8594C195.276 31.3223 195.831 30.9069 196.482 30.6133C197.134 30.3125 197.865 30.1621 198.674 30.1621C199.49 30.1621 200.224 30.3125 200.876 30.6133C201.535 30.9069 202.093 31.3223 202.552 31.8594C203.017 32.3893 203.372 33.016 203.615 33.7393C203.859 34.4554 203.98 35.2324 203.98 36.0703V36.3174C203.98 37.1553 203.859 37.9323 203.615 38.6484C203.372 39.3646 203.017 39.9912 202.552 40.5283C202.093 41.0583 201.538 41.4736 200.887 41.7744C200.242 42.068 199.512 42.2148 198.695 42.2148C197.879 42.2148 197.145 42.068 196.493 41.7744C195.841 41.4736 195.283 41.0583 194.817 40.5283C194.359 39.9912 194.008 39.3646 193.765 38.6484C193.521 37.9323 193.399 37.1553 193.399 36.3174ZM195.387 36.0703V36.3174C195.387 36.8975 195.455 37.4453 195.591 37.9609C195.727 38.4694 195.931 38.9206 196.203 39.3145C196.482 39.7083 196.83 40.0199 197.245 40.249C197.66 40.471 198.144 40.582 198.695 40.582C199.24 40.582 199.716 40.471 200.124 40.249C200.539 40.0199 200.883 39.7083 201.155 39.3145C201.427 38.9206 201.632 38.4694 201.768 37.9609C201.911 37.4453 201.982 36.8975 201.982 36.3174V36.0703C201.982 35.4974 201.911 34.9567 201.768 34.4482C201.632 33.9326 201.424 33.4779 201.145 33.084C200.872 32.6829 200.529 32.3678 200.113 32.1387C199.705 31.9095 199.225 31.7949 198.674 31.7949C198.13 31.7949 197.65 31.9095 197.234 32.1387C196.826 32.3678 196.482 32.6829 196.203 33.084C195.931 33.4779 195.727 33.9326 195.591 34.4482C195.455 34.9567 195.387 35.4974 195.387 36.0703ZM213.584 39.3145V30.377H215.582V42H213.681L213.584 39.3145ZM213.96 36.8652L214.787 36.8438C214.787 37.6172 214.705 38.3333 214.54 38.9922C214.382 39.6439 214.125 40.2096 213.767 40.6895C213.409 41.1693 212.939 41.5452 212.359 41.8174C211.779 42.0824 211.074 42.2148 210.243 42.2148C209.677 42.2148 209.158 42.1325 208.686 41.9678C208.22 41.8031 207.819 41.5488 207.482 41.2051C207.146 40.8613 206.884 40.4137 206.698 39.8623C206.519 39.3109 206.43 38.6484 206.43 37.875V30.377H208.417V37.8965C208.417 38.4193 208.474 38.8525 208.589 39.1963C208.711 39.5329 208.872 39.8014 209.072 40.002C209.28 40.1953 209.509 40.3314 209.76 40.4102C210.018 40.4889 210.283 40.5283 210.555 40.5283C211.4 40.5283 212.069 40.3672 212.563 40.0449C213.058 39.7155 213.412 39.2751 213.627 38.7236C213.849 38.165 213.96 37.5456 213.96 36.8652ZM223.478 30.377V31.9023H217.193V30.377H223.478ZM219.32 27.5518H221.308V39.1211C221.308 39.515 221.368 39.8122 221.49 40.0127C221.612 40.2132 221.77 40.3457 221.963 40.4102C222.156 40.4746 222.364 40.5068 222.586 40.5068C222.751 40.5068 222.923 40.4925 223.102 40.4639C223.288 40.4281 223.427 40.3994 223.521 40.3779L223.531 42C223.374 42.0501 223.166 42.0967 222.908 42.1396C222.658 42.1898 222.353 42.2148 221.995 42.2148C221.508 42.2148 221.061 42.1182 220.652 41.9248C220.244 41.7314 219.918 41.4092 219.675 40.958C219.438 40.4997 219.32 39.8838 219.32 39.1104V27.5518Z" fill="#1D1B20"/>
<g clip-path="url(#clip1_1_220)">
<path d="M355.85 41.1C356.7 40.45 357.65 39.9375 358.7 39.5625C359.75 39.1875 360.85 39 362 39C363.15 39 364.25 39.1875 365.3 39.5625C366.35 39.9375 367.3 40.45 368.15 41.1C368.733 40.4167 369.188 39.6417 369.513 38.775C369.838 37.9083 370 36.9833 370 36C370 33.7833 369.221 31.8958 367.663 30.3375C366.104 28.7792 364.217 28 362 28C359.783 28 357.896 28.7792 356.338 30.3375C354.779 31.8958 354 33.7833 354 36C354 36.9833 354.162 37.9083 354.487 38.775C354.812 39.6417 355.267 40.4167 355.85 41.1ZM362 37C361.017 37 360.188 36.6625 359.513 35.9875C358.838 35.3125 358.5 34.4833 358.5 33.5C358.5 32.5167 358.838 31.6875 359.513 31.0125C360.188 30.3375 361.017 30 362 30C362.983 30 363.812 30.3375 364.488 31.0125C365.163 31.6875 365.5 32.5167 365.5 33.5C365.5 34.4833 365.163 35.3125 364.488 35.9875C363.812 36.6625 362.983 37 362 37ZM362 46C360.617 46 359.317 45.7375 358.1 45.2125C356.883 44.6875 355.825 43.975 354.925 43.075C354.025 42.175 353.312 41.1167 352.788 39.9C352.262 38.6833 352 37.3833 352 36C352 34.6167 352.262 33.3167 352.788 32.1C353.312 30.8833 354.025 29.825 354.925 28.925C355.825 28.025 356.883 27.3125 358.1 26.7875C359.317 26.2625 360.617 26 362 26C363.383 26 364.683 26.2625 365.9 26.7875C367.117 27.3125 368.175 28.025 369.075 28.925C369.975 29.825 370.688 30.8833 371.212 32.1C371.737 33.3167 372 34.6167 372 36C372 37.3833 371.737 38.6833 371.212 39.9C370.688 41.1167 369.975 42.175 369.075 43.075C368.175 43.975 367.117 44.6875 365.9 45.2125C364.683 45.7375 363.383 46 362 46Z" fill="#49454F"/>
</g>
<defs>
<clipPath id="clip0_1_220">
<rect x="8" y="16" width="40" height="40" rx="20" fill="white"/>
</clipPath>
<clipPath id="clip1_1_220">
<rect x="342" y="16" width="40" height="40" rx="20" fill="white"/>
</clipPath>
</defs>
</svg>
