<svg width="390" height="72" viewBox="0 0 390 72" fill="none" xmlns="http://www.w3.org/2000/svg">
<rect width="390" height="72" fill="#FEF7FF"/>
<g clip-path="url(#clip0_1_4507)">
<path d="M19 42V40H37V42H19ZM19 37V35H37V37H19ZM19 32V30H37V32H19Z" fill="#1D1B20"/>
</g>
<path d="M172.484 26.3594V42H170.411V26.3594H172.484ZM180.605 40.582C181.078 40.582 181.515 40.4854 181.916 40.292C182.317 40.0986 182.646 39.8337 182.904 39.4971C183.162 39.1533 183.309 38.763 183.345 38.3262H185.235C185.2 39.0137 184.967 39.6546 184.537 40.249C184.115 40.8363 183.56 41.3125 182.872 41.6777C182.185 42.0358 181.429 42.2148 180.605 42.2148C179.732 42.2148 178.969 42.0609 178.317 41.7529C177.673 41.445 177.136 41.0225 176.706 40.4854C176.284 39.9482 175.965 39.3324 175.75 38.6377C175.542 37.9359 175.438 37.1947 175.438 36.4141V35.9629C175.438 35.1823 175.542 34.4447 175.75 33.75C175.965 33.0482 176.284 32.4287 176.706 31.8916C177.136 31.3545 177.673 30.932 178.317 30.624C178.969 30.3161 179.732 30.1621 180.605 30.1621C181.515 30.1621 182.31 30.3483 182.99 30.7207C183.671 31.0859 184.204 31.5872 184.591 32.2246C184.985 32.8548 185.2 33.571 185.235 34.373H183.345C183.309 33.8932 183.173 33.46 182.937 33.0732C182.707 32.6865 182.392 32.3786 181.991 32.1494C181.597 31.9131 181.135 31.7949 180.605 31.7949C179.997 31.7949 179.485 31.9167 179.069 32.1602C178.661 32.3965 178.335 32.7188 178.092 33.127C177.855 33.528 177.684 33.9756 177.576 34.4697C177.476 34.9567 177.426 35.4544 177.426 35.9629V36.4141C177.426 36.9225 177.476 37.4238 177.576 37.918C177.676 38.4121 177.845 38.8597 178.081 39.2607C178.325 39.6618 178.65 39.984 179.059 40.2275C179.474 40.4639 179.99 40.582 180.605 40.582ZM192.121 40.582C192.594 40.582 193.031 40.4854 193.432 40.292C193.833 40.0986 194.162 39.8337 194.42 39.4971C194.678 39.1533 194.825 38.763 194.86 38.3262H196.751C196.715 39.0137 196.482 39.6546 196.053 40.249C195.63 40.8363 195.075 41.3125 194.388 41.6777C193.7 42.0358 192.945 42.2148 192.121 42.2148C191.247 42.2148 190.485 42.0609 189.833 41.7529C189.188 41.445 188.651 41.0225 188.222 40.4854C187.799 39.9482 187.48 39.3324 187.266 38.6377C187.058 37.9359 186.954 37.1947 186.954 36.4141V35.9629C186.954 35.1823 187.058 34.4447 187.266 33.75C187.48 33.0482 187.799 32.4287 188.222 31.8916C188.651 31.3545 189.188 30.932 189.833 30.624C190.485 30.3161 191.247 30.1621 192.121 30.1621C193.031 30.1621 193.826 30.3483 194.506 30.7207C195.186 31.0859 195.72 31.5872 196.106 32.2246C196.5 32.8548 196.715 33.571 196.751 34.373H194.86C194.825 33.8932 194.688 33.46 194.452 33.0732C194.223 32.6865 193.908 32.3786 193.507 32.1494C193.113 31.9131 192.651 31.7949 192.121 31.7949C191.512 31.7949 191 31.9167 190.585 32.1602C190.177 32.3965 189.851 32.7188 189.607 33.127C189.371 33.528 189.199 33.9756 189.092 34.4697C188.992 34.9567 188.941 35.4544 188.941 35.9629V36.4141C188.941 36.9225 188.992 37.4238 189.092 37.918C189.192 38.4121 189.36 38.8597 189.597 39.2607C189.84 39.6618 190.166 39.984 190.574 40.2275C190.99 40.4639 191.505 40.582 192.121 40.582ZM200.973 25.5V42H198.985V25.5H200.973ZM200.5 35.748L199.673 35.7158C199.68 34.9209 199.798 34.1868 200.027 33.5137C200.257 32.8333 200.579 32.2425 200.994 31.7412C201.41 31.2399 201.904 30.8532 202.477 30.5811C203.057 30.3018 203.698 30.1621 204.399 30.1621C204.972 30.1621 205.488 30.2409 205.946 30.3984C206.405 30.5488 206.795 30.7923 207.117 31.1289C207.447 31.4655 207.697 31.9023 207.869 32.4395C208.041 32.9694 208.127 33.6175 208.127 34.3838V42H206.129V34.3623C206.129 33.7536 206.039 33.2666 205.86 32.9014C205.681 32.529 205.42 32.2604 205.076 32.0957C204.732 31.9238 204.31 31.8379 203.809 31.8379C203.314 31.8379 202.863 31.9417 202.455 32.1494C202.054 32.3571 201.707 32.6436 201.413 33.0088C201.127 33.374 200.901 33.793 200.736 34.2656C200.579 34.7311 200.5 35.2253 200.5 35.748ZM217.956 40.0127V34.0293C217.956 33.571 217.863 33.1735 217.677 32.8369C217.498 32.4932 217.226 32.2282 216.86 32.042C216.495 31.8558 216.044 31.7627 215.507 31.7627C215.006 31.7627 214.565 31.8486 214.186 32.0205C213.813 32.1924 213.52 32.418 213.305 32.6973C213.097 32.9766 212.993 33.2773 212.993 33.5996H211.006C211.006 33.1842 211.113 32.7725 211.328 32.3643C211.543 31.9561 211.851 31.5872 212.252 31.2578C212.66 30.9212 213.147 30.6562 213.713 30.4629C214.286 30.2624 214.923 30.1621 215.625 30.1621C216.47 30.1621 217.215 30.3053 217.859 30.5918C218.511 30.8783 219.02 31.3115 219.385 31.8916C219.757 32.4645 219.943 33.1842 219.943 34.0508V39.4648C219.943 39.8516 219.976 40.2633 220.04 40.7002C220.112 41.137 220.215 41.513 220.352 41.8281V42H218.278C218.178 41.7708 218.099 41.4665 218.042 41.0869C217.985 40.7002 217.956 40.3421 217.956 40.0127ZM218.3 34.9531L218.321 36.3496H216.312C215.747 36.3496 215.242 36.3962 214.798 36.4893C214.354 36.5752 213.981 36.7077 213.681 36.8867C213.38 37.0658 213.151 37.2913 212.993 37.5635C212.836 37.8285 212.757 38.14 212.757 38.498C212.757 38.8633 212.839 39.1963 213.004 39.4971C213.169 39.7979 213.416 40.0378 213.745 40.2168C214.082 40.3887 214.493 40.4746 214.98 40.4746C215.589 40.4746 216.126 40.3457 216.592 40.0879C217.057 39.8301 217.426 39.515 217.698 39.1426C217.978 38.7702 218.128 38.4085 218.149 38.0576L218.998 39.0137C218.948 39.3145 218.812 39.6475 218.59 40.0127C218.368 40.3779 218.071 40.7288 217.698 41.0654C217.333 41.3949 216.896 41.6706 216.388 41.8926C215.886 42.1074 215.321 42.2148 214.69 42.2148C213.903 42.2148 213.212 42.0609 212.617 41.7529C212.03 41.445 211.572 41.0332 211.242 40.5176C210.92 39.9948 210.759 39.4111 210.759 38.7666C210.759 38.1436 210.881 37.5957 211.124 37.123C211.368 36.6432 211.718 36.2458 212.177 35.9307C212.635 35.6084 213.187 35.3649 213.831 35.2002C214.476 35.0355 215.195 34.9531 215.99 34.9531H218.3Z" fill="#1D1B20"/>
<g clip-path="url(#clip1_1_4507)">
<path d="M355.85 41.1C356.7 40.45 357.65 39.9375 358.7 39.5625C359.75 39.1875 360.85 39 362 39C363.15 39 364.25 39.1875 365.3 39.5625C366.35 39.9375 367.3 40.45 368.15 41.1C368.733 40.4167 369.188 39.6417 369.513 38.775C369.838 37.9083 370 36.9833 370 36C370 33.7833 369.221 31.8958 367.663 30.3375C366.104 28.7792 364.217 28 362 28C359.783 28 357.896 28.7792 356.338 30.3375C354.779 31.8958 354 33.7833 354 36C354 36.9833 354.162 37.9083 354.487 38.775C354.812 39.6417 355.267 40.4167 355.85 41.1ZM362 37C361.017 37 360.188 36.6625 359.513 35.9875C358.838 35.3125 358.5 34.4833 358.5 33.5C358.5 32.5167 358.838 31.6875 359.513 31.0125C360.188 30.3375 361.017 30 362 30C362.983 30 363.812 30.3375 364.488 31.0125C365.163 31.6875 365.5 32.5167 365.5 33.5C365.5 34.4833 365.163 35.3125 364.488 35.9875C363.812 36.6625 362.983 37 362 37ZM362 46C360.617 46 359.317 45.7375 358.1 45.2125C356.883 44.6875 355.825 43.975 354.925 43.075C354.025 42.175 353.312 41.1167 352.788 39.9C352.262 38.6833 352 37.3833 352 36C352 34.6167 352.262 33.3167 352.788 32.1C353.312 30.8833 354.025 29.825 354.925 28.925C355.825 28.025 356.883 27.3125 358.1 26.7875C359.317 26.2625 360.617 26 362 26C363.383 26 364.683 26.2625 365.9 26.7875C367.117 27.3125 368.175 28.025 369.075 28.925C369.975 29.825 370.688 30.8833 371.212 32.1C371.737 33.3167 372 34.6167 372 36C372 37.3833 371.737 38.6833 371.212 39.9C370.688 41.1167 369.975 42.175 369.075 43.075C368.175 43.975 367.117 44.6875 365.9 45.2125C364.683 45.7375 363.383 46 362 46Z" fill="#49454F"/>
</g>
<defs>
<clipPath id="clip0_1_4507">
<rect x="8" y="16" width="40" height="40" rx="20" fill="white"/>
</clipPath>
<clipPath id="clip1_1_4507">
<rect x="342" y="16" width="40" height="40" rx="20" fill="white"/>
</clipPath>
</defs>
</svg>
